<?xml version="1.0" encoding="UTF-8"?>
<svg id="a"
    xmlns="http://www.w3.org/2000/svg" viewBox="0 0 103.01 49.22">
    <defs>
        <style>.b{fill:#f1f2f1;}</style>
    </defs>
    <path class="b" d="M7.59,43.95l-.56,5.27H0L6.33,0h7.03l6.33,49.22h-7.03l-.56-5.27H7.59Zm3.76-7.03l-1.51-14.06-1.51,14.06h3.02Z"/>
    <path class="b" d="M22.15,49.22V0h8.79c2.44,0,4.51,.86,6.22,2.57,1.71,1.71,2.57,3.79,2.57,6.22v10.55c0,1.99-.57,3.75-1.72,5.27,1.15,1.52,1.72,3.28,1.72,5.27v10.55c0,2.44-.86,4.51-2.57,6.22s-3.79,2.57-6.22,2.57h-8.79ZM29.18,7.03v14.06h1.76c.49,0,.91-.17,1.25-.51s.51-.76,.51-1.25V8.79c0-.49-.17-.91-.51-1.25-.34-.34-.76-.51-1.25-.51h-1.76Zm0,21.09v14.06h1.76c.49,0,.91-.17,1.25-.51s.51-.76,.51-1.25v-10.55c0-.49-.17-.91-.51-1.25-.34-.34-.76-.51-1.25-.51h-1.76Z"/>
    <path class="b" d="M43.24,8.79c0-2.44,.86-4.51,2.57-6.22s3.78-2.57,6.22-2.57,4.51,.86,6.22,2.57c1.71,1.71,2.57,3.79,2.57,6.22v31.64c0,2.44-.86,4.51-2.57,6.22s-3.79,2.57-6.22,2.57-4.51-.86-6.22-2.57c-1.71-1.71-2.57-3.78-2.57-6.22V8.79Zm10.55,0c0-.49-.17-.91-.51-1.25-.34-.34-.76-.51-1.25-.51s-.91,.17-1.25,.51-.51,.76-.51,1.25v31.64c0,.49,.17,.91,.51,1.25,.34,.34,.76,.51,1.25,.51s.91-.17,1.25-.51,.51-.76,.51-1.25V8.79Z"/>
    <path class="b" d="M64.34,40.43V0h7.03V40.43c0,.49,.17,.91,.51,1.25,.34,.34,.76,.51,1.25,.51s.91-.17,1.25-.51c.34-.34,.51-.76,.51-1.25V0h7.03V40.43c0,2.44-.86,4.51-2.57,6.22-1.71,1.71-3.79,2.57-6.22,2.57s-4.51-.86-6.22-2.57c-1.71-1.71-2.57-3.78-2.57-6.22Z"/>
    <path class="b" d="M97.73,7.03V49.22h-7.03V7.03h-5.27V0h17.58V7.03h-5.27Z"/>
</svg>
