<?xml version="1.0" encoding="UTF-8"?>
<svg id="Layer_1" data-name="Layer 1" xmlns="http://www.w3.org/2000/svg" xmlns:xlink="http://www.w3.org/1999/xlink" viewBox="0 0 368.4 115.2">
  <defs>
    <style>
      .cls-1 {
        fill: #424142;
      }

      .cls-2 {
        fill: #f1f2f2;
      }

      .cls-3 {
        fill: #231f20;
        filter: url(#drop-shadow-1);
        stroke: #414042;
        stroke-miterlimit: 10;
        stroke-width: 5px;
      }
    </style>
    <filter id="drop-shadow-1" filterUnits="userSpaceOnUse">
      <feOffset dx="7" dy="7"/>
      <feGaussianBlur result="blur" stdDeviation="5"/>
      <feFlood flood-color="#000" flood-opacity="1"/>
      <feComposite in2="blur" operator="in"/>
      <feComposite in="SourceGraphic"/>
    </filter>
  </defs>
  <rect class="cls-3" x="10.57" y="10.68" width="333.1" height="80" rx="5.77" ry="5.77"/>
  <g>
    <path class="cls-2" d="M37.1,45v1.46l-5.86,1.46v-2.93c0-.41-.14-.76-.42-1.04-.28-.28-.63-.42-1.04-.42s-.76,.14-1.04,.42-.42,.63-.42,1.04v4.39c0,.41,.14,.76,.42,1.04,.28,.28,.63,.42,1.04,.42,2.03,0,3.76,.71,5.19,2.14,1.43,1.43,2.14,3.15,2.14,5.19v4.39c0,2.03-.71,3.76-2.14,5.19s-3.15,2.14-5.19,2.14-3.76-.71-5.19-2.14c-1.43-1.43-2.14-3.15-2.14-5.19v-1.46l5.86-1.46v2.93c0,.41,.14,.76,.42,1.04,.28,.28,.63,.42,1.04,.42s.76-.14,1.04-.42,.42-.63,.42-1.04v-4.39c0-.41-.14-.76-.42-1.04-.28-.28-.63-.42-1.04-.42-2.03,0-3.76-.71-5.19-2.14-1.43-1.43-2.14-3.15-2.14-5.19v-4.39c0-2.03,.71-3.76,2.14-5.19s3.15-2.14,5.19-2.14,3.76,.71,5.19,2.14c1.43,1.43,2.14,3.15,2.14,5.19Z"/>
    <path class="cls-2" d="M48.82,62.58v-2.93l5.86,1.46v1.46c0,2.03-.71,3.76-2.14,5.19s-3.15,2.14-5.19,2.14-3.76-.71-5.19-2.14c-1.43-1.43-2.14-3.15-2.14-5.19v-17.58c0-2.03,.71-3.76,2.14-5.19s3.15-2.14,5.19-2.14,3.76,.71,5.19,2.14c1.43,1.43,2.14,3.15,2.14,5.19v1.46l-5.86,1.46v-2.93c0-.41-.14-.76-.42-1.04-.28-.28-.63-.42-1.04-.42s-.76,.14-1.04,.42-.42,.63-.42,1.04v17.58c0,.41,.14,.76,.42,1.04,.28,.28,.63,.42,1.04,.42s.76-.14,1.04-.42,.42-.63,.42-1.04Z"/>
    <path class="cls-2" d="M72.26,45v24.9h-5.86v-24.9c0-.41-.14-.76-.42-1.04-.28-.28-.63-.42-1.04-.42s-.76,.14-1.04,.42-.42,.63-.42,1.04v24.9h-5.86V28.88h5.86v8.94c.47-.1,.96-.15,1.46-.15,2.03,0,3.76,.71,5.19,2.14,1.43,1.43,2.14,3.15,2.14,5.19Z"/>
    <path class="cls-2" d="M75.19,37.67h2.93l.44,1.11c1.17-.74,2.49-1.11,3.96-1.11,2.03,0,3.76,.71,5.19,2.14,1.43,1.43,2.14,3.15,2.14,5.19v1.46l-5.86,1.46v-2.93c0-.41-.14-.76-.42-1.04-.28-.28-.63-.42-1.04-.42s-.76,.14-1.04,.42-.42,.63-.42,1.04v24.9h-5.86V37.67Z"/>
    <path class="cls-2" d="M92.77,45c0-2.03,.71-3.76,2.14-5.19s3.15-2.14,5.19-2.14,3.76,.71,5.19,2.14c1.43,1.43,2.14,3.15,2.14,5.19v11.72h-8.79v5.86c0,.41,.14,.76,.42,1.04,.28,.28,.63,.42,1.04,.42s.76-.14,1.04-.42,.42-.63,.42-1.04v-2.93l5.86,1.46v1.46c0,2.03-.71,3.76-2.14,5.19s-3.15,2.14-5.19,2.14-3.76-.71-5.19-2.14c-1.43-1.43-2.14-3.15-2.14-5.19v-17.58Zm8.79,0c0-.41-.14-.76-.42-1.04-.28-.28-.63-.42-1.04-.42s-.76,.14-1.04,.42-.42,.63-.42,1.04v5.86h2.93v-5.86Z"/>
    <path class="cls-2" d="M110.35,34.74v-5.86h5.86v5.86h-5.86Zm5.86,2.93v32.23h-5.86V37.67h5.86Z"/>
    <path class="cls-2" d="M124.99,37.82c.47-.1,.96-.15,1.46-.15,2.03,0,3.76,.71,5.19,2.14,1.43,1.43,2.14,3.15,2.14,5.19v17.58c0,2.03-.71,3.76-2.14,5.19-1.43,1.43-3.15,2.14-5.19,2.14-1.46,0-2.78-.37-3.96-1.11l-.44,1.11h-2.93V28.88h5.86v8.94Zm2.93,7.18c0-.41-.14-.76-.42-1.04-.28-.28-.63-.42-1.04-.42s-.76,.14-1.04,.42c-.28,.28-.42,.63-.42,1.04v17.58c0,.41,.14,.76,.42,1.04,.28,.28,.63,.42,1.04,.42s.76-.14,1.04-.42c.28-.28,.42-.63,.42-1.04v-17.58Z"/>
    <path class="cls-1" d="M145.5,52.32v-5.86c2.93-1.95,5.86-1.95,8.79,0,2.93,1.95,5.86,1.95,8.79,0v5.86c-2.93,1.95-5.86,1.95-8.79,0-2.93-1.95-5.86-1.95-8.79,0Z"/>
    <path class="cls-1" d="M182.12,25.95l-11.43,46.88h-6.15l11.43-46.88h6.15Z"/>
    <path class="cls-1" d="M185.05,37.67v-8.79h5.86v8.79h2.93v5.86h-2.93v19.04c0,.41,.14,.76,.42,1.04,.28,.28,.63,.42,1.04,.42h1.46v5.86h-1.46c-2.03,0-3.76-.71-5.19-2.14-1.43-1.43-2.14-3.15-2.14-5.19v-19.04h-1.46v-5.86h1.46Z"/>
    <path class="cls-1" d="M196.77,62.58v-24.9h5.86v24.9c0,.41,.14,.76,.42,1.04,.28,.28,.63,.42,1.04,.42s.76-.14,1.04-.42c.28-.28,.42-.63,.42-1.04v-24.9h5.86v32.23h-2.93l-.44-1.11c-1.17,.74-2.49,1.11-3.96,1.11-2.03,0-3.76-.71-5.19-2.14-1.43-1.43-2.14-3.15-2.14-5.19Z"/>
    <path class="cls-1" d="M215.81,37.67v-8.79h5.86v8.79h2.93v5.86h-2.93v19.04c0,.41,.14,.76,.42,1.04,.28,.28,.63,.42,1.04,.42h1.46v5.86h-1.46c-2.03,0-3.76-.71-5.19-2.14-1.43-1.43-2.14-3.15-2.14-5.19v-19.04h-1.46v-5.86h1.46Z"/>
    <path class="cls-1" d="M227.53,45c0-2.03,.71-3.76,2.14-5.19,1.43-1.43,3.15-2.14,5.19-2.14s3.76,.71,5.19,2.14c1.43,1.43,2.14,3.15,2.14,5.19v17.58c0,2.03-.71,3.76-2.14,5.19-1.43,1.43-3.15,2.14-5.19,2.14s-3.76-.71-5.19-2.14c-1.43-1.43-2.14-3.15-2.14-5.19v-17.58Zm8.79,0c0-.41-.14-.76-.42-1.04-.28-.28-.63-.42-1.04-.42s-.76,.14-1.04,.42c-.28,.28-.42,.63-.42,1.04v17.58c0,.41,.14,.76,.42,1.04,.28,.28,.63,.42,1.04,.42s.76-.14,1.04-.42c.28-.28,.42-.63,.42-1.04v-17.58Z"/>
    <path class="cls-1" d="M245.11,37.67h2.93l.44,1.11c1.17-.74,2.49-1.11,3.96-1.11,2.03,0,3.76,.71,5.19,2.14,1.43,1.43,2.14,3.15,2.14,5.19v1.46l-5.86,1.46v-2.93c0-.41-.14-.76-.42-1.04-.28-.28-.63-.42-1.04-.42s-.76,.14-1.04,.42c-.28,.28-.42,.63-.42,1.04v24.9h-5.86V37.67Z"/>
    <path class="cls-1" d="M278.8,25.95l-11.43,46.88h-6.15l11.43-46.88h6.15Z"/>
    <path class="cls-1" d="M284.66,29.47v-3.52h5.86v3.52c.82,.35,1.57,.87,2.26,1.55,1.43,1.43,2.14,3.15,2.14,5.19v2.93l-5.86,1.46v-4.39c0-.41-.14-.76-.42-1.04-.28-.28-.63-.42-1.04-.42s-.76,.14-1.04,.42c-.28,.28-.42,.63-.42,1.04v8.79c0,.41,.14,.76,.42,1.04,.28,.28,.63,.42,1.04,.42,2.03,0,3.76,.71,5.19,2.14,1.43,1.43,2.14,3.15,2.14,5.19v8.79c0,2.03-.71,3.76-2.14,5.19-.68,.68-1.44,1.2-2.26,1.55v3.52h-5.86v-3.52c-.82-.35-1.57-.87-2.26-1.55-1.43-1.43-2.14-3.15-2.14-5.19v-2.93l5.86-1.46v4.39c0,.41,.14,.76,.42,1.04,.28,.28,.63,.42,1.04,.42s.76-.14,1.04-.42c.28-.28,.42-.63,.42-1.04v-8.79c0-.41-.14-.76-.42-1.04-.28-.28-.63-.42-1.04-.42-2.03,0-3.76-.71-5.19-2.14-1.43-1.43-2.14-3.15-2.14-5.19v-8.79c0-2.03,.71-3.76,2.14-5.19,.68-.68,1.44-1.2,2.26-1.55Z"/>
  </g>
  <rect class="cls-2" x="311.11" y="27.24" width="20.69" height="46.88">
               <animate
        attributeName="fill"
        values="#e6f6eb;transparent"
        begin="0s"
        dur="2s"
        calcMode="discrete"
        repeatCount="indefinite"/>
  </rect>
</svg>