<?xml version="1.0" encoding="UTF-8"?>
<svg id="a"
    xmlns="http://www.w3.org/2000/svg" viewBox="0 0 281.28 278.98">
    <defs>
        <style>.ac{fill:#fff;}.ad{fill:#666766;}.ae{fill:#58595b;}</style>
    </defs>
    <g class="first" id="b">
        <rect class="ad" x="76.8" width="50" height="50"/>
    </g>
    <g id="c">
        <path class="ac" d="M87.29,31.49V15.08h2.34v14.06h2.34v2.34h-4.69Z"/>
        <path class="ac" d="M93.15,21.53c0-.81,.29-1.5,.86-2.07s1.26-.86,2.07-.86,1.5,.29,2.07,.86,.86,1.26,.86,2.07v7.03c0,.81-.29,1.5-.86,2.07s-1.26,.86-2.07,.86-1.5-.29-2.07-.86-.86-1.26-.86-2.07v-7.03Zm3.52,0c0-.16-.06-.3-.17-.42s-.25-.17-.42-.17-.3,.06-.42,.17-.17,.25-.17,.42v7.03c0,.16,.06,.3,.17,.42s.25,.17,.42,.17,.3-.06,.42-.17,.17-.25,.17-.42v-7.03Z"/>
        <path class="ac" d="M100.18,21.53c0-.81,.29-1.5,.86-2.07s1.26-.86,2.07-.86c.59,0,1.11,.15,1.58,.45l.18-.45h1.17v9.96c0,.81-.29,1.5-.86,2.07s-1.26,.86-2.07,.86c-.16,0-.3,.06-.42,.17s-.17,.25-.17,.42,.06,.3,.17,.42,.25,.17,.42,.17h1.76l.59,2.34h-2.34c-.81,0-1.5-.29-2.07-.86s-.86-1.26-.86-2.07c0-.66,.19-1.25,.57-1.76-.38-.51-.57-1.09-.57-1.76v-7.03Zm3.52,0c0-.16-.06-.3-.17-.42s-.25-.17-.42-.17-.3,.06-.42,.17-.17,.25-.17,.42v7.03c0,.16,.06,.3,.17,.42s.25,.17,.42,.17,.3-.06,.42-.17,.17-.25,.17-.42v-7.03Z"/>
        <path class="ac" d="M107.21,17.43v-2.34h2.34v2.34h-2.34Zm2.34,1.17v12.89h-2.34v-12.89h2.34Z"/>
        <path class="ac" d="M116.58,21.53v9.96h-2.34v-9.96c0-.16-.06-.3-.17-.42s-.25-.17-.42-.17-.3,.06-.42,.17-.17,.25-.17,.42v9.96h-2.34v-12.89h1.17l.18,.45c.47-.3,1-.45,1.58-.45,.81,0,1.5,.29,2.07,.86s.86,1.26,.86,2.07Z"/>
    </g>
    <g class="second" id="d">
        <rect class="ad" y="80.77" width="50" height="50"/>
    </g>
    <g id="e">
        <path class="ac" d="M14.28,90.48v12.3h-1.65v-12.3h-1.24v-2.05h4.12v2.05h-1.24Z"/>
        <path class="ac" d="M16.34,94.07c0-.71,.2-1.32,.6-1.81,.4-.5,.89-.75,1.46-.75,.41,0,.78,.13,1.11,.39l.12-.39h.82v11.28h-.82l-.12-.39c-.33,.26-.7,.39-1.11,.39-.57,0-1.06-.25-1.46-.75-.4-.5-.6-1.1-.6-1.81v-6.15Zm2.47,0c0-.14-.04-.26-.12-.36-.08-.1-.18-.15-.29-.15s-.21,.05-.29,.15c-.08,.1-.12,.22-.12,.36v6.15c0,.14,.04,.27,.12,.36s.18,.15,.29,.15,.21-.05,.29-.15c.08-.1,.12-.22,.12-.36v-6.15Z"/>
        <path class="ac" d="M22.94,95.93l.99-4.43h1.73l-1.44,5.64,1.44,5.64h-1.73l-.99-4.43v4.43h-1.65v-14.36h1.65v7.51Z"/>
        <path class="ac" d="M26.24,94.07c0-.71,.2-1.32,.6-1.81,.4-.5,.89-.75,1.46-.75s1.06,.25,1.46,.75c.4,.5,.6,1.1,.6,1.81v4.1h-2.47v2.05c0,.14,.04,.27,.12,.36s.18,.15,.29,.15,.21-.05,.29-.15c.08-.1,.12-.22,.12-.36v-1.03l1.65,.51v.51c0,.71-.2,1.32-.6,1.81-.4,.5-.89,.75-1.46,.75s-1.06-.25-1.46-.75c-.4-.5-.6-1.1-.6-1.81v-6.15Zm2.47,0c0-.14-.04-.26-.12-.36-.08-.1-.18-.15-.29-.15s-.21,.05-.29,.15c-.08,.1-.12,.22-.12,.36v2.05h.82v-2.05Z"/>
        <path class="ac" d="M33.66,94.07c0-.71,.2-1.32,.6-1.81,.4-.5,.89-.75,1.46-.75,.41,0,.78,.13,1.11,.39l.12-.39h.82v11.28h-.82l-.12-.39c-.33,.26-.7,.39-1.11,.39-.57,0-1.06-.25-1.46-.75-.4-.5-.6-1.1-.6-1.81v-6.15Zm2.47,0c0-.14-.04-.26-.12-.36-.08-.1-.18-.15-.29-.15s-.21,.05-.29,.15c-.08,.1-.12,.22-.12,.36v6.15c0,.14,.04,.27,.12,.36s.18,.15,.29,.15,.21-.05,.29-.15c.08-.1,.12-.22,.12-.36v-6.15Z"/>
        <path class="ac" d="M16.55,108.99c0-.71,.2-1.32,.6-1.81,.4-.5,.89-.75,1.46-.75s1.06,.25,1.46,.75c.4,.5,.6,1.1,.6,1.81v9.23c0,.59-.14,1.1-.41,1.55,0,.14,.04,.25,.12,.35,.08,.1,.17,.15,.29,.15v2.05c-.57,0-1.06-.25-1.46-.75-.19-.24-.34-.51-.44-.8-.06,0-.11,.01-.17,.01-.57,0-1.06-.25-1.46-.75-.4-.5-.6-1.1-.6-1.81v-9.23Zm2.47,0c0-.14-.04-.26-.12-.36-.08-.1-.18-.15-.29-.15s-.21,.05-.29,.15c-.08,.1-.12,.22-.12,.36v9.23c0,.14,.04,.27,.12,.36s.18,.15,.29,.15,.21-.05,.29-.15c.08-.1,.12-.22,.12-.36v-9.23Z"/>
        <path class="ac" d="M21.5,118.22v-8.72h1.65v8.72c0,.14,.04,.27,.12,.36s.18,.15,.29,.15,.21-.05,.29-.15c.08-.1,.12-.22,.12-.36v-8.72h1.65v11.28h-.82l-.12-.39c-.33,.26-.7,.39-1.11,.39-.57,0-1.06-.25-1.46-.75-.4-.5-.6-1.1-.6-1.81Z"/>
        <path class="ac" d="M26.44,108.48v-2.05h1.65v2.05h-1.65Zm1.65,1.03v11.28h-1.65v-11.28h1.65Z"/>
        <path class="ac" d="M30.89,111.55h-1.98v-2.05h3.71v2.05l-1.98,7.18h1.98v2.05h-3.71v-2.05l1.98-7.18Z"/>
    </g>
    <g class="second" id="f">
        <rect class="ad" x="76.8" y="80.77" width="50" height="50"/>
    </g>
    <g id="g">
        <path class="ac" d="M85.9,88.43c.71,0,1.32,.25,1.81,.75s.75,1.1,.75,1.81v9.23c0,.71-.25,1.32-.75,1.81s-1.1,.75-1.81,.75h-2.56v-14.36h2.56Zm0,12.3c.14,0,.26-.05,.36-.15,.1-.1,.15-.22,.15-.36v-9.23c0-.14-.05-.26-.15-.36-.1-.1-.22-.15-.36-.15h-.51v10.25h.51Z"/>
        <path class="ac" d="M89.49,94.07c0-.71,.25-1.32,.75-1.81s1.1-.75,1.81-.75,1.32,.25,1.81,.75,.75,1.1,.75,1.81v4.1h-3.08v2.05c0,.14,.05,.27,.15,.36s.22,.15,.36,.15,.26-.05,.36-.15c.1-.1,.15-.22,.15-.36v-1.03l2.05,.51v.51c0,.71-.25,1.32-.75,1.81s-1.1,.75-1.81,.75-1.32-.25-1.81-.75-.75-1.1-.75-1.81v-6.15Zm3.08,0c0-.14-.05-.26-.15-.36-.1-.1-.22-.15-.36-.15s-.27,.05-.36,.15c-.1,.1-.15,.22-.15,.36v2.05h1.03v-2.05Z"/>
        <path class="ac" d="M98.21,94.58v8.2h-2.05v-8.2h-.51v-2.05h.51v-1.54c0-.71,.25-1.32,.75-1.81s1.1-.75,1.81-.75h.51v2.05h-.51c-.14,0-.27,.05-.36,.15-.1,.1-.15,.22-.15,.36v1.54h1.03v2.05h-1.03Z"/>
        <path class="ac" d="M100.26,94.07c0-.71,.25-1.32,.75-1.81s1.1-.75,1.81-.75c.51,0,.97,.13,1.38,.39l.15-.39h1.03v11.28h-1.03l-.15-.39c-.41,.26-.87,.39-1.38,.39-.71,0-1.32-.25-1.81-.75s-.75-1.1-.75-1.81v-6.15Zm3.08,0c0-.14-.05-.26-.15-.36-.1-.1-.22-.15-.36-.15s-.27,.05-.36,.15c-.1,.1-.15,.22-.15,.36v6.15c0,.14,.05,.27,.15,.36s.22,.15,.36,.15,.26-.05,.36-.15c.1-.1,.15-.22,.15-.36v-6.15Z"/>
        <path class="ac" d="M106.41,100.22v-8.72h2.05v8.72c0,.14,.05,.27,.15,.36s.22,.15,.36,.15,.26-.05,.36-.15c.1-.1,.15-.22,.15-.36v-8.72h2.05v11.28h-1.03l-.15-.39c-.41,.26-.87,.39-1.38,.39-.71,0-1.32-.25-1.81-.75s-.75-1.1-.75-1.81Z"/>
        <path class="ac" d="M114.61,88.43v14.36h-2.05v-14.36h2.05Z"/>
        <path class="ac" d="M116.15,91.5v-3.08h2.05v3.08h1.03v2.05h-1.03v6.67c0,.14,.05,.27,.15,.36s.22,.15,.36,.15h.51v2.05h-.51c-.71,0-1.32-.25-1.81-.75s-.75-1.1-.75-1.81v-6.67h-.51v-2.05h.51Z"/>
        <path class="ac" d="M91.29,108.99c0-.71,.25-1.32,.75-1.81s1.1-.75,1.81-.75,1.32,.25,1.81,.75,.75,1.1,.75,1.81v9.23c0,.59-.17,1.1-.51,1.55,0,.14,.05,.25,.15,.35,.1,.1,.22,.15,.36,.15v2.05c-.71,0-1.32-.25-1.81-.75-.24-.24-.42-.51-.54-.8-.07,0-.14,.01-.21,.01-.71,0-1.32-.25-1.81-.75s-.75-1.1-.75-1.81v-9.23Zm3.08,0c0-.14-.05-.26-.15-.36-.1-.1-.22-.15-.36-.15s-.27,.05-.36,.15c-.1,.1-.15,.22-.15,.36v9.23c0,.14,.05,.27,.15,.36s.22,.15,.36,.15,.26-.05,.36-.15c.1-.1,.15-.22,.15-.36v-9.23Z"/>
        <path class="ac" d="M97.44,118.22v-8.72h2.05v8.72c0,.14,.05,.27,.15,.36s.22,.15,.36,.15,.26-.05,.36-.15c.1-.1,.15-.22,.15-.36v-8.72h2.05v11.28h-1.03l-.15-.39c-.41,.26-.87,.39-1.38,.39-.71,0-1.32-.25-1.81-.75s-.75-1.1-.75-1.81Z"/>
        <path class="ac" d="M103.59,108.48v-2.05h2.05v2.05h-2.05Zm2.05,1.03v11.28h-2.05v-11.28h2.05Z"/>
        <path class="ac" d="M109.13,111.55h-2.46v-2.05h4.61v2.05l-2.46,7.18h2.46v2.05h-4.61v-2.05l2.46-7.18Z"/>
    </g>
    <g class="2nd" id="h">
        <rect class="ad" x="153.59" y="80.77" width="50" height="50"/>
    </g>
    <g id="i">
        <path class="ac" d="M166.03,90.99v1.03l-2.05,.51v-1.54c0-.14-.05-.26-.15-.36-.1-.1-.22-.15-.36-.15s-.26,.05-.36,.15c-.1,.1-.15,.22-.15,.36v9.23c0,.14,.05,.27,.15,.36,.1,.1,.22,.15,.36,.15s.26-.05,.36-.15c.1-.1,.15-.22,.15-.36v-1.54l2.05,.51v1.03c0,.71-.25,1.32-.75,1.81s-1.1,.75-1.82,.75-1.32-.25-1.81-.75-.75-1.1-.75-1.81v-9.23c0-.71,.25-1.32,.75-1.81s1.1-.75,1.81-.75,1.32,.25,1.82,.75,.75,1.1,.75,1.81Z"/>
        <path class="ac" d="M167.06,91.5h1.03l.15,.39c.41-.26,.87-.39,1.38-.39,.71,0,1.32,.25,1.82,.75s.75,1.1,.75,1.81v.51l-2.05,.51v-1.03c0-.14-.05-.26-.15-.36-.1-.1-.22-.15-.36-.15s-.26,.05-.36,.15c-.1,.1-.15,.22-.15,.36v8.72h-2.05v-11.28Z"/>
        <path class="ac" d="M173.21,94.07c0-.71,.25-1.32,.75-1.81s1.1-.75,1.81-.75,1.32,.25,1.82,.75,.75,1.1,.75,1.81v4.1h-3.08v2.05c0,.14,.05,.27,.15,.36,.1,.1,.22,.15,.36,.15s.26-.05,.36-.15c.1-.1,.15-.22,.15-.36v-1.03l2.05,.51v.51c0,.71-.25,1.32-.75,1.81s-1.1,.75-1.82,.75-1.32-.25-1.81-.75-.75-1.1-.75-1.81v-6.15Zm3.08,0c0-.14-.05-.26-.15-.36-.1-.1-.22-.15-.36-.15s-.26,.05-.36,.15c-.1,.1-.15,.22-.15,.36v2.05h1.03v-2.05Z"/>
        <path class="ac" d="M179.36,94.07c0-.71,.25-1.32,.75-1.81s1.1-.75,1.81-.75c.51,0,.97,.13,1.38,.39l.15-.39h1.03v11.28h-1.03l-.15-.39c-.41,.26-.87,.39-1.38,.39-.71,0-1.32-.25-1.81-.75s-.75-1.1-.75-1.81v-6.15Zm3.08,0c0-.14-.05-.26-.15-.36-.1-.1-.22-.15-.36-.15s-.26,.05-.36,.15c-.1,.1-.15,.22-.15,.36v6.15c0,.14,.05,.27,.15,.36,.1,.1,.22,.15,.36,.15s.26-.05,.36-.15c.1-.1,.15-.22,.15-.36v-6.15Z"/>
        <path class="ac" d="M186.03,91.5v-3.08h2.05v3.08h1.03v2.05h-1.03v6.67c0,.14,.05,.27,.15,.36,.1,.1,.22,.15,.36,.15h.51v2.05h-.51c-.71,0-1.32-.25-1.81-.75s-.75-1.1-.75-1.81v-6.67h-.51v-2.05h.51Z"/>
        <path class="ac" d="M190.13,94.07c0-.71,.25-1.32,.75-1.81s1.1-.75,1.81-.75,1.32,.25,1.82,.75,.75,1.1,.75,1.81v4.1h-3.08v2.05c0,.14,.05,.27,.15,.36,.1,.1,.22,.15,.36,.15s.26-.05,.36-.15c.1-.1,.15-.22,.15-.36v-1.03l2.05,.51v.51c0,.71-.25,1.32-.75,1.81s-1.1,.75-1.82,.75-1.32-.25-1.81-.75-.75-1.1-.75-1.81v-6.15Zm3.08,0c0-.14-.05-.26-.15-.36-.1-.1-.22-.15-.36-.15s-.26,.05-.36,.15c-.1,.1-.15,.22-.15,.36v2.05h1.03v-2.05Z"/>
        <path class="ac" d="M168.08,108.99c0-.71,.25-1.32,.75-1.81s1.1-.75,1.81-.75,1.32,.25,1.82,.75,.75,1.1,.75,1.81v9.23c0,.59-.17,1.1-.51,1.55,0,.14,.05,.25,.15,.35,.1,.1,.21,.15,.36,.15v2.05c-.71,0-1.32-.25-1.81-.75-.24-.24-.42-.51-.54-.8-.07,0-.14,.01-.21,.01-.71,0-1.32-.25-1.81-.75s-.75-1.1-.75-1.81v-9.23Zm3.08,0c0-.14-.05-.26-.15-.36-.1-.1-.22-.15-.36-.15s-.26,.05-.36,.15c-.1,.1-.15,.22-.15,.36v9.23c0,.14,.05,.27,.15,.36,.1,.1,.22,.15,.36,.15s.26-.05,.36-.15c.1-.1,.15-.22,.15-.36v-9.23Z"/>
        <path class="ac" d="M174.23,118.22v-8.72h2.05v8.72c0,.14,.05,.27,.15,.36,.1,.1,.22,.15,.36,.15s.26-.05,.36-.15c.1-.1,.15-.22,.15-.36v-8.72h2.05v11.28h-1.03l-.15-.39c-.41,.26-.87,.39-1.38,.39-.71,0-1.32-.25-1.81-.75s-.75-1.1-.75-1.81Z"/>
        <path class="ac" d="M180.39,108.48v-2.05h2.05v2.05h-2.05Zm2.05,1.03v11.28h-2.05v-11.28h2.05Z"/>
        <path class="ac" d="M185.92,111.55h-2.46v-2.05h4.61v2.05l-2.46,7.18h2.46v2.05h-4.61v-2.05l2.46-7.18Z"/>
    </g>
    <g class="second" id="j">
        <rect class="ad" x="76.8" y="228.98" width="50" height="50"/>
    </g>
    <g id="k">
        <path class="ac" d="M93.76,244.33l.66-7.69h1.65l-1.48,14.36h-1.65l-1.48-14.36h1.65l.66,7.69Z"/>
        <path class="ac" d="M96.64,238.69v-2.05h1.65v2.05h-1.65Zm1.65,1.03v11.28h-1.65v-11.28h1.65Z"/>
        <path class="ac" d="M99.12,242.28c0-.71,.2-1.32,.6-1.81,.4-.5,.89-.75,1.46-.75s1.06,.25,1.46,.75c.4,.5,.6,1.1,.6,1.81v4.1h-2.47v2.05c0,.14,.04,.27,.12,.36,.08,.1,.18,.15,.29,.15s.21-.05,.29-.15c.08-.1,.12-.22,.12-.36v-1.03l1.65,.51v.51c0,.71-.2,1.32-.6,1.82-.4,.5-.89,.75-1.46,.75s-1.06-.25-1.46-.75c-.4-.5-.6-1.1-.6-1.82v-6.15Zm2.47,0c0-.14-.04-.26-.12-.36-.08-.1-.18-.15-.29-.15s-.21,.05-.29,.15c-.08,.1-.12,.22-.12,.36v2.05h.82v-2.05Z"/>
        <path class="ac" d="M107.57,246.3l-.62,4.7h-1.65l-1.48-11.28h1.73l.58,6.04,.58-6.04h1.73l.58,6.04,.58-6.04h1.73l-1.48,11.28h-1.65l-.62-4.7Z"/>
        <path class="ac" d="M87.99,262.84v6.15h-1.65v-14.36h2.06c.57,0,1.06,.25,1.46,.75,.4,.5,.6,1.1,.6,1.81v3.08c0,.58-.13,1.09-.4,1.54,.27,.44,.4,.96,.4,1.54v5.64h-1.65v-5.64c0-.14-.04-.26-.12-.36-.08-.1-.18-.15-.29-.15h-.41Zm0-6.15v4.1h.41c.12,0,.21-.05,.29-.15,.08-.1,.12-.22,.12-.36v-3.08c0-.14-.04-.26-.12-.36-.08-.1-.18-.15-.29-.15h-.41Z"/>
        <path class="ac" d="M91.29,260.28c0-.71,.2-1.32,.6-1.81,.4-.5,.89-.75,1.46-.75s1.06,.25,1.46,.75c.4,.5,.6,1.1,.6,1.81v4.1h-2.47v2.05c0,.14,.04,.27,.12,.36,.08,.1,.18,.15,.29,.15s.21-.05,.29-.15c.08-.1,.12-.22,.12-.36v-1.03l1.65,.51v.51c0,.71-.2,1.32-.6,1.82-.4,.5-.89,.75-1.46,.75s-1.06-.25-1.46-.75c-.4-.5-.6-1.1-.6-1.82v-6.15Zm2.47,0c0-.14-.04-.26-.12-.36-.08-.1-.18-.15-.29-.15s-.21,.05-.29,.15c-.08,.1-.12,.22-.12,.36v2.05h.82v-2.05Z"/>
        <path class="ac" d="M100.35,260.28v.51l-1.65,.51v-1.03c0-.14-.04-.26-.12-.36-.08-.1-.18-.15-.29-.15s-.21,.05-.29,.15c-.08,.1-.12,.22-.12,.36v1.54c0,.14,.04,.27,.12,.36,.08,.1,.18,.15,.29,.15,.57,0,1.06,.25,1.46,.75,.4,.5,.6,1.1,.6,1.81v1.54c0,.71-.2,1.32-.6,1.82-.4,.5-.89,.75-1.46,.75s-1.06-.25-1.46-.75c-.4-.5-.6-1.1-.6-1.82v-.51l1.65-.51v1.03c0,.14,.04,.27,.12,.36,.08,.1,.18,.15,.29,.15s.21-.05,.29-.15c.08-.1,.12-.22,.12-.36v-1.54c0-.14-.04-.26-.12-.36-.08-.1-.18-.15-.29-.15-.57,0-1.06-.25-1.46-.75-.4-.5-.6-1.1-.6-1.82v-1.54c0-.71,.2-1.32,.6-1.81,.4-.5,.89-.75,1.46-.75s1.06,.25,1.46,.75c.4,.5,.6,1.1,.6,1.81Z"/>
        <path class="ac" d="M101.18,266.43v-8.72h1.65v8.72c0,.14,.04,.27,.12,.36,.08,.1,.18,.15,.29,.15s.21-.05,.29-.15c.08-.1,.12-.22,.12-.36v-8.72h1.65v11.28h-.82l-.12-.39c-.33,.26-.7,.39-1.11,.39-.57,0-1.06-.25-1.46-.75-.4-.5-.6-1.1-.6-1.82Z"/>
        <path class="ac" d="M107.77,254.64v14.36h-1.65v-14.36h1.65Z"/>
        <path class="ac" d="M109.01,257.71v-3.08h1.65v3.08h.82v2.05h-.82v6.67c0,.14,.04,.27,.12,.36,.08,.1,.18,.15,.29,.15h.41v2.05h-.41c-.57,0-1.06-.25-1.46-.75-.4-.5-.6-1.1-.6-1.82v-6.67h-.41v-2.05h.41Z"/>
        <path class="ac" d="M116.43,260.28v.51l-1.65,.51v-1.03c0-.14-.04-.26-.12-.36-.08-.1-.18-.15-.29-.15s-.21,.05-.29,.15c-.08,.1-.12,.22-.12,.36v1.54c0,.14,.04,.27,.12,.36,.08,.1,.18,.15,.29,.15,.57,0,1.06,.25,1.46,.75,.4,.5,.6,1.1,.6,1.81v1.54c0,.71-.2,1.32-.6,1.82-.4,.5-.89,.75-1.46,.75s-1.06-.25-1.46-.75c-.4-.5-.6-1.1-.6-1.82v-.51l1.65-.51v1.03c0,.14,.04,.27,.12,.36,.08,.1,.18,.15,.29,.15s.21-.05,.29-.15c.08-.1,.12-.22,.12-.36v-1.54c0-.14-.04-.26-.12-.36-.08-.1-.18-.15-.29-.15-.57,0-1.06-.25-1.46-.75-.4-.5-.6-1.1-.6-1.82v-1.54c0-.71,.2-1.32,.6-1.81,.4-.5,.89-.75,1.46-.75s1.06,.25,1.46,.75c.4,.5,.6,1.1,.6,1.81Z"/>
    </g>
    <g class="third" id="l">
        <rect class="ad" x="231.28" y="159.12" width="50" height="50"/>
    </g>
    <g id="m">
        <path class="ac" d="M248.86,179.46v-11.79h1.65v11.79c0,.14,.04,.27,.12,.36,.08,.1,.18,.15,.29,.15s.21-.05,.29-.15,.12-.22,.12-.36v-11.79h1.65v11.79c0,.71-.2,1.32-.6,1.81-.4,.5-.89,.75-1.46,.75s-1.06-.25-1.46-.75-.6-1.1-.6-1.81Z"/>
        <path class="ac" d="M257.93,173.31v.51l-1.65,.51v-1.03c0-.14-.04-.26-.12-.36-.08-.1-.18-.15-.29-.15s-.21,.05-.29,.15c-.08,.1-.12,.22-.12,.36v1.54c0,.14,.04,.27,.12,.36,.08,.1,.18,.15,.29,.15,.57,0,1.06,.25,1.46,.75s.6,1.1,.6,1.81v1.54c0,.71-.2,1.32-.6,1.81s-.89,.75-1.46,.75-1.06-.25-1.46-.75c-.4-.5-.6-1.1-.6-1.81v-.51l1.65-.51v1.03c0,.14,.04,.27,.12,.36,.08,.1,.18,.15,.29,.15s.21-.05,.29-.15c.08-.1,.12-.22,.12-.36v-1.54c0-.14-.04-.26-.12-.36-.08-.1-.18-.15-.29-.15-.57,0-1.06-.25-1.46-.75-.4-.5-.6-1.1-.6-1.81v-1.54c0-.71,.2-1.32,.6-1.81,.4-.5,.89-.75,1.46-.75s1.06,.25,1.46,.75,.6,1.1,.6,1.81Z"/>
        <path class="ac" d="M258.75,173.31c0-.71,.2-1.32,.6-1.81s.89-.75,1.46-.75,1.06,.25,1.46,.75c.4,.5,.6,1.1,.6,1.81v4.1h-2.47v2.05c0,.14,.04,.27,.12,.36,.08,.1,.18,.15,.29,.15s.21-.05,.29-.15,.12-.22,.12-.36v-1.03l1.65,.51v.51c0,.71-.2,1.32-.6,1.81-.4,.5-.89,.75-1.46,.75s-1.06-.25-1.46-.75-.6-1.1-.6-1.81v-6.15Zm2.47,0c0-.14-.04-.26-.12-.36-.08-.1-.18-.15-.29-.15s-.21,.05-.29,.15c-.08,.1-.12,.22-.12,.36v2.05h.82v-2.05Z"/>
        <path class="ac" d="M247.21,197.98h1.65v2.05h-3.3v-14.36h3.3v2.05h-1.65v4.1h1.24v2.05h-1.24v4.1Z"/>
        <path class="ac" d="M251.74,191.57l.58-2.82h1.73l-1.44,5.64,1.44,5.64h-1.73l-.58-2.82-.58,2.82h-1.73l1.44-5.64-1.44-5.64h1.73l.58,2.82Z"/>
        <path class="ac" d="M257.1,197.46v-1.03l1.65,.51v.51c0,.71-.2,1.32-.6,1.82s-.89,.75-1.46,.75-1.06-.25-1.46-.75c-.4-.5-.6-1.1-.6-1.82v-6.15c0-.71,.2-1.32,.6-1.81,.4-.5,.89-.75,1.46-.75s1.06,.25,1.46,.75,.6,1.1,.6,1.81v.51l-1.65,.51v-1.03c0-.14-.04-.26-.12-.36-.08-.1-.18-.15-.29-.15s-.21,.05-.29,.15c-.08,.1-.12,.22-.12,.36v6.15c0,.14,.04,.27,.12,.36,.08,.1,.18,.15,.29,.15s.21-.05,.29-.15c.08-.1,.12-.22,.12-.36Z"/>
        <path class="ac" d="M259.58,191.31c0-.71,.2-1.32,.6-1.81s.89-.75,1.46-.75,1.06,.25,1.46,.75c.4,.5,.6,1.1,.6,1.81v4.1h-2.47v2.05c0,.14,.04,.27,.12,.36,.08,.1,.18,.15,.29,.15s.21-.05,.29-.15c.08-.1,.12-.22,.12-.36v-1.03l1.65,.51v.51c0,.71-.2,1.32-.6,1.82-.4,.5-.89,.75-1.46,.75s-1.06-.25-1.46-.75-.6-1.1-.6-1.82v-6.15Zm2.47,0c0-.14-.04-.26-.12-.36-.08-.1-.18-.15-.29-.15s-.21,.05-.29,.15c-.08,.1-.12,.22-.12,.36v2.05h.82v-2.05Z"/>
        <path class="ac" d="M266.17,185.67v14.36h-1.65v-14.36h1.65Z"/>
    </g>
    <g class="third" id="n">
        <rect class="ad" x="153.59" y="159.12" width="50" height="50"/>
    </g>
    <g id="o">
        <path class="ac" d="M171.17,178.8v-11.79h1.65v11.79c0,.14,.04,.27,.12,.36,.08,.1,.18,.15,.29,.15s.21-.05,.29-.15c.08-.1,.12-.22,.12-.36v-11.79h1.65v11.79c0,.71-.2,1.32-.6,1.81s-.89,.75-1.46,.75-1.06-.25-1.46-.75c-.4-.5-.6-1.1-.6-1.81Z"/>
        <path class="ac" d="M180.24,172.65v.51l-1.65,.51v-1.03c0-.14-.04-.26-.12-.36-.08-.1-.18-.15-.29-.15s-.21,.05-.29,.15c-.08,.1-.12,.22-.12,.36v1.54c0,.14,.04,.27,.12,.36,.08,.1,.18,.15,.29,.15,.57,0,1.06,.25,1.46,.75,.4,.5,.6,1.1,.6,1.81v1.54c0,.71-.2,1.32-.6,1.81-.4,.5-.89,.75-1.46,.75s-1.06-.25-1.46-.75-.6-1.1-.6-1.81v-.51l1.65-.51v1.03c0,.14,.04,.27,.12,.36,.08,.1,.18,.15,.29,.15s.21-.05,.29-.15,.12-.22,.12-.36v-1.54c0-.14-.04-.26-.12-.36-.08-.1-.18-.15-.29-.15-.57,0-1.06-.25-1.46-.75s-.6-1.1-.6-1.81v-1.54c0-.71,.2-1.32,.6-1.81s.89-.75,1.46-.75,1.06,.25,1.46,.75c.4,.5,.6,1.1,.6,1.81Z"/>
        <path class="ac" d="M181.07,172.65c0-.71,.2-1.32,.6-1.81,.4-.5,.89-.75,1.46-.75s1.06,.25,1.46,.75,.6,1.1,.6,1.81v4.1h-2.47v2.05c0,.14,.04,.27,.12,.36,.08,.1,.18,.15,.29,.15s.21-.05,.29-.15c.08-.1,.12-.22,.12-.36v-1.03l1.65,.51v.51c0,.71-.2,1.32-.6,1.81s-.89,.75-1.46,.75-1.06-.25-1.46-.75c-.4-.5-.6-1.1-.6-1.81v-6.15Zm2.47,0c0-.14-.04-.26-.12-.36-.08-.1-.18-.15-.29-.15s-.21,.05-.29,.15c-.08,.1-.12,.22-.12,.36v2.05h.82v-2.05Z"/>
        <path class="ac" d="M155.3,187.58c0-.71,.2-1.32,.6-1.81,.4-.5,.89-.75,1.46-.75s1.06,.25,1.46,.75,.6,1.1,.6,1.81v9.23c0,.59-.14,1.1-.41,1.55,0,.14,.04,.25,.12,.35,.08,.1,.17,.15,.29,.15v2.05c-.57,0-1.06-.25-1.46-.75-.19-.24-.34-.51-.44-.8-.06,0-.11,.01-.17,.01-.57,0-1.06-.25-1.46-.75-.4-.5-.6-1.1-.6-1.81v-9.23Zm2.47,0c0-.14-.04-.26-.12-.36-.08-.1-.18-.15-.29-.15s-.21,.05-.29,.15c-.08,.1-.12,.22-.12,.36v9.23c0,.14,.04,.26,.12,.36,.08,.1,.18,.15,.29,.15s.21-.05,.29-.15c.08-.1,.12-.22,.12-.36v-9.23Z"/>
        <path class="ac" d="M160.25,196.8v-8.72h1.65v8.72c0,.14,.04,.26,.12,.36,.08,.1,.18,.15,.29,.15s.21-.05,.29-.15c.08-.1,.12-.22,.12-.36v-8.72h1.65v11.28h-.82l-.12-.39c-.33,.26-.7,.39-1.11,.39-.57,0-1.06-.25-1.46-.75s-.6-1.1-.6-1.81Z"/>
        <path class="ac" d="M165.2,187.06v-2.05h1.65v2.05h-1.65Zm1.65,1.03v11.28h-1.65v-11.28h1.65Z"/>
        <path class="ac" d="M169.65,190.14h-1.98v-2.05h3.71v2.05l-1.98,7.18h1.98v2.05h-3.71v-2.05l1.98-7.18Z"/>
        <path class="ac" d="M172.2,199.37v-14.36h2.06c.57,0,1.06,.25,1.46,.75s.6,1.1,.6,1.81v3.08c0,.58-.13,1.09-.4,1.54,.27,.44,.4,.96,.4,1.54v3.08c0,.71-.2,1.32-.6,1.81s-.89,.75-1.46,.75h-2.06Zm1.65-12.3v4.1h.41c.12,0,.21-.05,.29-.15,.08-.1,.12-.22,.12-.36v-3.08c0-.14-.04-.26-.12-.36-.08-.1-.18-.15-.29-.15h-.41Zm0,6.15v4.1h.41c.12,0,.21-.05,.29-.15,.08-.1,.12-.22,.12-.36v-3.08c0-.14-.04-.26-.12-.36-.08-.1-.18-.15-.29-.15h-.41Z"/>
        <path class="ac" d="M177.15,196.8v-8.72h1.65v8.72c0,.14,.04,.26,.12,.36,.08,.1,.18,.15,.29,.15s.21-.05,.29-.15c.08-.1,.12-.22,.12-.36v-8.72h1.65v11.28h-.82l-.12-.39c-.33,.26-.7,.39-1.11,.39-.57,0-1.06-.25-1.46-.75s-.6-1.1-.6-1.81Z"/>
        <path class="ac" d="M182.1,187.06v-2.05h1.65v2.05h-1.65Zm1.65,1.03v11.28h-1.65v-11.28h1.65Z"/>
        <path class="ac" d="M186.22,185.01v14.36h-1.65v-14.36h1.65Z"/>
        <path class="ac" d="M187.04,190.65c0-.71,.2-1.32,.6-1.81s.89-.75,1.46-.75c.14,0,.28,.02,.41,.05v-3.13h1.65v14.36h-.82l-.12-.39c-.33,.26-.7,.39-1.11,.39-.57,0-1.06-.25-1.46-.75s-.6-1.1-.6-1.81v-6.15Zm2.47,0c0-.14-.04-.26-.12-.36-.08-.1-.18-.15-.29-.15s-.21,.05-.29,.15c-.08,.1-.12,.22-.12,.36v6.15c0,.14,.04,.26,.12,.36,.08,.1,.18,.15,.29,.15s.21-.05,.29-.15c.08-.1,.12-.22,.12-.36v-6.15Z"/>
        <path class="ac" d="M191.99,190.65c0-.71,.2-1.32,.6-1.81,.4-.5,.89-.75,1.46-.75s1.06,.25,1.46,.75,.6,1.1,.6,1.81v4.1h-2.47v2.05c0,.14,.04,.26,.12,.36,.08,.1,.18,.15,.29,.15s.21-.05,.29-.15c.08-.1,.12-.22,.12-.36v-1.03l1.65,.51v.51c0,.71-.2,1.32-.6,1.81s-.89,.75-1.46,.75-1.06-.25-1.46-.75c-.4-.5-.6-1.1-.6-1.81v-6.15Zm2.47,0c0-.14-.04-.26-.12-.36-.08-.1-.18-.15-.29-.15s-.21,.05-.29,.15c-.08,.1-.12,.22-.12,.36v2.05h.82v-2.05Z"/>
        <path class="ac" d="M196.94,188.09h.82l.12,.39c.33-.26,.7-.39,1.11-.39,.57,0,1.06,.25,1.46,.75,.4,.5,.6,1.1,.6,1.81v.51l-1.65,.51v-1.03c0-.14-.04-.26-.12-.36-.08-.1-.18-.15-.29-.15s-.21,.05-.29,.15c-.08,.1-.12,.22-.12,.36v8.72h-1.65v-11.28Z"/>
    </g>
    <g class="line-first" id="p">
        <rect class="ae" x="25" y="24.5" width="42.18" height="1"/>
    </g>
    <g class="line-first" id="q">
        <rect class="ae" x="0" y="49.09" width="50" height="1" transform="translate(74.59 24.59) rotate(90)"/>
    </g>
    <g class="line-first" id="r">
        <rect class="ae" x="136.41" y="24.55" width="42.18" height="1" transform="translate(315.01 50.09) rotate(-180)"/>
    </g>
    <g class="line-first" id="s">
        <rect class="ae" x="153.59" y="49.14" width="50" height="1" transform="translate(228.23 -128.96) rotate(90)"/>
    </g>
    <g class="line-first" id="t">
        <rect class="ae" x="91.8" y="66.88" width="20" height="1" transform="translate(34.41 169.18) rotate(-90)"/>
    </g>
    <g class="line-second" id="u">
        <rect class="ae" x="168.17" y="144.56" width="20" height="1" transform="translate(33.11 323.23) rotate(-90)"/>
    </g>
    <g class="line-second" id="v">
        <rect class="ae" x="212.9" y="102.83" width="42.18" height="1" transform="translate(467.98 206.66) rotate(-180)"/>
    </g>
    <g class="line-second" id="w">
        <rect class="ae" x="230.08" y="127.42" width="50" height="1" transform="translate(383 -127.16) rotate(90)"/>
    </g>
    <g class="line-third" id="x">
        <rect class="ae" x="158.63" y="235.6" width="38.92" height="1" transform="translate(414.19 58) rotate(90)"/>
    </g>
    <g  class="line-third" id="y">
        <rect class="ae" x="139.16" y="255.56" width="39.43" height="1"/>
    </g>
    <g class="line-third" id="a`">
        <rect class="ae" x="235.39" y="235.93" width="39.79" height="1" transform="translate(491.71 -18.85) rotate(90)"/>
    </g>
    <g class="line-third" id="aa">
        <rect class="ae" x="177.59" y="255.56" width="78.69" height="1"/>
    </g>
    <g class="line-second" id="ab">
        <rect class="ae" x="56.65" y="179.71" width="90.3" height="1" transform="translate(282.01 78.42) rotate(90)"/>
    </g>
</svg>