<?xml version="1.0" encoding="UTF-8"?>
<svg xmlns="http://www.w3.org/2000/svg" xmlns:xlink="http://www.w3.org/1999/xlink" width="314.15pt" height="178.04pt" viewBox="0 0 314.15 178.04" version="1.1">
<defs>
<clipPath id="clip1">
  <path d="M 291 170 L 294 170 L 294 178.039063 L 291 178.039063 Z M 291 170 "/>
</clipPath>
<clipPath id="clip2">
  <path d="M 312 170 L 314.148438 170 L 314.148438 178.039063 L 312 178.039063 Z M 312 170 "/>
</clipPath>
</defs>
<g id="surface1">
<path style=" stroke:none;fill-rule:nonzero;fill:rgb(12.199402%,19.999695%,43.899536%);fill-opacity:1;" d="M 8.492188 56.972656 L 5.308594 73.957031 L 27.328125 56.695313 Z M 8.492188 56.972656 "/>
<path style=" stroke:none;fill-rule:nonzero;fill:rgb(12.199402%,19.999695%,43.899536%);fill-opacity:1;" d="M 47.066406 85.632813 L 43.171875 108.636719 L 7.429688 108.636719 C 7.429688 108.636719 41.757813 87.402344 47.066406 85.632813 "/>
<path style=" stroke:none;fill-rule:nonzero;fill:rgb(67.498779%,12.199402%,13.699341%);fill-opacity:1;" d="M 3.183594 88.464844 L 5.308594 73.957031 C 5.308594 73.957031 30.628906 53.960938 34.613281 50.535156 C 38.917969 46.835938 55.910156 35.738281 59.804688 35.738281 C 63.695313 35.738281 64.382813 38.570313 64.382813 38.570313 L 64.382813 49.1875 C 64.382813 49.1875 71.480469 49.1875 94.484375 31.492188 C 117.484375 13.800781 134.824219 -0.00390625 134.824219 -0.00390625 L 130.578125 23.914063 C 130.578125 23.914063 104.746094 44.941406 92.007813 52.726563 C 79.265625 60.511719 68.050781 66.84375 61.71875 67.527344 C 61.71875 67.527344 61.71875 71.046875 61.71875 73.347656 C 61.71875 75.644531 68.003906 76.503906 92.941406 61.800781 C 106.742188 53.660156 127.746094 39.277344 127.746094 39.277344 L 124.207031 60.511719 C 124.207031 60.511719 84.800781 85.703125 69.265625 90.941406 C 57.925781 94.765625 53.433594 90.941406 55.910156 82.804688 C 58.390625 74.664063 55.515625 74.199219 51.96875 75.421875 C 38.433594 80.09375 0 107.574219 0 107.574219 L 1.769531 94.835938 C 1.769531 94.835938 29.394531 75.617188 37.511719 70.0625 C 48.710938 62.402344 58.453125 59.578125 58.453125 59.578125 L 58.453125 53.433594 C 58.453125 53.433594 56.074219 50.242188 49.382813 54.101563 C 44.308594 57.03125 3.183594 88.464844 3.183594 88.464844 "/>
<path style=" stroke:none;fill-rule:nonzero;fill:rgb(12.199402%,19.999695%,43.899536%);fill-opacity:1;" d="M 81.519531 134.949219 L 79.929688 134.949219 C 79.980469 133.863281 79.988281 130.019531 78.222656 130.019531 C 77.136719 130.019531 75.503906 130.019531 69.332031 130.019531 L 67.625 141.578125 C 67.507813 142.546875 67.089844 142.660156 67.226563 143.929688 C 67.433594 145.863281 69.359375 146.46875 72.324219 146.648438 L 72.488281 148.160156 L 52.734375 148.160156 L 52.570313 146.648438 C 54.75 146.226563 59.042969 146.589844 59.042969 142.300781 L 62.980469 115.171875 C 63.042969 114.6875 63.273438 112.695313 63.175781 111.789063 C 62.96875 109.855469 62.34375 109.734375 58.847656 109.25 L 58.683594 107.742188 L 89.023438 107.742188 L 88.054688 117.292969 L 85.820313 116.992188 C 85.378906 112.882813 85.503906 110.292969 74.570313 110.292969 C 72.402344 110.292969 71.867188 112.09375 71.574219 114.027344 L 69.625 127.5 C 80.449219 127.5 80.027344 126.578125 81.929688 121.503906 L 83.511719 121.503906 L 81.519531 134.949219 "/>
<path style=" stroke:none;fill-rule:nonzero;fill:rgb(12.199402%,19.999695%,43.899536%);fill-opacity:1;" d="M 103.375 125.410156 C 107.800781 125.226563 116.210938 125.558594 116.210938 115.59375 C 116.210938 108.8125 111.128906 109.675781 107.234375 109.675781 C 105.121094 109.675781 105.460938 110.609375 105.3125 111.816406 Z M 101.222656 141.792969 C 101.113281 142.335938 101.085938 143.121094 101.144531 143.664063 C 101.316406 145.296875 103.246094 145.515625 104.804688 145.515625 C 113.996094 145.515625 115.015625 137.238281 115.015625 134.566406 C 115.015625 127.277344 108.308594 126.878906 103.3125 127.738281 Z M 91.960938 107.742188 L 107.085938 107.742188 C 110.367188 107.742188 123.578125 106.03125 124.476563 114.429688 C 125.257813 121.738281 118.792969 124.640625 115.226563 125.605469 C 115.226563 125.605469 124.261719 127.136719 124.261719 134.964844 C 124.261719 144.503906 113.394531 148.039063 105.234375 148.160156 L 85.808594 148.160156 L 85.960938 146.160156 C 87.875 145.855469 91.351563 146.464844 91.898438 142.722656 C 91.898438 142.722656 96.511719 112.332031 96.472656 111.96875 C 96.214844 109.554688 94.46875 109.371094 92.121094 109.25 L 91.960938 107.742188 "/>
<path style=" stroke:none;fill-rule:nonzero;fill:rgb(12.199402%,19.999695%,43.899536%);fill-opacity:1;" d="M 135.367188 151.109375 C 135.214844 152.257813 135.265625 152.738281 135.296875 153.042969 C 135.355469 153.585938 135.492188 154.855469 139.105469 154.855469 C 145.777344 154.855469 151.734375 151.996094 154.765625 144.445313 L 156.859375 144.746094 L 152.574219 158.375 L 119.425781 158.375 L 119.574219 156.101563 C 121.925781 155.738281 126.019531 155.195313 126.539063 151.75 L 133.890625 111.125 C 133.8125 109.183594 132.265625 108.929688 129.488281 109.222656 L 129.488281 107.078125 L 148.816406 107.078125 L 148.816406 108.589844 C 145.722656 108.769531 142.546875 109.3125 142.042969 112.9375 L 135.367188 151.109375 "/>
<path style=" stroke:none;fill-rule:nonzero;fill:rgb(12.199402%,19.999695%,43.899536%);fill-opacity:1;" d="M 162.523438 132.191406 L 159.769531 114.585938 L 150.183594 132.191406 Z M 178.449219 147.175781 L 161.144531 147.175781 L 160.984375 145.664063 C 163.460938 145.421875 165.335938 145.242188 165.015625 142.28125 C 164.886719 141.074219 164.96875 141.074219 163.441406 134.609375 L 149.164063 134.609375 L 145.433594 140.769531 C 145.164063 141.375 144.78125 142.460938 144.894531 143.550781 C 145.121094 145.664063 146.148438 145.664063 147.207031 145.664063 L 147.367188 147.175781 L 136.058594 147.175781 L 136.058594 145.664063 C 137.570313 145.242188 140.019531 144.941406 141.699219 141.433594 L 161.117188 107.265625 L 165.621094 107.265625 L 173.703125 140.46875 C 174.945313 145.300781 174.804688 145.300781 178.289063 145.664063 L 178.449219 147.175781 "/>
<path style=" stroke:none;fill-rule:nonzero;fill:rgb(12.199402%,19.999695%,43.899536%);fill-opacity:1;" d="M 238.585938 123.878906 C 243.015625 123.695313 251.425781 124.027344 251.425781 114.0625 C 251.425781 107.28125 246.339844 108.144531 242.445313 108.144531 C 240.335938 108.144531 240.671875 109.078125 240.523438 110.285156 Z M 236.433594 140.261719 C 236.324219 140.804688 236.296875 141.589844 236.355469 142.132813 C 236.527344 143.765625 238.460938 143.984375 240.015625 143.984375 C 249.207031 143.984375 250.226563 135.707031 250.226563 133.035156 C 250.226563 125.746094 243.519531 125.347656 238.523438 126.207031 Z M 227.253906 105.855469 L 248.738281 105.855469 C 252.019531 105.855469 259.476563 104.5 260.375 112.898438 C 261.15625 120.207031 254.003906 123.109375 250.4375 124.074219 C 250.4375 124.074219 259.914063 124.535156 259.914063 133.878906 C 259.914063 143.417969 248.605469 146.507813 240.445313 146.628906 L 221.019531 146.628906 L 221.175781 144.628906 C 223.085938 144.324219 226.5625 144.933594 227.109375 141.191406 C 227.109375 141.191406 231.722656 110.800781 231.683594 110.4375 C 231.425781 108.023438 229.601563 107.839844 227.253906 107.71875 L 227.253906 105.855469 "/>
<path style=" stroke:none;fill-rule:nonzero;fill:rgb(12.199402%,19.999695%,43.899536%);fill-opacity:1;" d="M 280.28125 114.582031 L 265.941406 139.238281 C 265.675781 139.84375 265.289063 140.929688 265.40625 142.019531 C 265.632813 144.132813 266.660156 144.132813 267.71875 144.132813 L 267.878906 145.644531 L 255.628906 145.644531 L 255.628906 144.132813 C 257.140625 143.710938 260.53125 143.410156 262.214844 139.902344 L 281.628906 105.734375 L 286.136719 105.734375 L 294.675781 139.410156 C 295.308594 143.0625 298.445313 144.132813 299.507813 144.132813 L 299.671875 145.644531 L 282.269531 145.644531 L 282.269531 144.132813 C 284.746094 143.890625 285.847656 143.710938 285.527344 140.75 C 285.398438 139.542969 280.28125 114.582031 280.28125 114.582031 "/>
<path style=" stroke:none;fill-rule:nonzero;fill:rgb(12.199402%,19.999695%,43.899536%);fill-opacity:1;" d="M 175.234375 127.445313 C 175.234375 125.585938 176.742188 124.074219 178.605469 124.074219 C 180.464844 124.074219 181.972656 125.585938 181.972656 127.445313 C 181.972656 129.304688 180.464844 130.8125 178.605469 130.8125 C 176.742188 130.8125 175.234375 129.304688 175.234375 127.445313 "/>
<path style=" stroke:none;fill-rule:nonzero;fill:rgb(12.199402%,19.999695%,43.899536%);fill-opacity:1;" d="M 212.601563 146.871094 L 192.980469 146.871094 L 192.980469 145.355469 C 195.371094 144.988281 197.316406 144.871094 198.203125 143.984375 C 198.203125 143.984375 203.589844 110.449219 203.589844 109.660156 C 203.589844 107.714844 202.335938 108.289063 198.773438 107.742188 L 198.773438 106.226563 L 218.265625 106.226563 L 218.265625 107.742188 C 216.152344 108.046875 213.394531 106.226563 212.445313 112.117188 C 212.445313 112.117188 208.363281 138.902344 207.851563 142.222656 C 207.535156 144.261719 209.765625 144.625 212.601563 144.746094 L 212.601563 146.871094 "/>
<path style=" stroke:none;fill-rule:nonzero;fill:rgb(12.199402%,19.999695%,43.899536%);fill-opacity:1;" d="M 203.257813 140.460938 C 209.410156 140.460938 215.460938 134.09375 216.273438 126.527344 C 217.085938 118.957031 215.304688 113.5625 208.40625 112.820313 C 201.511719 112.082031 195.957031 117.617188 195.144531 125.183594 C 194.328125 132.75 196.320313 140.460938 203.257813 140.460938 Z M 207.820313 110.882813 C 211.324219 110.882813 214.472656 111.246094 217.253906 112.589844 C 220.03125 113.933594 222.488281 116.152344 223.625 118.628906 C 224.757813 121.105469 224.566406 123.816406 224.054688 126.757813 C 223.3125 131.003906 221.238281 134.558594 217.839844 137.417969 C 213.730469 140.871094 208.589844 142.601563 202.410156 142.601563 C 196.347656 142.601563 191.953125 141.023438 189.230469 137.867188 C 186.511719 134.707031 185.511719 131.046875 186.234375 126.886719 C 186.984375 122.597656 189.3125 118.859375 193.21875 115.667969 C 197.121094 112.476563 201.988281 110.882813 207.820313 110.882813 "/>
<path style=" stroke:none;fill-rule:nonzero;fill:rgb(13.699341%,12.199402%,12.5%);fill-opacity:1;" d="M 157.785156 170.882813 L 161.054688 170.882813 L 161.054688 171.539063 L 158.570313 171.539063 L 158.570313 173.558594 L 160.867188 173.558594 L 160.867188 174.203125 L 158.570313 174.203125 L 158.570313 176.949219 L 157.785156 176.949219 L 157.785156 170.882813 "/>
<path style=" stroke:none;fill-rule:nonzero;fill:rgb(13.699341%,12.199402%,12.5%);fill-opacity:1;" d="M 165.476563 175.761719 C 165.476563 176.210938 165.484375 176.609375 165.511719 176.949219 L 164.808594 176.949219 L 164.765625 176.238281 L 164.746094 176.238281 C 164.539063 176.589844 164.078125 177.050781 163.304688 177.050781 C 162.621094 177.050781 161.800781 176.671875 161.800781 175.140625 L 161.800781 172.59375 L 162.59375 172.59375 L 162.59375 175.007813 C 162.59375 175.835938 162.847656 176.390625 163.566406 176.390625 C 164.097656 176.390625 164.46875 176.023438 164.609375 175.671875 C 164.65625 175.554688 164.683594 175.410156 164.683594 175.265625 L 164.683594 172.59375 L 165.476563 172.59375 L 165.476563 175.761719 "/>
<path style=" stroke:none;fill-rule:nonzero;fill:rgb(13.699341%,12.199402%,12.5%);fill-opacity:1;" d="M 167.742188 171.550781 L 167.742188 172.59375 L 168.875 172.59375 L 168.875 173.195313 L 167.742188 173.195313 L 167.742188 175.546875 C 167.742188 176.085938 167.894531 176.390625 168.335938 176.390625 C 168.554688 176.390625 168.679688 176.375 168.796875 176.339844 L 168.832031 176.933594 C 168.679688 176.996094 168.4375 177.050781 168.128906 177.050781 C 167.761719 177.050781 167.464844 176.921875 167.273438 176.707031 C 167.050781 176.472656 166.96875 176.085938 166.96875 175.574219 L 166.96875 173.195313 L 166.292969 173.195313 L 166.292969 172.59375 L 166.96875 172.59375 L 166.96875 171.792969 L 167.742188 171.550781 "/>
<path style=" stroke:none;fill-rule:nonzero;fill:rgb(13.699341%,12.199402%,12.5%);fill-opacity:1;" d="M 173.410156 175.761719 C 173.410156 176.210938 173.421875 176.609375 173.449219 176.949219 L 172.746094 176.949219 L 172.699219 176.238281 L 172.683594 176.238281 C 172.476563 176.589844 172.019531 177.050781 171.242188 177.050781 C 170.558594 177.050781 169.738281 176.671875 169.738281 175.140625 L 169.738281 172.59375 L 170.53125 172.59375 L 170.53125 175.007813 C 170.53125 175.835938 170.78125 176.390625 171.503906 176.390625 C 172.035156 176.390625 172.402344 176.023438 172.550781 175.671875 C 172.59375 175.554688 172.621094 175.410156 172.621094 175.265625 L 172.621094 172.59375 L 173.410156 172.59375 L 173.410156 175.761719 "/>
<path style=" stroke:none;fill-rule:nonzero;fill:rgb(13.699341%,12.199402%,12.5%);fill-opacity:1;" d="M 174.726563 173.953125 C 174.726563 173.441406 174.71875 172.996094 174.6875 172.59375 L 175.382813 172.59375 L 175.410156 173.449219 L 175.445313 173.449219 C 175.644531 172.863281 176.121094 172.496094 176.652344 172.496094 C 176.742188 172.496094 176.804688 172.503906 176.878906 172.519531 L 176.878906 173.269531 C 176.796875 173.25 176.714844 173.242188 176.605469 173.242188 C 176.050781 173.242188 175.652344 173.664063 175.546875 174.257813 C 175.527344 174.367188 175.507813 174.492188 175.507813 174.628906 L 175.507813 176.949219 L 174.726563 176.949219 L 174.726563 173.953125 "/>
<path style=" stroke:none;fill-rule:nonzero;fill:rgb(13.699341%,12.199402%,12.5%);fill-opacity:1;" d="M 180.34375 174.347656 C 180.351563 173.84375 180.136719 173.0625 179.242188 173.0625 C 178.441406 173.0625 178.09375 173.800781 178.027344 174.347656 Z M 178.019531 174.917969 C 178.035156 175.988281 178.722656 176.429688 179.515625 176.429688 C 180.082031 176.429688 180.425781 176.328125 180.722656 176.203125 L 180.855469 176.769531 C 180.574219 176.898438 180.101563 177.050781 179.40625 177.050781 C 178.0625 177.050781 177.265625 176.160156 177.265625 174.84375 C 177.265625 173.53125 178.035156 172.496094 179.308594 172.496094 C 180.730469 172.496094 181.105469 173.746094 181.105469 174.546875 C 181.105469 174.710938 181.089844 174.835938 181.078125 174.917969 L 178.019531 174.917969 "/>
<path style=" stroke:none;fill-rule:nonzero;fill:rgb(13.699341%,12.199402%,12.5%);fill-opacity:1;" d="M 184.804688 176.355469 C 184.960938 176.382813 185.183594 176.390625 185.464844 176.390625 C 186.273438 176.390625 187.019531 176.09375 187.019531 175.214844 C 187.019531 174.386719 186.308594 174.042969 185.453125 174.042969 L 184.804688 174.042969 Z M 184.804688 173.449219 L 185.519531 173.449219 C 186.347656 173.449219 186.832031 173.015625 186.832031 172.429688 C 186.832031 171.71875 186.289063 171.441406 185.5 171.441406 C 185.140625 171.441406 184.933594 171.46875 184.804688 171.496094 Z M 184.023438 170.964844 C 184.363281 170.890625 184.902344 170.835938 185.453125 170.835938 C 186.238281 170.835938 186.742188 170.972656 187.117188 171.277344 C 187.433594 171.511719 187.621094 171.871094 187.621094 172.351563 C 187.621094 172.933594 187.234375 173.449219 186.597656 173.683594 L 186.597656 173.699219 C 187.175781 173.84375 187.847656 174.320313 187.847656 175.222656 C 187.847656 175.746094 187.640625 176.140625 187.335938 176.4375 C 186.910156 176.824219 186.230469 177.003906 185.238281 177.003906 C 184.695313 177.003906 184.28125 176.96875 184.023438 176.933594 L 184.023438 170.964844 "/>
<path style=" stroke:none;fill-rule:nonzero;fill:rgb(13.699341%,12.199402%,12.5%);fill-opacity:1;" d="M 192.519531 175.761719 C 192.519531 176.210938 192.527344 176.609375 192.554688 176.949219 L 191.851563 176.949219 L 191.808594 176.238281 L 191.789063 176.238281 C 191.582031 176.589844 191.125 177.050781 190.351563 177.050781 C 189.664063 177.050781 188.847656 176.671875 188.847656 175.140625 L 188.847656 172.59375 L 189.640625 172.59375 L 189.640625 175.007813 C 189.640625 175.835938 189.890625 176.390625 190.609375 176.390625 C 191.140625 176.390625 191.511719 176.023438 191.65625 175.671875 C 191.699219 175.554688 191.726563 175.410156 191.726563 175.265625 L 191.726563 172.59375 L 192.519531 172.59375 L 192.519531 175.761719 "/>
<path style=" stroke:none;fill-rule:nonzero;fill:rgb(13.699341%,12.199402%,12.5%);fill-opacity:1;" d="M 193.722656 176.140625 C 193.957031 176.292969 194.371094 176.457031 194.769531 176.457031 C 195.34375 176.457031 195.613281 176.167969 195.613281 175.808594 C 195.613281 175.429688 195.390625 175.222656 194.804688 175.007813 C 194.019531 174.726563 193.652344 174.292969 193.652344 173.773438 C 193.652344 173.070313 194.21875 172.496094 195.15625 172.496094 C 195.597656 172.496094 195.984375 172.621094 196.226563 172.765625 L 196.027344 173.339844 C 195.855469 173.234375 195.542969 173.089844 195.136719 173.089844 C 194.667969 173.089844 194.40625 173.359375 194.40625 173.683594 C 194.40625 174.042969 194.667969 174.203125 195.234375 174.421875 C 195.992188 174.710938 196.378906 175.085938 196.378906 175.734375 C 196.378906 176.5 195.785156 177.050781 194.75 177.050781 C 194.273438 177.050781 193.832031 176.921875 193.527344 176.742188 L 193.722656 176.140625 "/>
<path style=" stroke:none;fill-rule:nonzero;fill:rgb(13.699341%,12.199402%,12.5%);fill-opacity:1;" d="M 197.394531 176.949219 L 197.394531 172.59375 L 198.1875 172.59375 L 198.1875 176.949219 Z M 198.277344 171.367188 C 198.289063 171.640625 198.089844 171.855469 197.773438 171.855469 C 197.496094 171.855469 197.296875 171.640625 197.296875 171.367188 C 197.296875 171.089844 197.503906 170.871094 197.792969 170.871094 C 198.089844 170.871094 198.277344 171.089844 198.277344 171.367188 "/>
<path style=" stroke:none;fill-rule:nonzero;fill:rgb(13.699341%,12.199402%,12.5%);fill-opacity:1;" d="M 199.503906 173.773438 C 199.503906 173.324219 199.492188 172.953125 199.464844 172.59375 L 200.167969 172.59375 L 200.214844 173.3125 L 200.230469 173.3125 C 200.445313 172.898438 200.949219 172.496094 201.671875 172.496094 C 202.273438 172.496094 203.210938 172.855469 203.210938 174.347656 L 203.210938 176.949219 L 202.417969 176.949219 L 202.417969 174.4375 C 202.417969 173.738281 202.15625 173.152344 201.410156 173.152344 C 200.890625 173.152344 200.484375 173.519531 200.347656 173.960938 C 200.3125 174.0625 200.292969 174.195313 200.292969 174.332031 L 200.292969 176.949219 L 199.503906 176.949219 L 199.503906 173.773438 "/>
<path style=" stroke:none;fill-rule:nonzero;fill:rgb(13.699341%,12.199402%,12.5%);fill-opacity:1;" d="M 207.261719 174.347656 C 207.269531 173.84375 207.054688 173.0625 206.160156 173.0625 C 205.359375 173.0625 205.011719 173.800781 204.945313 174.347656 Z M 204.9375 174.917969 C 204.957031 175.988281 205.640625 176.429688 206.433594 176.429688 C 207 176.429688 207.34375 176.328125 207.640625 176.203125 L 207.773438 176.769531 C 207.496094 176.898438 207.019531 177.050781 206.324219 177.050781 C 204.984375 177.050781 204.183594 176.160156 204.183594 174.84375 C 204.183594 173.53125 204.957031 172.496094 206.226563 172.496094 C 207.648438 172.496094 208.027344 173.746094 208.027344 174.546875 C 208.027344 174.710938 208.007813 174.835938 208 174.917969 L 204.9375 174.917969 "/>
<path style=" stroke:none;fill-rule:nonzero;fill:rgb(13.699341%,12.199402%,12.5%);fill-opacity:1;" d="M 208.898438 176.140625 C 209.132813 176.292969 209.546875 176.457031 209.941406 176.457031 C 210.519531 176.457031 210.789063 176.167969 210.789063 175.808594 C 210.789063 175.429688 210.5625 175.222656 209.980469 175.007813 C 209.195313 174.726563 208.824219 174.292969 208.824219 173.773438 C 208.824219 173.070313 209.394531 172.496094 210.328125 172.496094 C 210.769531 172.496094 211.15625 172.621094 211.398438 172.765625 L 211.203125 173.339844 C 211.03125 173.234375 210.71875 173.089844 210.3125 173.089844 C 209.84375 173.089844 209.582031 173.359375 209.582031 173.683594 C 209.582031 174.042969 209.84375 174.203125 210.410156 174.421875 C 211.164063 174.710938 211.554688 175.085938 211.554688 175.734375 C 211.554688 176.5 210.960938 177.050781 209.925781 177.050781 C 209.445313 177.050781 209.007813 176.921875 208.699219 176.742188 L 208.898438 176.140625 "/>
<path style=" stroke:none;fill-rule:nonzero;fill:rgb(13.699341%,12.199402%,12.5%);fill-opacity:1;" d="M 212.460938 176.140625 C 212.695313 176.292969 213.109375 176.457031 213.507813 176.457031 C 214.082031 176.457031 214.351563 176.167969 214.351563 175.808594 C 214.351563 175.429688 214.128906 175.222656 213.542969 175.007813 C 212.761719 174.726563 212.390625 174.292969 212.390625 173.773438 C 212.390625 173.070313 212.957031 172.496094 213.894531 172.496094 C 214.335938 172.496094 214.722656 172.621094 214.964844 172.765625 L 214.765625 173.339844 C 214.597656 173.234375 214.28125 173.089844 213.875 173.089844 C 213.40625 173.089844 213.144531 173.359375 213.144531 173.683594 C 213.144531 174.042969 213.40625 174.203125 213.976563 174.421875 C 214.730469 174.710938 215.117188 175.085938 215.117188 175.734375 C 215.117188 176.5 214.523438 177.050781 213.488281 177.050781 C 213.011719 177.050781 212.570313 176.921875 212.265625 176.742188 L 212.460938 176.140625 "/>
<path style=" stroke:none;fill-rule:nonzero;fill:rgb(13.699341%,12.199402%,12.5%);fill-opacity:1;" d="M 218.070313 170.882813 L 218.851563 170.882813 L 218.851563 176.292969 L 221.445313 176.292969 L 221.445313 176.949219 L 218.070313 176.949219 L 218.070313 170.882813 "/>
<path style=" stroke:none;fill-rule:nonzero;fill:rgb(13.699341%,12.199402%,12.5%);fill-opacity:1;" d="M 224.929688 174.347656 C 224.9375 173.84375 224.722656 173.0625 223.828125 173.0625 C 223.027344 173.0625 222.675781 173.800781 222.613281 174.347656 Z M 222.605469 174.917969 C 222.621094 175.988281 223.308594 176.429688 224.101563 176.429688 C 224.667969 176.429688 225.007813 176.328125 225.304688 176.203125 L 225.441406 176.769531 C 225.160156 176.898438 224.683594 177.050781 223.992188 177.050781 C 222.648438 177.050781 221.847656 176.160156 221.847656 174.84375 C 221.847656 173.53125 222.621094 172.496094 223.894531 172.496094 C 225.316406 172.496094 225.691406 173.746094 225.691406 174.546875 C 225.691406 174.710938 225.675781 174.835938 225.664063 174.917969 L 222.605469 174.917969 "/>
<path style=" stroke:none;fill-rule:nonzero;fill:rgb(13.699341%,12.199402%,12.5%);fill-opacity:1;" d="M 228.96875 174.726563 C 228.105469 174.710938 227.121094 174.863281 227.121094 175.707031 C 227.121094 176.222656 227.464844 176.464844 227.871094 176.464844 C 228.4375 176.464844 228.796875 176.105469 228.925781 175.734375 C 228.949219 175.652344 228.96875 175.5625 228.96875 175.484375 Z M 229.734375 175.90625 C 229.734375 176.285156 229.753906 176.652344 229.804688 176.949219 L 229.085938 176.949219 L 229.023438 176.402344 L 228.996094 176.402344 C 228.753906 176.742188 228.285156 177.050781 227.664063 177.050781 C 226.78125 177.050781 226.332031 176.429688 226.332031 175.796875 C 226.332031 174.746094 227.265625 174.167969 228.949219 174.179688 L 228.949219 174.085938 C 228.949219 173.726563 228.851563 173.078125 227.960938 173.078125 C 227.554688 173.078125 227.132813 173.207031 226.824219 173.402344 L 226.644531 172.882813 C 227.007813 172.648438 227.527344 172.496094 228.078125 172.496094 C 229.410156 172.496094 229.734375 173.402344 229.734375 174.277344 L 229.734375 175.90625 "/>
<path style=" stroke:none;fill-rule:nonzero;fill:rgb(13.699341%,12.199402%,12.5%);fill-opacity:1;" d="M 233.980469 174.367188 C 233.980469 174.269531 233.972656 174.132813 233.945313 174.035156 C 233.828125 173.53125 233.394531 173.117188 232.804688 173.117188 C 231.984375 173.117188 231.496094 173.835938 231.496094 174.800781 C 231.496094 175.679688 231.929688 176.410156 232.785156 176.410156 C 233.316406 176.410156 233.800781 176.058594 233.945313 175.464844 C 233.972656 175.355469 233.980469 175.25 233.980469 175.121094 Z M 234.773438 170.558594 L 234.773438 175.824219 C 234.773438 176.210938 234.78125 176.652344 234.808594 176.949219 L 234.097656 176.949219 L 234.0625 176.195313 L 234.046875 176.195313 C 233.800781 176.679688 233.269531 177.050781 232.558594 177.050781 C 231.507813 177.050781 230.695313 176.160156 230.695313 174.835938 C 230.6875 173.386719 231.585938 172.496094 232.648438 172.496094 C 233.316406 172.496094 233.765625 172.808594 233.964844 173.160156 L 233.980469 173.160156 L 233.980469 170.558594 L 234.773438 170.558594 "/>
<path style=" stroke:none;fill-rule:nonzero;fill:rgb(13.699341%,12.199402%,12.5%);fill-opacity:1;" d="M 238.851563 174.347656 C 238.859375 173.84375 238.644531 173.0625 237.753906 173.0625 C 236.949219 173.0625 236.601563 173.800781 236.535156 174.347656 Z M 236.527344 174.917969 C 236.546875 175.988281 237.230469 176.429688 238.023438 176.429688 C 238.589844 176.429688 238.933594 176.328125 239.230469 176.203125 L 239.363281 176.769531 C 239.085938 176.898438 238.605469 177.050781 237.914063 177.050781 C 236.574219 177.050781 235.769531 176.160156 235.769531 174.84375 C 235.769531 173.53125 236.546875 172.496094 237.816406 172.496094 C 239.238281 172.496094 239.617188 173.746094 239.617188 174.546875 C 239.617188 174.710938 239.597656 174.835938 239.589844 174.917969 L 236.527344 174.917969 "/>
<path style=" stroke:none;fill-rule:nonzero;fill:rgb(13.699341%,12.199402%,12.5%);fill-opacity:1;" d="M 240.597656 173.953125 C 240.597656 173.441406 240.585938 172.996094 240.558594 172.59375 L 241.253906 172.59375 L 241.28125 173.449219 L 241.316406 173.449219 C 241.515625 172.863281 241.992188 172.496094 242.523438 172.496094 C 242.613281 172.496094 242.675781 172.503906 242.746094 172.519531 L 242.746094 173.269531 C 242.664063 173.25 242.585938 173.242188 242.476563 173.242188 C 241.917969 173.242188 241.523438 173.664063 241.414063 174.257813 C 241.394531 174.367188 241.378906 174.492188 241.378906 174.628906 L 241.378906 176.949219 L 240.597656 176.949219 L 240.597656 173.953125 "/>
<path style=" stroke:none;fill-rule:nonzero;fill:rgb(13.699341%,12.199402%,12.5%);fill-opacity:1;" d="M 243.429688 176.140625 C 243.664063 176.292969 244.078125 176.457031 244.476563 176.457031 C 245.050781 176.457031 245.320313 176.167969 245.320313 175.808594 C 245.320313 175.429688 245.097656 175.222656 244.511719 175.007813 C 243.730469 174.726563 243.359375 174.292969 243.359375 173.773438 C 243.359375 173.070313 243.925781 172.496094 244.863281 172.496094 C 245.304688 172.496094 245.691406 172.621094 245.933594 172.765625 L 245.734375 173.339844 C 245.5625 173.234375 245.25 173.089844 244.84375 173.089844 C 244.375 173.089844 244.113281 173.359375 244.113281 173.683594 C 244.113281 174.042969 244.375 174.203125 244.941406 174.421875 C 245.699219 174.710938 246.085938 175.085938 246.085938 175.734375 C 246.085938 176.5 245.492188 177.050781 244.457031 177.050781 C 243.980469 177.050781 243.539063 176.921875 243.234375 176.742188 L 243.429688 176.140625 "/>
<path style=" stroke:none;fill-rule:nonzero;fill:rgb(13.699341%,12.199402%,12.5%);fill-opacity:1;" d="M 249.496094 174.78125 C 249.496094 175.734375 250.046875 176.457031 250.820313 176.457031 C 251.574219 176.457031 252.144531 175.746094 252.144531 174.761719 C 252.144531 174.023438 251.773438 173.089844 250.839844 173.089844 C 249.902344 173.089844 249.496094 173.953125 249.496094 174.78125 Z M 252.953125 174.734375 C 252.953125 176.347656 251.839844 177.050781 250.785156 177.050781 C 249.605469 177.050781 248.695313 176.183594 248.695313 174.808594 C 248.695313 173.347656 249.648438 172.496094 250.855469 172.496094 C 252.105469 172.496094 252.953125 173.402344 252.953125 174.734375 "/>
<path style=" stroke:none;fill-rule:nonzero;fill:rgb(13.699341%,12.199402%,12.5%);fill-opacity:1;" d="M 254.03125 176.949219 L 254.03125 173.195313 L 253.421875 173.195313 L 253.421875 172.59375 L 254.03125 172.59375 L 254.03125 172.386719 C 254.03125 171.773438 254.167969 171.214844 254.535156 170.863281 C 254.832031 170.578125 255.230469 170.460938 255.597656 170.460938 C 255.878906 170.460938 256.121094 170.523438 256.273438 170.585938 L 256.164063 171.199219 C 256.050781 171.144531 255.886719 171.097656 255.660156 171.097656 C 254.984375 171.097656 254.816406 171.691406 254.816406 172.359375 L 254.816406 172.59375 L 255.867188 172.59375 L 255.867188 173.195313 L 254.816406 173.195313 L 254.816406 176.949219 L 254.03125 176.949219 "/>
<path style=" stroke:none;fill-rule:nonzero;fill:rgb(13.699341%,12.199402%,12.5%);fill-opacity:1;" d="M 261.484375 174.429688 L 260.890625 172.683594 C 260.757813 172.289063 260.664063 171.925781 260.574219 171.574219 L 260.558594 171.574219 C 260.46875 171.9375 260.367188 172.304688 260.253906 172.675781 L 259.65625 174.429688 Z M 259.496094 175.042969 L 258.863281 176.949219 L 258.054688 176.949219 L 260.117188 170.882813 L 261.0625 170.882813 L 263.132813 176.949219 L 262.296875 176.949219 L 261.648438 175.042969 L 259.496094 175.042969 "/>
<path style=" stroke:none;fill-rule:nonzero;fill:rgb(13.699341%,12.199402%,12.5%);fill-opacity:1;" d="M 263.96875 173.773438 C 263.96875 173.324219 263.960938 172.953125 263.933594 172.59375 L 264.625 172.59375 L 264.660156 173.296875 L 264.6875 173.296875 C 264.933594 172.882813 265.335938 172.496094 266.058594 172.496094 C 266.652344 172.496094 267.101563 172.855469 267.289063 173.367188 L 267.308594 173.367188 C 267.441406 173.125 267.613281 172.933594 267.796875 172.800781 C 268.054688 172.601563 268.34375 172.496094 268.757813 172.496094 C 269.335938 172.496094 270.1875 172.871094 270.1875 174.386719 L 270.1875 176.949219 L 269.414063 176.949219 L 269.414063 174.484375 C 269.414063 173.648438 269.109375 173.140625 268.46875 173.140625 C 268.019531 173.140625 267.667969 173.476563 267.535156 173.863281 C 267.496094 173.972656 267.472656 174.113281 267.472656 174.257813 L 267.472656 176.949219 L 266.695313 176.949219 L 266.695313 174.339844 C 266.695313 173.648438 266.390625 173.140625 265.785156 173.140625 C 265.292969 173.140625 264.933594 173.539063 264.804688 173.933594 C 264.761719 174.050781 264.742188 174.1875 264.742188 174.320313 L 264.742188 176.949219 L 263.96875 176.949219 L 263.96875 173.773438 "/>
<path style=" stroke:none;fill-rule:nonzero;fill:rgb(13.699341%,12.199402%,12.5%);fill-opacity:1;" d="M 274.238281 174.347656 C 274.246094 173.84375 274.03125 173.0625 273.140625 173.0625 C 272.339844 173.0625 271.988281 173.800781 271.925781 174.347656 Z M 271.914063 174.917969 C 271.933594 175.988281 272.617188 176.429688 273.410156 176.429688 C 273.976563 176.429688 274.320313 176.328125 274.617188 176.203125 L 274.753906 176.769531 C 274.472656 176.898438 273.996094 177.050781 273.300781 177.050781 C 271.960938 177.050781 271.160156 176.160156 271.160156 174.84375 C 271.160156 173.53125 271.933594 172.496094 273.203125 172.496094 C 274.625 172.496094 275.003906 173.746094 275.003906 174.546875 C 275.003906 174.710938 274.984375 174.835938 274.976563 174.917969 L 271.914063 174.917969 "/>
<path style=" stroke:none;fill-rule:nonzero;fill:rgb(13.699341%,12.199402%,12.5%);fill-opacity:1;" d="M 275.984375 173.953125 C 275.984375 173.441406 275.976563 172.996094 275.945313 172.59375 L 276.640625 172.59375 L 276.667969 173.449219 L 276.703125 173.449219 C 276.902344 172.863281 277.378906 172.496094 277.910156 172.496094 C 278 172.496094 278.0625 172.503906 278.136719 172.519531 L 278.136719 173.269531 C 278.054688 173.25 277.972656 173.242188 277.863281 173.242188 C 277.308594 173.242188 276.910156 173.664063 276.804688 174.257813 C 276.785156 174.367188 276.765625 174.492188 276.765625 174.628906 L 276.765625 176.949219 L 275.984375 176.949219 L 275.984375 173.953125 "/>
<path style=" stroke:none;fill-rule:nonzero;fill:rgb(13.699341%,12.199402%,12.5%);fill-opacity:1;" d="M 278.960938 176.949219 L 278.960938 172.59375 L 279.753906 172.59375 L 279.753906 176.949219 Z M 279.84375 171.367188 C 279.855469 171.640625 279.65625 171.855469 279.339844 171.855469 C 279.0625 171.855469 278.863281 171.640625 278.863281 171.367188 C 278.863281 171.089844 279.070313 170.871094 279.359375 170.871094 C 279.65625 170.871094 279.84375 171.089844 279.84375 171.367188 "/>
<path style=" stroke:none;fill-rule:nonzero;fill:rgb(13.699341%,12.199402%,12.5%);fill-opacity:1;" d="M 284.175781 176.789063 C 283.96875 176.898438 283.507813 177.050781 282.921875 177.050781 C 281.609375 177.050781 280.753906 176.148438 280.753906 174.816406 C 280.753906 173.476563 281.671875 172.503906 283.09375 172.503906 C 283.5625 172.503906 283.976563 172.621094 284.191406 172.726563 L 284.011719 173.339844 C 283.824219 173.234375 283.527344 173.132813 283.09375 173.132813 C 282.09375 173.132813 281.554688 173.871094 281.554688 174.78125 C 281.554688 175.789063 282.203125 176.410156 283.066406 176.410156 C 283.515625 176.410156 283.8125 176.292969 284.039063 176.195313 L 284.175781 176.789063 "/>
<path style=" stroke:none;fill-rule:nonzero;fill:rgb(13.699341%,12.199402%,12.5%);fill-opacity:1;" d="M 287.394531 174.726563 C 286.53125 174.710938 285.550781 174.863281 285.550781 175.707031 C 285.550781 176.222656 285.894531 176.464844 286.296875 176.464844 C 286.863281 176.464844 287.226563 176.105469 287.351563 175.734375 C 287.378906 175.652344 287.394531 175.5625 287.394531 175.484375 Z M 288.160156 175.90625 C 288.160156 176.285156 288.179688 176.652344 288.234375 176.949219 L 287.515625 176.949219 L 287.449219 176.402344 L 287.421875 176.402344 C 287.179688 176.742188 286.710938 177.050781 286.089844 177.050781 C 285.210938 177.050781 284.757813 176.429688 284.757813 175.796875 C 284.757813 174.746094 285.695313 174.167969 287.378906 174.179688 L 287.378906 174.085938 C 287.378906 173.726563 287.277344 173.078125 286.386719 173.078125 C 285.980469 173.078125 285.558594 173.207031 285.253906 173.402344 L 285.074219 172.882813 C 285.433594 172.648438 285.957031 172.496094 286.503906 172.496094 C 287.835938 172.496094 288.160156 173.402344 288.160156 174.277344 L 288.160156 175.90625 "/>
<g clip-path="url(#clip1)" clip-rule="nonzero">
<path style=" stroke:none;fill-rule:nonzero;fill:rgb(13.699341%,12.199402%,12.5%);fill-opacity:1;" d="M 293.066406 170.703125 C 292.40625 171.585938 291.929688 172.753906 291.929688 174.386719 C 291.929688 175.988281 292.425781 177.140625 293.066406 178.039063 L 292.445313 178.039063 C 291.878906 177.292969 291.265625 176.140625 291.265625 174.386719 C 291.273438 172.613281 291.878906 171.460938 292.445313 170.703125 L 293.066406 170.703125 "/>
</g>
<path style=" stroke:none;fill-rule:nonzero;fill:rgb(13.699341%,12.199402%,12.5%);fill-opacity:1;" d="M 293.929688 170.882813 L 297.195313 170.882813 L 297.195313 171.539063 L 294.714844 171.539063 L 294.714844 173.558594 L 297.007813 173.558594 L 297.007813 174.203125 L 294.714844 174.203125 L 294.714844 176.949219 L 293.929688 176.949219 L 293.929688 170.882813 "/>
<path style=" stroke:none;fill-rule:nonzero;fill:rgb(13.699341%,12.199402%,12.5%);fill-opacity:1;" d="M 299.097656 176.355469 C 299.246094 176.382813 299.472656 176.390625 299.753906 176.390625 C 300.5625 176.390625 301.308594 176.09375 301.308594 175.214844 C 301.308594 174.386719 300.597656 174.042969 299.742188 174.042969 L 299.097656 174.042969 Z M 299.097656 173.449219 L 299.808594 173.449219 C 300.636719 173.449219 301.121094 173.015625 301.121094 172.429688 C 301.121094 171.71875 300.582031 171.441406 299.789063 171.441406 C 299.429688 171.441406 299.222656 171.46875 299.097656 171.496094 Z M 298.3125 170.964844 C 298.652344 170.890625 299.195313 170.835938 299.742188 170.835938 C 300.527344 170.835938 301.03125 170.972656 301.410156 171.277344 C 301.726563 171.511719 301.914063 171.871094 301.914063 172.351563 C 301.914063 172.933594 301.527344 173.449219 300.886719 173.683594 L 300.886719 173.699219 C 301.464844 173.84375 302.140625 174.320313 302.140625 175.222656 C 302.140625 175.746094 301.933594 176.140625 301.625 176.4375 C 301.203125 176.824219 300.519531 177.003906 299.527344 177.003906 C 298.988281 177.003906 298.574219 176.96875 298.3125 176.933594 L 298.3125 170.964844 "/>
<path style=" stroke:none;fill-rule:nonzero;fill:rgb(13.699341%,12.199402%,12.5%);fill-opacity:1;" d="M 303.191406 170.882813 L 303.972656 170.882813 L 303.972656 176.292969 L 306.566406 176.292969 L 306.566406 176.949219 L 303.191406 176.949219 L 303.191406 170.882813 "/>
<path style=" stroke:none;fill-rule:nonzero;fill:rgb(13.699341%,12.199402%,12.5%);fill-opacity:1;" d="M 310.410156 174.429688 L 309.8125 172.683594 C 309.679688 172.289063 309.589844 171.925781 309.5 171.574219 L 309.480469 171.574219 C 309.390625 171.9375 309.292969 172.304688 309.175781 172.675781 L 308.582031 174.429688 Z M 308.417969 175.042969 L 307.789063 176.949219 L 306.980469 176.949219 L 309.039063 170.882813 L 309.984375 170.882813 L 312.058594 176.949219 L 311.21875 176.949219 L 310.570313 175.042969 L 308.417969 175.042969 "/>
<g clip-path="url(#clip2)" clip-rule="nonzero">
<path style=" stroke:none;fill-rule:nonzero;fill:rgb(13.699341%,12.199402%,12.5%);fill-opacity:1;" d="M 312.359375 178.039063 C 313 177.148438 313.496094 175.976563 313.496094 174.359375 C 313.496094 172.746094 313.007813 171.59375 312.359375 170.703125 L 312.972656 170.703125 C 313.550781 171.441406 314.152344 172.59375 314.152344 174.367188 C 314.152344 176.132813 313.550781 177.273438 312.972656 178.039063 L 312.359375 178.039063 "/>
</g>
</g>
</svg>
