<?xml version="1.0" encoding="UTF-8"?>
<svg id="Layer_1" data-name="Layer 1" xmlns="http://www.w3.org/2000/svg" xmlns:xlink="http://www.w3.org/1999/xlink" viewBox="0 0 350.61 273.83">
  <defs>
    <style>
      .cls-1 {
        fill: #fff;
      }

      .cls-2 {
        fill: #55bc79;
      }

      .cls-3 {
        fill: #616161;
      }

      .cls-4 {
        fill: #0ba757;
      }

      .cls-5 {
        fill: #a61d2f;
      }

      .cls-6 {
        filter: url(#drop-shadow-1);
      }

      .cls-7 {
        fill: #0d0d0d;
      }

      .cls-8 {
        fill: #f1f2f2;
      }

      .cls-9 {
        fill: #434343;
      }

      .cls-10 {
        fill: #9dd3ae;
      }
    </style>
    <filter id="drop-shadow-1" filterUnits="userSpaceOnUse">
      <feOffset dx="7" dy="7"/>
      <feGaussianBlur result="blur" stdDeviation="5"/>
      <feFlood flood-color="#000" flood-opacity="1"/>
      <feComposite in2="blur" operator="in"/>
      <feComposite in="SourceGraphic"/>
    </filter>
  </defs>
  <g id="phone" class="cls-6">
    <rect id="outline" class="cls-7" x="3.5" y="1.5" width="134.85" height="258.33" rx="5.03" ry="5.03"/>
    <rect id="screen" class="cls-4" x=".5" y=".5" width="134.85" height="255.3" rx="5" ry="5"/>
    <path id="bottom" class="cls-3" d="M.5,232.26H135.35v19.06c0,2.47-2.01,4.48-4.48,4.48H4.98c-2.47,0-4.48-2.01-4.48-4.48v-19.06H.5Z"/>
    <path id="top" class="cls-3" d="M.5,.5H135.35V10.16c0,1.84-1.49,3.33-3.33,3.33H3.83c-1.84,0-3.33-1.49-3.33-3.33V.5H.5Z" transform="translate(135.85 13.99) rotate(-180)"/>
    <path class="cls-1" d="M94.38,64.54H41.47c-4.17,0-7.56,3.38-7.56,7.56v37.79c0,4.17,3.38,7.56,7.56,7.56h52.9c4.17,0,7.56-3.38,7.56-7.56v-37.79c0-4.17-3.39-7.56-7.56-7.56Zm-39.68,11.34c4.17,0,7.56,3.38,7.56,7.56s-3.38,7.56-7.56,7.56-7.56-3.38-7.56-7.56,3.39-7.56,7.56-7.56Zm11.34,30.23h-22.67c-1.04,0-1.89-.85-1.89-1.89,0-5.22,4.23-9.45,9.45-9.45h7.56c5.22,0,9.45,4.23,9.45,9.45,0,1.04-.85,1.89-1.89,1.89Zm26.45-7.56h-15.12c-1.04,0-1.89-.85-1.89-1.89s.85-1.89,1.89-1.89h15.12c1.04,0,1.89,.85,1.89,1.89s-.85,1.89-1.89,1.89Zm0-7.56h-15.12c-1.04,0-1.89-.85-1.89-1.89s.85-1.89,1.89-1.89h15.12c1.04,0,1.89,.85,1.89,1.89s-.85,1.89-1.89,1.89Zm0-7.56h-15.12c-1.04,0-1.89-.85-1.89-1.89s.85-1.89,1.89-1.89h15.12c1.04,0,1.89,.85,1.89,1.89s-.85,1.89-1.89,1.89Z"/>
    <circle id="home_btn" data-name="home btn" class="cls-9" cx="68.01" cy="244.71" r="7.52"/>
    <g>
      <path class="cls-8" d="M37.13,166.59l-.38,3.52h-4.69l4.22-32.81h4.69l4.22,32.81h-4.69l-.38-3.52h-3Zm2.51-4.69l-1.01-9.38-1.01,9.38h2.02Z"/>
      <path class="cls-8" d="M46.83,170.11v-32.81h5.86c1.62,0,3.01,.57,4.15,1.71s1.71,2.52,1.71,4.15v7.03c0,1.33-.38,2.5-1.15,3.52,.77,1.02,1.15,2.19,1.15,3.52v7.03c0,1.62-.57,3.01-1.71,4.15s-2.52,1.71-4.15,1.71h-5.86Zm4.69-28.12v9.38h1.17c.33,0,.61-.11,.83-.34s.34-.5,.34-.83v-7.03c0-.33-.11-.61-.34-.83s-.5-.34-.83-.34h-1.17Zm0,14.06v9.38h1.17c.33,0,.61-.11,.83-.34s.34-.5,.34-.83v-7.03c0-.33-.11-.61-.34-.83s-.5-.34-.83-.34h-1.17Z"/>
      <path class="cls-8" d="M60.89,143.16c0-1.62,.57-3.01,1.71-4.15s2.52-1.71,4.15-1.71,3.01,.57,4.15,1.71,1.71,2.52,1.71,4.15v21.09c0,1.62-.57,3.01-1.71,4.15s-2.52,1.71-4.15,1.71-3.01-.57-4.15-1.71-1.71-2.52-1.71-4.15v-21.09Zm7.03,0c0-.33-.11-.61-.34-.83s-.5-.34-.83-.34-.61,.11-.83,.34-.34,.5-.34,.83v21.09c0,.33,.11,.61,.34,.83s.5,.34,.83,.34,.61-.11,.83-.34,.34-.5,.34-.83v-21.09Z"/>
      <path class="cls-8" d="M74.96,164.25v-26.95h4.69v26.95c0,.33,.11,.61,.34,.83s.5,.34,.83,.34,.61-.11,.83-.34,.34-.5,.34-.83v-26.95h4.69v26.95c0,1.62-.57,3.01-1.71,4.15s-2.52,1.71-4.15,1.71-3.01-.57-4.15-1.71-1.71-2.52-1.71-4.15Z"/>
      <path class="cls-8" d="M97.22,141.98v28.12h-4.69v-28.12h-3.52v-4.69h11.72v4.69h-3.52Z"/>
    </g>
  </g>
  <g>
    <g>
      <path class="cls-1" d="M159.33,2.55V7.24h-4.69v9.38h3.52v4.69h-3.52v14.06h-4.69V2.55h9.38Z"/>
      <path class="cls-1" d="M166.36,21.3v14.06h-4.69V2.55h5.86c1.62,0,3.01,.57,4.15,1.71s1.71,2.52,1.71,4.15v7.03c0,1.33-.38,2.5-1.15,3.52,.77,1.02,1.15,2.19,1.15,3.52v12.89h-4.69v-12.89c0-.33-.11-.61-.34-.83s-.5-.34-.83-.34h-1.17Zm0-14.06v9.38h1.17c.33,0,.61-.11,.83-.34s.34-.5,.34-.83v-7.03c0-.33-.11-.61-.34-.83s-.5-.34-.83-.34h-1.17Z"/>
      <path class="cls-1" d="M175.73,8.41c0-1.62,.57-3.01,1.71-4.15s2.52-1.71,4.15-1.71,3.01,.57,4.15,1.71,1.71,2.52,1.71,4.15V29.51c0,1.62-.57,3.01-1.71,4.15s-2.52,1.71-4.15,1.71-3.01-.57-4.15-1.71-1.71-2.52-1.71-4.15V8.41Zm7.03,0c0-.33-.11-.61-.34-.83s-.5-.34-.83-.34-.61,.11-.83,.34-.34,.5-.34,.83V29.51c0,.33,.11,.61,.34,.83s.5,.34,.83,.34,.61-.11,.83-.34,.34-.5,.34-.83V8.41Z"/>
      <path class="cls-1" d="M196.24,31.85l-1.76-10.55v14.06h-4.69V2.55h4.69l2.34,14.06,2.34-14.06h4.69V35.36h-4.69v-14.06l-1.76,10.55h-1.17Z"/>
      <path class="cls-1" d="M224.95,8.41v2.34l-4.69,1.17v-3.52c0-.33-.11-.61-.34-.83s-.5-.34-.83-.34-.61,.11-.83,.34-.34,.5-.34,.83V29.51c0,.33,.11,.61,.34,.83s.5,.34,.83,.34,.61-.11,.83-.34,.34-.5,.34-.83v-3.52l4.69,1.17v2.34c0,1.62-.57,3.01-1.71,4.15s-2.52,1.71-4.15,1.71-3.01-.57-4.15-1.71-1.71-2.52-1.71-4.15V8.41c0-1.62,.57-3.01,1.71-4.15s2.52-1.71,4.15-1.71,3.01,.57,4.15,1.71,1.71,2.52,1.71,4.15Z"/>
      <path class="cls-1" d="M231.98,21.3v14.06h-4.69V2.55h4.69v14.06h2.34V2.55h4.69V35.36h-4.69v-14.06h-2.34Z"/>
      <path class="cls-1" d="M246.05,30.68h4.69v4.69h-9.38V2.55h9.38V7.24h-4.69v9.38h3.52v4.69h-3.52v9.38Z"/>
      <path class="cls-1" d="M257.77,21.3v14.06h-4.69V2.55h4.69l2.34,14.06V2.55h4.69V35.36h-4.69l-2.34-14.06Z"/>
      <path class="cls-1" d="M271.83,30.68h4.69v4.69h-9.38V2.55h9.38V7.24h-4.69v9.38h3.52v4.69h-3.52v9.38Z"/>
      <path class="cls-1" d="M282.38,21.4l-4.22-18.84h4.92l1.64,10.55,1.64-10.55h4.92l-4.22,18.84v13.97h-4.69v-13.97Z"/>
      <path class="cls-1" d="M295.27,35.36h-2.34v-4.69h4.69v4.69c0,1.56-.39,2.73-1.17,3.52s-1.95,1.17-3.52,1.17v-2.34c1.56,0,2.34-.78,2.34-2.34Z"/>
      <path class="cls-1" d="M317.53,20.79l-1.88,14.58h-4.69l-4.22-32.81h4.69l1.88,17.58,1.88-17.58h4.69l1.88,17.58,1.88-17.58h4.69l-4.22,32.81h-4.69l-1.88-14.58Z"/>
      <path class="cls-1" d="M334.78,31.85l-.38,3.52h-4.69l4.22-32.81h4.69l4.22,32.81h-4.69l-.38-3.52h-3Zm2.51-4.69l-1.01-9.38-1.01,9.38h2.02Z"/>
    </g>
    <g>
      <path class="cls-1" d="M164.78,59.74v1.76h-2.34v-1.76c0-.16-.06-.3-.17-.42s-.25-.17-.42-.17-.3,.06-.42,.17-.17,.25-.17,.42v10.55c0,.16,.06,.3,.17,.42s.25,.17,.42,.17,.3-.06,.42-.17,.17-.25,.17-.42v-4.1h-.59l.23-2.34h2.7v6.45c0,.81-.29,1.5-.86,2.07s-1.26,.86-2.07,.86-1.5-.29-2.07-.86-.86-1.26-.86-2.07v-10.55c0-.81,.29-1.5,.86-2.07s1.26-.86,2.07-.86,1.5,.29,2.07,.86,.86,1.26,.86,2.07Z"/>
      <path class="cls-1" d="M168.29,66.18v7.03h-2.34v-16.41h2.93c.81,0,1.5,.29,2.07,.86s.86,1.26,.86,2.07v3.52c0,.66-.19,1.25-.57,1.76,.38,.51,.57,1.09,.57,1.76v6.45h-2.34v-6.45c0-.16-.06-.3-.17-.42s-.25-.17-.42-.17h-.59Zm0-7.03v4.69h.59c.16,0,.3-.06,.42-.17s.17-.25,.17-.42v-3.52c0-.16-.06-.3-.17-.42s-.25-.17-.42-.17h-.59Z"/>
      <path class="cls-1" d="M175.16,71.46l-.19,1.76h-2.34l2.11-16.41h2.34l2.11,16.41h-2.34l-.19-1.76h-1.5Zm1.25-2.34l-.5-4.69-.5,4.69h1.01Z"/>
      <path class="cls-1" d="M182.94,56.81c.81,0,1.5,.29,2.07,.86s.86,1.26,.86,2.07v10.55c0,.81-.29,1.5-.86,2.07s-1.26,.86-2.07,.86h-2.93v-16.41h2.93Zm0,14.06c.16,0,.3-.06,.42-.17s.17-.25,.17-.42v-10.55c0-.16-.06-.3-.17-.42s-.25-.17-.42-.17h-.59v11.72h.59Z"/>
      <path class="cls-1" d="M187.04,70.29v-13.48h2.34v13.48c0,.16,.06,.3,.17,.42s.25,.17,.42,.17,.3-.06,.42-.17,.17-.25,.17-.42v-13.48h2.34v13.48c0,.81-.29,1.5-.86,2.07s-1.26,.86-2.07,.86-1.5-.29-2.07-.86-.86-1.26-.86-2.07Z"/>
      <path class="cls-1" d="M196.26,71.46l-.19,1.76h-2.34l2.11-16.41h2.34l2.11,16.41h-2.34l-.19-1.76h-1.5Zm1.25-2.34l-.5-4.69-.5,4.69h1.01Z"/>
      <path class="cls-1" d="M205.21,59.15v14.06h-2.34v-14.06h-1.76v-2.34h5.86v2.34h-1.76Z"/>
      <path class="cls-1" d="M210.48,70.87h2.34v2.34h-4.69v-16.41h4.69v2.34h-2.34v4.69h1.76v2.34h-1.76v4.69Z"/>
      <path class="cls-1" d="M216.93,56.81c.81,0,1.5,.29,2.07,.86s.86,1.26,.86,2.07v10.55c0,.81-.29,1.5-.86,2.07s-1.26,.86-2.07,.86h-2.93v-16.41h2.93Zm0,14.06c.16,0,.3-.06,.42-.17s.17-.25,.17-.42v-10.55c0-.16-.06-.3-.17-.42s-.25-.17-.42-.17h-.59v11.72h.59Z"/>
      <path class="cls-1" d="M230.4,59.74v1.17l-2.34,.59v-1.76c0-.16-.06-.3-.17-.42s-.25-.17-.42-.17-.3,.06-.42,.17-.17,.25-.17,.42v10.55c0,.16,.06,.3,.17,.42s.25,.17,.42,.17,.3-.06,.42-.17,.17-.25,.17-.42v-1.76l2.34,.59v1.17c0,.81-.29,1.5-.86,2.07s-1.26,.86-2.07,.86-1.5-.29-2.07-.86-.86-1.26-.86-2.07v-10.55c0-.81,.29-1.5,.86-2.07s1.26-.86,2.07-.86,1.5,.29,2.07,.86,.86,1.26,.86,2.07Z"/>
      <path class="cls-1" d="M233.92,66.18v7.03h-2.34v-16.41h2.34v7.03h1.17v-7.03h2.34v16.41h-2.34v-7.03h-1.17Z"/>
      <path class="cls-1" d="M244.47,59.74v1.17l-2.34,.59v-1.76c0-.16-.06-.3-.17-.42s-.25-.17-.42-.17-.3,.06-.42,.17-.17,.25-.17,.42v3.52c0,.16,.06,.3,.17,.42s.25,.17,.42,.17c.81,0,1.5,.29,2.07,.86s.86,1.26,.86,2.07v3.52c0,.81-.29,1.5-.86,2.07s-1.26,.86-2.07,.86-1.5-.29-2.07-.86-.86-1.26-.86-2.07v-1.17l2.34-.59v1.76c0,.16,.06,.3,.17,.42s.25,.17,.42,.17,.3-.06,.42-.17,.17-.25,.17-.42v-3.52c0-.16-.06-.3-.17-.42s-.25-.17-.42-.17c-.81,0-1.5-.29-2.07-.86s-.86-1.26-.86-2.07v-3.52c0-.81,.29-1.5,.86-2.07s1.26-.86,2.07-.86,1.5,.29,2.07,.86,.86,1.26,.86,2.07Z"/>
      <path class="cls-2" d="M256.19,67.36v-2.34l4.69-1.17v3.52c0,.33,.11,.61,.34,.83s.5,.34,.83,.34,.61-.11,.83-.34,.34-.5,.34-.83v-7.03c0-.33-.11-.61-.34-.83s-.5-.34-.83-.34h-1.17v-4.69h1.17c.33,0,.61-.11,.83-.34s.34-.5,.34-.83v-7.03c0-.33-.11-.61-.34-.83s-.5-.34-.83-.34-.61,.11-.83,.34-.34,.5-.34,.83v3.52l-4.69-1.17v-2.34c0-1.62,.57-3.01,1.71-4.15s2.52-1.71,4.15-1.71,3.01,.57,4.15,1.71,1.71,2.52,1.71,4.15v7.03c0,1.33-.38,2.5-1.15,3.52,.77,1.02,1.15,2.19,1.15,3.52v7.03c0,1.62-.57,3.01-1.71,4.15s-2.52,1.71-4.15,1.71-3.01-.57-4.15-1.71-1.71-2.52-1.71-4.15Z"/>
      <path class="cls-2" d="M274.94,68.53v4.69h-4.69v-4.69h4.69Z"/>
      <path class="cls-2" d="M289,67.36c0,1.62-.57,3.01-1.71,4.15s-2.52,1.71-4.15,1.71-3.01-.57-4.15-1.71-1.71-2.52-1.71-4.15v-7.03c0-1.33,.38-2.5,1.15-3.52-.77-1.02-1.15-2.19-1.15-3.52v-7.03c0-1.62,.57-3.01,1.71-4.15s2.52-1.71,4.15-1.71,3.01,.57,4.15,1.71,1.71,2.52,1.71,4.15v7.03c0,1.33-.38,2.5-1.15,3.52,.77,1.02,1.15,2.19,1.15,3.52v7.03Zm-4.69-21.09c0-.33-.11-.61-.34-.83s-.5-.34-.83-.34-.61,.11-.83,.34-.34,.5-.34,.83v7.03c0,.33,.11,.61,.34,.83s.5,.34,.83,.34,.61-.11,.83-.34,.34-.5,.34-.83v-7.03Zm-1.17,22.27c.33,0,.61-.11,.83-.34s.34-.5,.34-.83v-7.03c0-.33-.11-.61-.34-.83s-.5-.34-.83-.34-.61,.11-.83,.34-.34,.5-.34,.83v7.03c0,.33,.11,.61,.34,.83s.5,.34,.83,.34Z"/>
      <path class="cls-2" d="M304.23,38.06l-9.14,37.5h-4.92l9.14-37.5h4.92Z"/>
      <path class="cls-2" d="M305.4,59.15v-18.75h4.69v14.06h2.34v-14.06h4.69v14.06h1.17v4.69h-1.17v14.06h-4.69v-14.06h-7.03Z"/>
      <path class="cls-2" d="M325.33,68.53v4.69h-4.69v-4.69h4.69Z"/>
      <path class="cls-2" d="M327.67,46.26c0-1.62,.57-3.01,1.71-4.15s2.52-1.71,4.15-1.71,3.01,.57,4.15,1.71,1.71,2.52,1.71,4.15v21.09c0,1.62-.57,3.01-1.71,4.15s-2.52,1.71-4.15,1.71-3.01-.57-4.15-1.71-1.71-2.52-1.71-4.15v-21.09Zm7.03,0c0-.33-.11-.61-.34-.83s-.5-.34-.83-.34-.61,.11-.83,.34-.34,.5-.34,.83v21.09c0,.33,.11,.61,.34,.83s.5,.34,.83,.34,.61-.11,.83-.34,.34-.5,.34-.83v-21.09Z"/>
    </g>
    <g>
      <path class="cls-8" d="M160.11,133.96l-.38,3.52h-4.69l4.22-32.81h4.69l4.22,32.81h-4.69l-.38-3.52h-3Zm2.51-4.69l-1.01-9.38-1.01,9.38h2.02Z"/>
      <path class="cls-8" d="M178.02,109.36v28.12h-4.69v-28.12h-3.52v-4.69h11.72v4.69h-3.52Z"/>
      <path class="cls-8" d="M192.08,109.36v28.12h-4.69v-28.12h-3.52v-4.69h11.72v4.69h-3.52Z"/>
      <path class="cls-8" d="M202.63,132.79h4.69v4.69h-9.38v-32.81h9.38v4.69h-4.69v9.38h3.52v4.69h-3.52v9.38Z"/>
      <path class="cls-8" d="M214.35,123.42v14.06h-4.69v-32.81h4.69l2.34,14.06v-14.06h4.69v32.81h-4.69l-2.34-14.06Z"/>
      <path class="cls-8" d="M229.58,104.67c1.62,0,3.01,.57,4.15,1.71s1.71,2.52,1.71,4.15v21.09c0,1.62-.57,3.01-1.71,4.15s-2.52,1.71-4.15,1.71h-5.86v-32.81h5.86Zm0,28.12c.33,0,.61-.11,.83-.34s.34-.5,.34-.83v-21.09c0-.33-.11-.61-.34-.83s-.5-.34-.83-.34h-1.17v23.44h1.17Z"/>
      <path class="cls-8" d="M242.47,104.67v32.81h-4.69v-32.81h4.69Z"/>
      <path class="cls-8" d="M249.51,123.42v14.06h-4.69v-32.81h4.69l2.34,14.06v-14.06h4.69v32.81h-4.69l-2.34-14.06Z"/>
      <path class="cls-8" d="M270.6,110.53v3.52h-4.69v-3.52c0-.33-.11-.61-.34-.83s-.5-.34-.83-.34-.61,.11-.83,.34-.34,.5-.34,.83v21.09c0,.33,.11,.61,.34,.83s.5,.34,.83,.34,.61-.11,.83-.34,.34-.5,.34-.83v-8.2h-1.17l.47-4.69h5.39v12.89c0,1.62-.57,3.01-1.71,4.15s-2.52,1.71-4.15,1.71-3.01-.57-4.15-1.71-1.71-2.52-1.71-4.15v-21.09c0-1.62,.57-3.01,1.71-4.15s2.52-1.71,4.15-1.71,3.01,.57,4.15,1.71,1.71,2.52,1.71,4.15Z"/>
      <path class="cls-5" d="M290.52,122.9l-1.88,14.58h-4.69l-4.22-32.81h4.69l1.88,17.58,1.88-17.58h4.69l1.88,17.58,1.88-17.58h4.69l-4.22,32.81h-4.69l-1.88-14.58Z"/>
      <path class="cls-5" d="M315.13,110.53v2.34l-4.69,1.17v-3.52c0-.33-.11-.61-.34-.83s-.5-.34-.83-.34-.61,.11-.83,.34-.34,.5-.34,.83v7.03c0,.33,.11,.61,.34,.83s.5,.34,.83,.34c1.62,0,3.01,.57,4.15,1.71s1.71,2.52,1.71,4.15v7.03c0,1.62-.57,3.01-1.71,4.15s-2.52,1.71-4.15,1.71-3.01-.57-4.15-1.71-1.71-2.52-1.71-4.15v-2.34l4.69-1.17v3.52c0,.33,.11,.61,.34,.83s.5,.34,.83,.34,.61-.11,.83-.34,.34-.5,.34-.83v-7.03c0-.33-.11-.61-.34-.83s-.5-.34-.83-.34c-1.62,0-3.01-.57-4.15-1.71s-1.71-2.52-1.71-4.15v-7.03c0-1.62,.57-3.01,1.71-4.15s2.52-1.71,4.15-1.71,3.01,.57,4.15,1.71,1.71,2.52,1.71,4.15Z"/>
      <path class="cls-5" d="M317.47,131.62v-26.95h4.69v26.95c0,.33,.11,.61,.34,.83s.5,.34,.83,.34,.61-.11,.83-.34,.34-.5,.34-.83v-26.95h4.69v26.95c0,1.62-.57,3.01-1.71,4.15s-2.52,1.71-4.15,1.71-3.01-.57-4.15-1.71-1.71-2.52-1.71-4.15Z"/>
    </g>
    <g>
      <path class="cls-10" d="M174.15,155.82v2.34l-4.69,1.17v-3.52c0-.33-.11-.61-.34-.83s-.5-.34-.83-.34-.61,.11-.83,.34-.34,.5-.34,.83v21.09c0,.33,.11,.61,.34,.83s.5,.34,.83,.34,.61-.11,.83-.34,.34-.5,.34-.83v-3.52l4.69,1.17v2.34c0,1.62-.57,3.01-1.71,4.15s-2.52,1.71-4.15,1.71-3.01-.57-4.15-1.71-1.71-2.52-1.71-4.15v-21.09c0-1.62,.57-3.01,1.71-4.15s2.52-1.71,4.15-1.71,3.01,.57,4.15,1.71,1.71,2.52,1.71,4.15Z"/>
      <path class="cls-10" d="M176.5,182.77v-32.81h4.69v28.12h4.69v4.69h-9.38Z"/>
      <path class="cls-10" d="M192.58,179.26l-.38,3.52h-4.69l4.22-32.81h4.69l4.22,32.81h-4.69l-.38-3.52h-3Zm2.51-4.69l-1.01-9.38-1.01,9.38h2.02Z"/>
      <path class="cls-10" d="M214,155.82v2.34l-4.69,1.17v-3.52c0-.33-.11-.61-.34-.83s-.5-.34-.83-.34-.61,.11-.83,.34-.34,.5-.34,.83v7.03c0,.33,.11,.61,.34,.83s.5,.34,.83,.34c1.62,0,3.01,.57,4.15,1.71s1.71,2.52,1.71,4.15v7.03c0,1.62-.57,3.01-1.71,4.15s-2.52,1.71-4.15,1.71-3.01-.57-4.15-1.71-1.71-2.52-1.71-4.15v-2.34l4.69-1.17v3.52c0,.33,.11,.61,.34,.83s.5,.34,.83,.34,.61-.11,.83-.34,.34-.5,.34-.83v-7.03c0-.33-.11-.61-.34-.83s-.5-.34-.83-.34c-1.62,0-3.01-.57-4.15-1.71s-1.71-2.52-1.71-4.15v-7.03c0-1.62,.57-3.01,1.71-4.15s2.52-1.71,4.15-1.71,3.01,.57,4.15,1.71,1.71,2.52,1.71,4.15Z"/>
      <path class="cls-10" d="M228.06,155.82v2.34l-4.69,1.17v-3.52c0-.33-.11-.61-.34-.83s-.5-.34-.83-.34-.61,.11-.83,.34-.34,.5-.34,.83v7.03c0,.33,.11,.61,.34,.83s.5,.34,.83,.34c1.62,0,3.01,.57,4.15,1.71s1.71,2.52,1.71,4.15v7.03c0,1.62-.57,3.01-1.71,4.15s-2.52,1.71-4.15,1.71-3.01-.57-4.15-1.71-1.71-2.52-1.71-4.15v-2.34l4.69-1.17v3.52c0,.33,.11,.61,.34,.83s.5,.34,.83,.34,.61-.11,.83-.34,.34-.5,.34-.83v-7.03c0-.33-.11-.61-.34-.83s-.5-.34-.83-.34c-1.62,0-3.01-.57-4.15-1.71s-1.71-2.52-1.71-4.15v-7.03c0-1.62,.57-3.01,1.71-4.15s2.52-1.71,4.15-1.71,3.01,.57,4.15,1.71,1.71,2.52,1.71,4.15Z"/>
      <path class="cls-10" d="M237.44,155.82c0-1.62,.57-3.01,1.71-4.15s2.52-1.71,4.15-1.71,3.01,.57,4.15,1.71,1.71,2.52,1.71,4.15v21.09c0,1.62-.57,3.01-1.71,4.15s-2.52,1.71-4.15,1.71-3.01-.57-4.15-1.71-1.71-2.52-1.71-4.15v-21.09Zm7.03,0c0-.33-.11-.61-.34-.83s-.5-.34-.83-.34-.61,.11-.83,.34-.34,.5-.34,.83v21.09c0,.33,.11,.61,.34,.83s.5,.34,.83,.34,.61-.11,.83-.34,.34-.5,.34-.83v-21.09Z"/>
      <path class="cls-10" d="M260.87,149.96v4.69h-4.69v9.38h3.52v4.69h-3.52v14.06h-4.69v-32.81h9.38Z"/>
      <path class="cls-10" d="M274.94,155.82v3.52l-4.69-1.17v-2.34c0-1.62,.57-3.01,1.71-4.15s2.52-1.71,4.15-1.71,3.01,.57,4.15,1.71,1.71,2.52,1.71,4.15v7.03c0,1.62-.57,3.01-1.71,4.15s-2.52,1.71-4.15,1.71c-.33,0-.61,.11-.83,.34s-.34,.5-.34,.83v8.2h7.03v4.69h-11.72v-12.89c0-1.62,.57-3.01,1.71-4.15s2.52-1.71,4.15-1.71c.33,0,.61-.11,.83-.34s.34-.5,.34-.83v-7.03c0-.33-.11-.61-.34-.83s-.5-.34-.83-.34-.61,.11-.83,.34-.34,.5-.34,.83Z"/>
      <path class="cls-10" d="M284.31,155.82c0-1.62,.57-3.01,1.71-4.15s2.52-1.71,4.15-1.71,3.01,.57,4.15,1.71,1.71,2.52,1.71,4.15v21.09c0,1.62-.57,3.01-1.71,4.15s-2.52,1.71-4.15,1.71-3.01-.57-4.15-1.71-1.71-2.52-1.71-4.15v-21.09Zm7.03,0c0-.33-.11-.61-.34-.83s-.5-.34-.83-.34-.61,.11-.83,.34-.34,.5-.34,.83v21.09c0,.33,.11,.61,.34,.83s.5,.34,.83,.34,.61-.11,.83-.34,.34-.5,.34-.83v-21.09Z"/>
      <path class="cls-10" d="M303.06,155.82v3.52l-4.69-1.17v-2.34c0-1.62,.57-3.01,1.71-4.15s2.52-1.71,4.15-1.71,3.01,.57,4.15,1.71,1.71,2.52,1.71,4.15v7.03c0,1.62-.57,3.01-1.71,4.15s-2.52,1.71-4.15,1.71c-.33,0-.61,.11-.83,.34s-.34,.5-.34,.83v8.2h7.03v4.69h-11.72v-12.89c0-1.62,.57-3.01,1.71-4.15s2.52-1.71,4.15-1.71c.33,0,.61-.11,.83-.34s.34-.5,.34-.83v-7.03c0-.33-.11-.61-.34-.83s-.5-.34-.83-.34-.61,.11-.83,.34-.34,.5-.34,.83Z"/>
      <path class="cls-10" d="M324.15,155.82v2.34l-4.69,1.17v-3.52c0-.33-.11-.61-.34-.83s-.5-.34-.83-.34-.61,.11-.83,.34-.34,.5-.34,.83v7.15c.38-.08,.77-.12,1.17-.12,1.62,0,3.01,.57,4.15,1.71s1.71,2.52,1.71,4.15v8.2c0,1.62-.57,3.01-1.71,4.15s-2.52,1.71-4.15,1.71-3.01-.57-4.15-1.71-1.71-2.52-1.71-4.15v-21.09c0-1.62,.57-3.01,1.71-4.15s2.52-1.71,4.15-1.71,3.01,.57,4.15,1.71,1.71,2.52,1.71,4.15Zm-7.03,21.09c0,.33,.11,.61,.34,.83s.5,.34,.83,.34,.61-.11,.83-.34,.34-.5,.34-.83v-8.2c0-.33-.11-.61-.34-.83s-.5-.34-.83-.34-.61,.11-.83,.34-.34,.5-.34,.83v8.2Z"/>
    </g>
    <g>
      <path class="cls-1" d="M173.57,204.06v7.03h-2.34v-16.41h2.93c.81,0,1.5,.29,2.07,.86s.86,1.26,.86,2.07v3.52c0,.81-.29,1.5-.86,2.07s-1.26,.86-2.07,.86h-.59Zm0-7.03v4.69h.59c.16,0,.3-.06,.42-.17s.17-.25,.17-.42v-3.52c0-.16-.06-.3-.17-.42s-.25-.17-.42-.17h-.59Z"/>
      <path class="cls-1" d="M178.26,208.16v-13.48h2.34v13.48c0,.16,.06,.3,.17,.42s.25,.17,.42,.17,.3-.06,.42-.17,.17-.25,.17-.42v-13.48h2.34v13.48c0,.81-.29,1.5-.86,2.07s-1.26,.86-2.07,.86-1.5-.29-2.07-.86-.86-1.26-.86-2.07Z"/>
      <path class="cls-1" d="M187.63,204.06v7.03h-2.34v-16.41h2.93c.81,0,1.5,.29,2.07,.86s.86,1.26,.86,2.07v3.52c0,.66-.19,1.25-.57,1.76,.38,.51,.57,1.09,.57,1.76v6.45h-2.34v-6.45c0-.16-.06-.3-.17-.42s-.25-.17-.42-.17h-.59Zm0-7.03v4.69h.59c.16,0,.3-.06,.42-.17s.17-.25,.17-.42v-3.52c0-.16-.06-.3-.17-.42s-.25-.17-.42-.17h-.59Z"/>
      <path class="cls-1" d="M198.18,197.61v1.17l-2.34,.59v-1.76c0-.16-.06-.3-.17-.42s-.25-.17-.42-.17-.3,.06-.42,.17-.17,.25-.17,.42v3.52c0,.16,.06,.3,.17,.42s.25,.17,.42,.17c.81,0,1.5,.29,2.07,.86s.86,1.26,.86,2.07v3.52c0,.81-.29,1.5-.86,2.07s-1.26,.86-2.07,.86-1.5-.29-2.07-.86-.86-1.26-.86-2.07v-1.17l2.34-.59v1.76c0,.16,.06,.3,.17,.42s.25,.17,.42,.17,.3-.06,.42-.17,.17-.25,.17-.42v-3.52c0-.16-.06-.3-.17-.42s-.25-.17-.42-.17c-.81,0-1.5-.29-2.07-.86s-.86-1.26-.86-2.07v-3.52c0-.81,.29-1.5,.86-2.07s1.26-.86,2.07-.86,1.5,.29,2.07,.86,.86,1.26,.86,2.07Z"/>
      <path class="cls-1" d="M199.35,208.16v-13.48h2.34v13.48c0,.16,.06,.3,.17,.42s.25,.17,.42,.17,.3-.06,.42-.17,.17-.25,.17-.42v-13.48h2.34v13.48c0,.81-.29,1.5-.86,2.07s-1.26,.86-2.07,.86-1.5-.29-2.07-.86-.86-1.26-.86-2.07Z"/>
      <path class="cls-1" d="M208.72,194.68v16.41h-2.34v-16.41h2.34Z"/>
      <path class="cls-1" d="M212.24,204.06v7.03h-2.34v-16.41h2.34l1.17,7.03v-7.03h2.34v16.41h-2.34l-1.17-7.03Z"/>
      <path class="cls-1" d="M222.79,197.61v1.76h-2.34v-1.76c0-.16-.06-.3-.17-.42s-.25-.17-.42-.17-.3,.06-.42,.17-.17,.25-.17,.42v10.55c0,.16,.06,.3,.17,.42s.25,.17,.42,.17,.3-.06,.42-.17,.17-.25,.17-.42v-4.1h-.59l.23-2.34h2.7v6.45c0,.81-.29,1.5-.86,2.07s-1.26,.86-2.07,.86-1.5-.29-2.07-.86-.86-1.26-.86-2.07v-10.55c0-.81,.29-1.5,.86-2.07s1.26-.86,2.07-.86,1.5,.29,2.07,.86,.86,1.26,.86,2.07Z"/>
      <path class="cls-1" d="M227.47,211.09v-16.41h2.93c.81,0,1.5,.29,2.07,.86s.86,1.26,.86,2.07v3.52c0,.66-.19,1.25-.57,1.76,.38,.51,.57,1.09,.57,1.76v3.52c0,.81-.29,1.5-.86,2.07s-1.26,.86-2.07,.86h-2.93Zm2.34-14.06v4.69h.59c.16,0,.3-.06,.42-.17s.17-.25,.17-.42v-3.52c0-.16-.06-.3-.17-.42s-.25-.17-.42-.17h-.59Zm0,7.03v4.69h.59c.16,0,.3-.06,.42-.17s.17-.25,.17-.42v-3.52c0-.16-.06-.3-.17-.42s-.25-.17-.42-.17h-.59Z"/>
      <path class="cls-1" d="M236.69,209.33l-.19,1.76h-2.34l2.11-16.41h2.34l2.11,16.41h-2.34l-.19-1.76h-1.5Zm1.25-2.34l-.5-4.69-.5,4.69h1.01Z"/>
      <path class="cls-1" d="M247.4,197.61v1.17l-2.34,.59v-1.76c0-.16-.06-.3-.17-.42s-.25-.17-.42-.17-.3,.06-.42,.17-.17,.25-.17,.42v10.55c0,.16,.06,.3,.17,.42s.25,.17,.42,.17,.3-.06,.42-.17,.17-.25,.17-.42v-1.76l2.34,.59v1.17c0,.81-.29,1.5-.86,2.07s-1.26,.86-2.07,.86-1.5-.29-2.07-.86-.86-1.26-.86-2.07v-10.55c0-.81,.29-1.5,.86-2.07s1.26-.86,2.07-.86,1.5,.29,2.07,.86,.86,1.26,.86,2.07Z"/>
      <path class="cls-1" d="M250.91,204.06v7.03h-2.34v-16.41h2.34v7.03h1.17v-7.03h2.34v16.41h-2.34v-7.03h-1.17Z"/>
      <path class="cls-1" d="M257.94,208.74h2.34v2.34h-4.69v-16.41h4.69v2.34h-2.34v4.69h1.76v2.34h-1.76v4.69Z"/>
      <path class="cls-1" d="M261.46,211.09v-16.41h2.34v14.06h2.34v2.34h-4.69Z"/>
      <path class="cls-1" d="M267.32,197.61c0-.81,.29-1.5,.86-2.07s1.26-.86,2.07-.86,1.5,.29,2.07,.86,.86,1.26,.86,2.07v10.55c0,.81-.29,1.5-.86,2.07s-1.26,.86-2.07,.86-1.5-.29-2.07-.86-.86-1.26-.86-2.07v-10.55Zm3.52,0c0-.16-.06-.3-.17-.42s-.25-.17-.42-.17-.3,.06-.42,.17-.17,.25-.17,.42v10.55c0,.16,.06,.3,.17,.42s.25,.17,.42,.17,.3-.06,.42-.17,.17-.25,.17-.42v-10.55Z"/>
      <path class="cls-1" d="M276.69,204.06v7.03h-2.34v-16.41h2.93c.81,0,1.5,.29,2.07,.86s.86,1.26,.86,2.07v3.52c0,.66-.19,1.25-.57,1.76,.38,.51,.57,1.09,.57,1.76v6.45h-2.34v-6.45c0-.16-.06-.3-.17-.42s-.25-.17-.42-.17h-.59Zm0-7.03v4.69h.59c.16,0,.3-.06,.42-.17s.17-.25,.17-.42v-3.52c0-.16-.06-.3-.17-.42s-.25-.17-.42-.17h-.59Z"/>
      <path class="cls-1" d="M282.55,197.02h-1.17v-2.34h2.34v2.34c0,.78-.2,1.37-.59,1.76s-.98,.59-1.76,.59v-1.17c.78,0,1.17-.39,1.17-1.17Z"/>
      <path class="cls-1" d="M290.76,197.61v1.17l-2.34,.59v-1.76c0-.16-.06-.3-.17-.42s-.25-.17-.42-.17-.3,.06-.42,.17-.17,.25-.17,.42v3.52c0,.16,.06,.3,.17,.42s.25,.17,.42,.17c.81,0,1.5,.29,2.07,.86s.86,1.26,.86,2.07v3.52c0,.81-.29,1.5-.86,2.07s-1.26,.86-2.07,.86-1.5-.29-2.07-.86-.86-1.26-.86-2.07v-1.17l2.34-.59v1.76c0,.16,.06,.3,.17,.42s.25,.17,.42,.17,.3-.06,.42-.17,.17-.25,.17-.42v-3.52c0-.16-.06-.3-.17-.42s-.25-.17-.42-.17c-.81,0-1.5-.29-2.07-.86s-.86-1.26-.86-2.07v-3.52c0-.81,.29-1.5,.86-2.07s1.26-.86,2.07-.86,1.5,.29,2.07,.86,.86,1.26,.86,2.07Z"/>
      <path class="cls-1" d="M297.79,194.68v16.41h-2.34v-16.41h2.34Z"/>
      <path class="cls-1" d="M301.3,204.06v7.03h-2.34v-16.41h2.34l1.17,7.03v-7.03h2.34v16.41h-2.34l-1.17-7.03Z"/>
    </g>
    <g>
      <path class="cls-4" d="M159.96,227.13v2.24l-4.47,1.12v-3.35c0-.31-.11-.58-.32-.79s-.48-.32-.79-.32-.58,.11-.79,.32-.32,.48-.32,.79v20.12c0,.31,.11,.58,.32,.79s.48,.32,.79,.32,.58-.11,.79-.32,.32-.48,.32-.79v-3.35l4.47,1.12v2.24c0,1.55-.54,2.87-1.63,3.96s-2.41,1.63-3.96,1.63-2.87-.54-3.96-1.63-1.63-2.41-1.63-3.96v-20.12c0-1.55,.54-2.87,1.63-3.96s2.41-1.63,3.96-1.63,2.87,.54,3.96,1.63,1.63,2.41,1.63,3.96Z"/>
      <path class="cls-4" d="M162.2,227.13c0-1.55,.54-2.87,1.63-3.96s2.41-1.63,3.96-1.63,2.87,.54,3.96,1.63,1.63,2.41,1.63,3.96v20.12c0,1.55-.54,2.87-1.63,3.96s-2.41,1.63-3.96,1.63-2.87-.54-3.96-1.63-1.63-2.41-1.63-3.96v-20.12Zm6.71,0c0-.31-.11-.58-.32-.79s-.48-.32-.79-.32-.58,.11-.79,.32-.32,.48-.32,.79v20.12c0,.31,.11,.58,.32,.79s.48,.32,.79,.32,.58-.11,.79-.32,.32-.48,.32-.79v-20.12Z"/>
      <path class="cls-4" d="M181.76,249.49l-1.68-10.06v13.42h-4.47v-31.3h4.47l2.24,13.42,2.24-13.42h4.47v31.3h-4.47v-13.42l-1.68,10.06h-1.12Z"/>
      <path class="cls-4" d="M195.74,239.43v13.42h-4.47v-31.3h5.59c1.55,0,2.87,.54,3.96,1.63s1.63,2.41,1.63,3.96v6.71c0,1.55-.54,2.87-1.63,3.96s-2.41,1.63-3.96,1.63h-1.12Zm0-13.42v8.94h1.12c.31,0,.58-.11,.79-.32s.32-.48,.32-.79v-6.71c0-.31-.11-.58-.32-.79s-.48-.32-.79-.32h-1.12Z"/>
      <path class="cls-4" d="M204.68,247.25v-25.71h4.47v25.71c0,.31,.11,.58,.32,.79s.48,.32,.79,.32,.58-.11,.79-.32,.32-.48,.32-.79v-25.71h4.47v25.71c0,1.55-.54,2.87-1.63,3.96s-2.41,1.63-3.96,1.63-2.87-.54-3.96-1.63-1.63-2.41-1.63-3.96Z"/>
      <path class="cls-4" d="M225.92,226.01v26.83h-4.47v-26.83h-3.35v-4.47h11.18v4.47h-3.35Z"/>
      <path class="cls-4" d="M235.99,248.37h4.47v4.47h-8.94v-31.3h8.94v4.47h-4.47v8.94h3.35v4.47h-3.35v8.94Z"/>
      <path class="cls-4" d="M247.17,239.43v13.42h-4.47v-31.3h5.59c1.55,0,2.87,.54,3.96,1.63s1.63,2.41,1.63,3.96v6.71c0,1.27-.37,2.39-1.1,3.35,.73,.97,1.1,2.09,1.1,3.35v12.3h-4.47v-12.3c0-.31-.11-.58-.32-.79s-.48-.32-.79-.32h-1.12Zm0-13.42v8.94h1.12c.31,0,.58-.11,.79-.32s.32-.48,.32-.79v-6.71c0-.31-.11-.58-.32-.79s-.48-.32-.79-.32h-1.12Z"/>
      <path class="cls-4" d="M274,227.13v2.24l-4.47,1.12v-3.35c0-.31-.11-.58-.32-.79s-.48-.32-.79-.32-.58,.11-.79,.32-.32,.48-.32,.79v6.71c0,.31,.11,.58,.32,.79s.48,.32,.79,.32c1.55,0,2.87,.54,3.96,1.63s1.63,2.41,1.63,3.96v6.71c0,1.55-.54,2.87-1.63,3.96s-2.41,1.63-3.96,1.63-2.87-.54-3.96-1.63-1.63-2.41-1.63-3.96v-2.24l4.47-1.12v3.35c0,.31,.11,.58,.32,.79s.48,.32,.79,.32,.58-.11,.79-.32,.32-.48,.32-.79v-6.71c0-.31-.11-.58-.32-.79s-.48-.32-.79-.32c-1.55,0-2.87-.54-3.96-1.63s-1.63-2.41-1.63-3.96v-6.71c0-1.55,.54-2.87,1.63-3.96s2.41-1.63,3.96-1.63,2.87,.54,3.96,1.63,1.63,2.41,1.63,3.96Z"/>
      <path class="cls-4" d="M287.41,227.13v2.24l-4.47,1.12v-3.35c0-.31-.11-.58-.32-.79s-.48-.32-.79-.32-.58,.11-.79,.32-.32,.48-.32,.79v20.12c0,.31,.11,.58,.32,.79s.48,.32,.79,.32,.58-.11,.79-.32,.32-.48,.32-.79v-3.35l4.47,1.12v2.24c0,1.55-.54,2.87-1.63,3.96s-2.41,1.63-3.96,1.63-2.87-.54-3.96-1.63-1.63-2.41-1.63-3.96v-20.12c0-1.55,.54-2.87,1.63-3.96s2.41-1.63,3.96-1.63,2.87,.54,3.96,1.63,1.63,2.41,1.63,3.96Z"/>
      <path class="cls-4" d="M294.12,221.54v31.3h-4.47v-31.3h4.47Z"/>
      <path class="cls-4" d="M300.83,248.37h4.47v4.47h-8.94v-31.3h8.94v4.47h-4.47v8.94h3.35v4.47h-3.35v8.94Z"/>
      <path class="cls-4" d="M312.01,239.43v13.42h-4.47v-31.3h4.47l2.24,13.42v-13.42h4.47v31.3h-4.47l-2.24-13.42Z"/>
      <path class="cls-4" d="M332.13,227.13v2.24l-4.47,1.12v-3.35c0-.31-.11-.58-.32-.79s-.48-.32-.79-.32-.58,.11-.79,.32-.32,.48-.32,.79v20.12c0,.31,.11,.58,.32,.79s.48,.32,.79,.32,.58-.11,.79-.32,.32-.48,.32-.79v-3.35l4.47,1.12v2.24c0,1.55-.54,2.87-1.63,3.96s-2.41,1.63-3.96,1.63-2.87-.54-3.96-1.63-1.63-2.41-1.63-3.96v-20.12c0-1.55,.54-2.87,1.63-3.96s2.41-1.63,3.96-1.63,2.87,.54,3.96,1.63,1.63,2.41,1.63,3.96Z"/>
      <path class="cls-4" d="M338.84,248.37h4.47v4.47h-8.94v-31.3h8.94v4.47h-4.47v8.94h3.35v4.47h-3.35v8.94Z"/>
    </g>
  </g>
</svg>