<?xml version="1.0" encoding="UTF-8"?><svg id="Layer_1" xmlns="http://www.w3.org/2000/svg" viewBox="0 0 359.06 248.52"><defs><style>.cls-1{fill:#fff;}.cls-2{fill:none;stroke:#616161;stroke-miterlimit:10;stroke-width:3px;}.cls-3{fill-rule:evenodd;}.cls-3,.cls-4{fill:#923241;}</style></defs><line class="cls-2" x1="7.46" y1="33.39" x2="120.65" y2="33.39"/><line class="cls-2" x1="235.24" y1="33.39" x2="348.43" y2="33.39"/><path class="cls-1" d="M207.51,42.26V6.04c0-3.33-2.7-6.04-6.04-6.04h-38.24c-6.67,0-12.07,5.41-12.07,12.07V52.32c0,6.67,5.41,12.07,12.07,12.07h40.25c2.22,0,4.02-1.8,4.02-3.91,0-1.47-.83-2.71-2.01-3.41v-10.23c1.23-1.21,2.01-2.8,2.01-4.58Zm-38.35-26.16h24.15c1.22,0,2.13,.91,2.13,2.01s-.91,2.01-2.01,2.01h-24.26c-.99,0-1.9-.91-1.9-2.01s.91-2.01,1.9-2.01Zm0,8.05h24.15c1.22,0,2.13,.91,2.13,2.01s-.91,2.01-2.01,2.01h-24.26c-.99,0-1.9-.91-1.9-2.01s.91-2.01,1.9-2.01Zm30.3,32.2h-36.22c-2.22,0-4.02-1.8-4.02-4.02s1.8-4.02,4.02-4.02h36.22v8.05Z"/><g><path class="cls-3" d="M101.66,248.35s8.44-3.59,13.05-17.54c4.07,8.5,3.01,17.24,3.01,17.24-3.73,.84-16.05,.31-16.05,.31Zm45.27-79.74s5.15,28.02-13.05,28.98c-17.57,.92-25.85-25.51-25.85-25.51,0,0,4.24,51.65,28.86,48.25,27.76-3.83,10.05-51.72,10.05-51.72h0ZM13.16,241.69s.03,0,.04,0c20.53-4.67,36.25-28.65,40.88-38.28l2.93-6.1,1.76,6.53c.1,.36,2,7.55,2,17.05,0,1.04-.03,2.13-.08,3.23,7.08,.26,12.14-1.17,15.29-4.44,4.5-4.67,5.87-13.52,4.17-27.03-.81-6.46-3.21-16.76-5.32-25.83-1.08-4.64-2.1-9.03-2.72-12.14-3.96-19.86,.95-32.18,5.77-39.01,.76-1.07,1.58-2.09,2.46-3.07-14.21,4.78-26.12,12.22-38.42,24.5l8.65,10.04,3.53-3.31c3.34,12.46,.94,23.94,.94,23.94-4.54-6.94-9.92-12.56-9.92-12.56l2.36-3.95-7.8-9.06-.91-1.01c-9.58,13.16-12.69,23.94-12.69,23.94l6.8,6.21,3.97,3.59,1.32-3.81c7.31,13.68,.63,26.48,.63,26.48-1.2-4.67-6.02-11.56-6.02-11.56l1.9-6.27-10.12-9.16C14.07,203.49,0,214.15,0,214.15c0,0,15.22-2.75,23.69-5.6,0,0-.24,17.32-10.53,33.13Z"/><path class="cls-3" d="M166.69,123.07l-24.3,1.03c.02,2.86-.36,5.76-1.3,8.5,2.27,9.92,.71,15.31,.71,15.31-4.07-9.46-7.17-12.09-7.17-12.09-22.31-9.92-34.84,12.51-33.5,26.96,1.09,11.9,5.4,27.66,8.77,52.4,2.83,20.83-7.7,29.83-19.84,31.9-.26,.04-.52,.09-.79,.13-.06,0-.13,.01-.19,.02-2.08,.26-4.18,.36-6.27,.3-.07,0-.15,0-.22-.01-.24,0-.48-.03-.72-.04-.94-.06-1.87-.15-2.8-.27-9.43-1.3-30.57-5.14-52.39-5.67,12.84-7.49,22.88-20.47,28.48-29.66,.33,2.54,.6,5.66,.6,9.08,0,1.72-.07,3.5-.23,5.33l-.22,2.51,2.51,.22c10.04,.87,17.18-1.04,21.81-5.84,5.7-5.93,7.46-15.82,5.54-31.14-.84-6.73-3.27-17.15-5.41-26.35-1.07-4.6-2.08-8.95-2.69-11.98-3.61-18.11,.7-29.1,4.95-35.14,3.34-4.73,7.93-8.19,12.97-9.85,.09-.02,.18-.04,.27-.05l8.28-25.46h2.6l-5.57,24.47c1.3-.22,2.61-.43,3.94-.64l7.15-22.56h2.59l-4.68,21.86c7.39-.96,15.44-1.7,24.35-2.36,1.45,.59,3,2.25,4.38,4.59l23.38-7.21,.86,2.52-22.34,8.68c.18,.46,.34,.94,.5,1.42l24.44-3.04,.4,2.63-23.72,4.73c.08,.44,.16,.88,.23,1.33l24.67,.78-.02,2.66h0Zm-70.39,10.92c4.9-3.44,13.23-6.08,21.05-5.48,1.99,.16,3.67-.37,1.53-1.5-5.85-3.09-19.49-2.04-24.31,1.25-7.72,5.27-6.42,14.65-6.23,14.89,1.54-2.7,4.15-6.49,7.97-9.17h0Z"/></g><g><path class="cls-4" d="M228.34,118.4h5.11c.53,0,.97,.12,1.32,.36,.35,.24,.58,.56,.69,.95l3.6,13.68c.12,.44,.24,.92,.36,1.42s.21,1.03,.27,1.58c.12-.56,.25-1.09,.4-1.59,.14-.5,.28-.97,.41-1.41l4.25-13.68c.11-.34,.34-.64,.69-.91,.35-.27,.78-.41,1.29-.41h1.8c.53,0,.96,.12,1.3,.35,.34,.23,.58,.56,.71,.96l4.21,13.68c.13,.42,.27,.87,.41,1.34,.14,.47,.27,.98,.38,1.52,.1-.53,.19-1.03,.3-1.51,.1-.48,.21-.93,.31-1.35l3.6-13.68c.1-.35,.32-.65,.68-.92,.36-.26,.79-.4,1.3-.4h4.79l-8.1,26.23h-5.51l-4.93-16.25c-.08-.25-.17-.53-.26-.83-.09-.3-.18-.62-.26-.95-.08,.34-.17,.65-.26,.95-.09,.3-.18,.58-.26,.83l-5,16.25h-5.51l-8.1-26.23Z"/><path class="cls-4" d="M283.49,123.72c-.18,.29-.37,.5-.57,.65s-.45,.22-.76,.22c-.28,0-.57-.09-.89-.26-.32-.17-.68-.37-1.08-.58-.4-.22-.86-.41-1.38-.58s-1.1-.26-1.76-.26c-1.14,0-1.99,.24-2.55,.73-.56,.49-.84,1.14-.84,1.97,0,.53,.17,.97,.5,1.31s.78,.65,1.32,.9c.55,.25,1.17,.48,1.87,.69,.7,.21,1.42,.44,2.15,.7,.73,.26,1.45,.56,2.15,.91s1.33,.79,1.87,1.33c.55,.54,.99,1.2,1.32,1.97s.5,1.71,.5,2.8c0,1.21-.21,2.35-.63,3.4-.42,1.06-1.03,1.98-1.83,2.76-.8,.79-1.78,1.4-2.95,1.85-1.17,.45-2.5,.68-3.99,.68-.82,0-1.65-.08-2.49-.25-.85-.17-1.67-.41-2.46-.71-.79-.31-1.54-.67-2.23-1.09-.7-.42-1.3-.89-1.82-1.4l1.8-2.84c.13-.22,.32-.39,.56-.52,.24-.13,.5-.2,.77-.2,.36,0,.72,.11,1.09,.34,.37,.23,.78,.48,1.24,.76s.99,.53,1.59,.76c.6,.23,1.31,.34,2.12,.34,1.1,0,1.96-.24,2.57-.73,.61-.49,.92-1.26,.92-2.31,0-.61-.17-1.11-.5-1.49-.34-.38-.78-.7-1.32-.95s-1.17-.47-1.86-.67c-.7-.19-1.41-.41-2.14-.64-.73-.23-1.45-.52-2.14-.86-.7-.34-1.32-.79-1.86-1.35s-.99-1.25-1.32-2.09-.5-1.86-.5-3.09c0-.98,.2-1.94,.59-2.88,.4-.94,.98-1.77,1.75-2.5,.77-.73,1.71-1.32,2.83-1.75s2.39-.66,3.83-.66c.8,0,1.59,.06,2.35,.19,.76,.13,1.48,.31,2.17,.56,.68,.25,1.32,.54,1.92,.88,.59,.34,1.12,.73,1.59,1.16l-1.51,2.83Z"/><path class="cls-4" d="M299.3,139.82c.82,0,1.54-.13,2.19-.4s1.18-.66,1.63-1.16,.78-1.12,1.02-1.84c.23-.73,.35-1.55,.35-2.48v-15.53h6.08v15.53c0,1.61-.26,3.08-.78,4.43-.52,1.34-1.27,2.5-2.24,3.47-.97,.97-2.15,1.73-3.55,2.27-1.39,.54-2.96,.81-4.7,.81s-3.32-.27-4.72-.81c-1.39-.54-2.57-1.3-3.55-2.27-.97-.97-1.72-2.13-2.23-3.47-.52-1.34-.77-2.82-.77-4.43v-15.53h6.08v15.52c0,.92,.12,1.75,.35,2.48,.23,.73,.57,1.34,1.02,1.85s.99,.9,1.63,1.17,1.37,.4,2.19,.4Z"/><path class="cls-4" d="M208.2,181.04c.14,0,.29,.03,.43,.08,.14,.05,.28,.15,.41,.28l2.41,2.54c-1.06,1.38-2.38,2.42-3.97,3.12-1.59,.7-3.47,1.05-5.64,1.05-1.99,0-3.78-.34-5.35-1.02-1.58-.68-2.92-1.61-4.01-2.81-1.1-1.19-1.94-2.61-2.53-4.25-.59-1.64-.88-3.42-.88-5.34s.33-3.75,1.01-5.39c.67-1.64,1.61-3.05,2.82-4.24s2.65-2.11,4.33-2.77c1.68-.66,3.53-.99,5.56-.99,.98,0,1.91,.09,2.78,.26s1.68,.41,2.44,.72c.76,.31,1.45,.67,2.09,1.1,.64,.43,1.2,.9,1.69,1.41l-2.05,2.75c-.13,.17-.29,.32-.47,.46-.18,.14-.43,.21-.76,.21-.22,0-.42-.05-.61-.14s-.4-.21-.61-.35c-.22-.14-.45-.29-.71-.45-.26-.16-.56-.31-.92-.45-.35-.14-.77-.25-1.24-.35-.47-.1-1.03-.14-1.67-.14-1.1,0-2.11,.2-3.02,.58-.91,.39-1.69,.95-2.35,1.67s-1.16,1.6-1.53,2.64c-.37,1.03-.55,2.19-.55,3.47s.18,2.54,.55,3.58,.86,1.92,1.49,2.64,1.37,1.26,2.21,1.63,1.74,.56,2.7,.56c.55,0,1.06-.03,1.51-.08,.46-.05,.88-.15,1.27-.28,.39-.13,.76-.3,1.12-.51,.35-.21,.71-.47,1.07-.78,.14-.12,.3-.22,.47-.3s.34-.12,.52-.12Z"/><path class="cls-4" d="M220.31,182.96h9.72v4.86h-15.8v-26.23h6.08v21.37Z"/><path class="cls-4" d="M257.32,187.82h-4.72c-.53,0-.96-.12-1.3-.37-.34-.25-.58-.56-.71-.94l-1.55-4.57h-9.97l-1.55,4.57c-.12,.34-.35,.64-.7,.91-.35,.27-.77,.4-1.28,.4h-4.75l10.15-26.23h6.23l10.15,26.23Zm-16.85-10.03h7.16l-2.41-7.18c-.16-.46-.34-.99-.55-1.61s-.42-1.29-.62-2.01c-.19,.73-.39,1.41-.59,2.03s-.4,1.16-.58,1.62l-2.41,7.15Z"/><path class="cls-4" d="M274.06,166.92c-.18,.29-.37,.5-.57,.65s-.45,.22-.76,.22c-.28,0-.57-.09-.89-.26-.32-.17-.68-.37-1.08-.58-.4-.22-.86-.41-1.38-.58s-1.1-.26-1.76-.26c-1.14,0-1.99,.24-2.55,.73-.56,.49-.84,1.14-.84,1.97,0,.53,.17,.97,.5,1.31s.78,.65,1.32,.9c.55,.25,1.17,.48,1.87,.69,.7,.21,1.42,.44,2.15,.7,.73,.26,1.45,.56,2.15,.91s1.33,.79,1.87,1.33c.55,.54,.99,1.2,1.32,1.97s.5,1.71,.5,2.8c0,1.21-.21,2.35-.63,3.4-.42,1.06-1.03,1.98-1.83,2.76-.8,.79-1.78,1.4-2.95,1.85-1.17,.45-2.5,.68-3.99,.68-.82,0-1.65-.08-2.49-.25-.85-.17-1.67-.41-2.46-.71-.79-.31-1.54-.67-2.23-1.09-.7-.42-1.3-.89-1.82-1.4l1.8-2.84c.13-.22,.32-.39,.56-.52,.24-.13,.5-.2,.77-.2,.36,0,.72,.11,1.09,.34,.37,.23,.78,.48,1.24,.76s.99,.53,1.59,.76c.6,.23,1.31,.34,2.12,.34,1.1,0,1.96-.24,2.57-.73,.61-.49,.92-1.26,.92-2.31,0-.61-.17-1.11-.5-1.49-.34-.38-.78-.7-1.32-.95s-1.17-.47-1.86-.67c-.7-.19-1.41-.41-2.14-.64-.73-.23-1.45-.52-2.14-.86-.7-.34-1.32-.79-1.86-1.35s-.99-1.25-1.32-2.09-.5-1.86-.5-3.09c0-.98,.2-1.94,.59-2.88,.4-.94,.98-1.77,1.75-2.5,.77-.73,1.71-1.32,2.83-1.75s2.39-.66,3.83-.66c.8,0,1.59,.06,2.35,.19,.76,.13,1.48,.31,2.17,.56,.68,.25,1.32,.54,1.92,.88,.59,.34,1.12,.73,1.59,1.16l-1.51,2.83Z"/><path class="cls-4" d="M293.57,166.92c-.18,.29-.37,.5-.57,.65s-.45,.22-.76,.22c-.28,0-.57-.09-.89-.26-.32-.17-.68-.37-1.08-.58-.4-.22-.86-.41-1.38-.58s-1.1-.26-1.76-.26c-1.14,0-1.99,.24-2.55,.73-.56,.49-.84,1.14-.84,1.97,0,.53,.17,.97,.5,1.31s.78,.65,1.32,.9c.55,.25,1.17,.48,1.87,.69,.7,.21,1.42,.44,2.15,.7,.73,.26,1.45,.56,2.15,.91s1.33,.79,1.87,1.33c.55,.54,.99,1.2,1.32,1.97s.5,1.71,.5,2.8c0,1.21-.21,2.35-.63,3.4-.42,1.06-1.03,1.98-1.83,2.76-.8,.79-1.78,1.4-2.95,1.85-1.17,.45-2.5,.68-3.99,.68-.82,0-1.65-.08-2.49-.25-.85-.17-1.67-.41-2.46-.71-.79-.31-1.54-.67-2.23-1.09-.7-.42-1.3-.89-1.82-1.4l1.8-2.84c.13-.22,.32-.39,.56-.52,.24-.13,.5-.2,.77-.2,.36,0,.72,.11,1.09,.34,.37,.23,.78,.48,1.24,.76s.99,.53,1.59,.76c.6,.23,1.31,.34,2.12,.34,1.1,0,1.96-.24,2.57-.73,.61-.49,.92-1.26,.92-2.31,0-.61-.17-1.11-.5-1.49-.34-.38-.78-.7-1.32-.95s-1.17-.47-1.86-.67c-.7-.19-1.41-.41-2.14-.64-.73-.23-1.45-.52-2.14-.86-.7-.34-1.32-.79-1.86-1.35s-.99-1.25-1.32-2.09-.5-1.86-.5-3.09c0-.98,.2-1.94,.59-2.88,.4-.94,.98-1.77,1.75-2.5,.77-.73,1.71-1.32,2.83-1.75s2.39-.66,3.83-.66c.8,0,1.59,.06,2.35,.19,.76,.13,1.48,.31,2.17,.56,.68,.25,1.32,.54,1.92,.88,.59,.34,1.12,.73,1.59,1.16l-1.51,2.83Z"/><path class="cls-4" d="M331.3,174.7c0,1.9-.33,3.66-.98,5.29-.65,1.63-1.58,3.05-2.76,4.26-1.19,1.21-2.62,2.15-4.29,2.84-1.67,.68-3.53,1.03-5.57,1.03s-3.9-.34-5.58-1.03c-1.68-.68-3.12-1.63-4.31-2.84-1.19-1.21-2.12-2.62-2.77-4.26-.65-1.63-.98-3.4-.98-5.29s.33-3.66,.98-5.29c.65-1.63,1.58-3.05,2.77-4.25,1.19-1.2,2.63-2.14,4.31-2.83,1.68-.68,3.54-1.03,5.58-1.03s3.9,.35,5.57,1.04c1.67,.69,3.11,1.64,4.29,2.83,1.19,1.2,2.11,2.62,2.76,4.25,.65,1.63,.98,3.39,.98,5.27Zm-6.23,0c0-1.3-.17-2.46-.5-3.5-.34-1.04-.82-1.92-1.45-2.64-.63-.72-1.4-1.27-2.31-1.66-.91-.38-1.95-.58-3.11-.58s-2.22,.19-3.14,.58c-.92,.38-1.69,.94-2.32,1.66-.63,.72-1.11,1.6-1.45,2.64-.34,1.04-.5,2.21-.5,3.5s.17,2.48,.5,3.52c.33,1.04,.82,1.92,1.45,2.64,.63,.72,1.4,1.27,2.32,1.65s1.96,.57,3.14,.57,2.2-.19,3.11-.57,1.68-.93,2.31-1.65c.63-.72,1.11-1.6,1.45-2.64,.34-1.04,.5-2.21,.5-3.52Z"/><path class="cls-4" d="M351.1,161.6v4.68h-10.76v6.64h8.96v4.7h-8.96v10.21h-6.12v-26.23h16.88Z"/><path class="cls-4" d="M239.34,204.51c1.3,0,2.46,.19,3.5,.57,1.04,.38,1.92,.9,2.66,1.57,.73,.67,1.29,1.47,1.68,2.4,.39,.93,.58,1.95,.58,3.07,0,.96-.13,1.85-.4,2.66-.27,.82-.64,1.59-1.11,2.33-.47,.74-1.01,1.45-1.63,2.14-.62,.69-1.28,1.39-1.97,2.1l-5.13,5.26c.66-.19,1.31-.34,1.95-.46,.64-.11,1.25-.17,1.81-.17h4.9c.6,0,1.07,.17,1.42,.5,.35,.33,.52,.77,.52,1.3v3.24h-18.43v-1.8c0-.35,.07-.72,.22-1.12,.14-.4,.4-.76,.76-1.08l7.56-7.61c.65-.65,1.21-1.27,1.69-1.85,.48-.59,.88-1.17,1.19-1.74,.31-.57,.55-1.14,.7-1.71,.16-.57,.23-1.17,.23-1.81,0-1.04-.25-1.84-.75-2.4s-1.26-.84-2.28-.84c-.42,0-.8,.06-1.15,.18-.35,.12-.66,.28-.94,.49s-.51,.44-.71,.72c-.2,.28-.36,.58-.48,.9-.19,.54-.44,.93-.73,1.17s-.69,.36-1.2,.36c-.12,0-.25,0-.39-.02-.14-.01-.28-.03-.42-.05l-2.95-.52c.19-1.31,.56-2.45,1.11-3.42,.55-.97,1.22-1.78,2.03-2.43,.81-.65,1.74-1.13,2.78-1.45,1.04-.32,2.17-.48,3.37-.48Z"/><path class="cls-4" d="M269.54,217.9c0,2.29-.25,4.28-.74,5.96-.49,1.68-1.17,3.07-2.04,4.18s-1.9,1.93-3.1,2.47c-1.19,.54-2.49,.81-3.88,.81s-2.68-.27-3.86-.81-2.21-1.36-3.07-2.47c-.86-1.1-1.54-2.5-2.02-4.18-.49-1.68-.73-3.67-.73-5.96s.24-4.28,.73-5.96c.49-1.68,1.16-3.07,2.02-4.18,.86-1.1,1.89-1.92,3.07-2.46,1.18-.53,2.47-.8,3.86-.8s2.68,.27,3.88,.8c1.19,.53,2.23,1.35,3.1,2.46s1.55,2.5,2.04,4.18c.49,1.68,.74,3.67,.74,5.96Zm-5.76,0c0-1.81-.11-3.3-.34-4.46-.23-1.16-.53-2.07-.91-2.73-.38-.66-.81-1.11-1.29-1.36-.48-.25-.97-.37-1.46-.37s-.98,.12-1.45,.37c-.47,.25-.89,.7-1.26,1.36-.37,.66-.66,1.57-.88,2.73-.22,1.16-.33,2.64-.33,4.46s.11,3.31,.33,4.46c.22,1.15,.52,2.06,.88,2.73,.37,.67,.79,1.12,1.26,1.37,.47,.25,.96,.37,1.45,.37s.98-.12,1.46-.37c.48-.25,.91-.7,1.29-1.37s.68-1.57,.91-2.73c.23-1.15,.34-2.64,.34-4.46Z"/><path class="cls-4" d="M281.1,204.51c1.3,0,2.46,.19,3.5,.57,1.04,.38,1.92,.9,2.66,1.57,.73,.67,1.29,1.47,1.68,2.4,.39,.93,.58,1.95,.58,3.07,0,.96-.13,1.85-.4,2.66-.27,.82-.64,1.59-1.11,2.33-.47,.74-1.01,1.45-1.63,2.14-.62,.69-1.28,1.39-1.97,2.1l-5.13,5.26c.66-.19,1.31-.34,1.95-.46,.64-.11,1.25-.17,1.81-.17h4.9c.6,0,1.07,.17,1.42,.5,.35,.33,.52,.77,.52,1.3v3.24h-18.43v-1.8c0-.35,.07-.72,.22-1.12,.14-.4,.4-.76,.76-1.08l7.56-7.61c.65-.65,1.21-1.27,1.69-1.85,.48-.59,.88-1.17,1.19-1.74,.31-.57,.55-1.14,.7-1.71,.16-.57,.23-1.17,.23-1.81,0-1.04-.25-1.84-.75-2.4s-1.26-.84-2.28-.84c-.42,0-.8,.06-1.15,.18-.35,.12-.66,.28-.94,.49s-.51,.44-.71,.72c-.2,.28-.36,.58-.48,.9-.19,.54-.44,.93-.73,1.17s-.69,.36-1.2,.36c-.12,0-.25,0-.39-.02-.14-.01-.28-.03-.42-.05l-2.95-.52c.19-1.31,.56-2.45,1.11-3.42,.55-.97,1.22-1.78,2.03-2.43,.81-.65,1.74-1.13,2.78-1.45,1.04-.32,2.17-.48,3.37-.48Z"/><path class="cls-4" d="M303.53,214.41c.95,0,1.88,.16,2.81,.47,.92,.31,1.75,.79,2.48,1.44,.73,.65,1.32,1.47,1.77,2.46,.45,.99,.67,2.16,.67,3.5,0,1.22-.23,2.39-.68,3.48-.46,1.1-1.1,2.06-1.94,2.88-.83,.82-1.84,1.47-3.01,1.95-1.18,.48-2.48,.72-3.91,.72s-2.78-.23-3.94-.69c-1.16-.46-2.15-1.11-2.96-1.94-.81-.83-1.43-1.82-1.85-2.97s-.64-2.42-.64-3.8c0-1.31,.25-2.61,.76-3.91,.5-1.3,1.25-2.62,2.23-3.96l5.9-7.97c.26-.36,.66-.66,1.19-.91,.53-.25,1.13-.37,1.8-.37h4.97l-7.78,9.29c-.12,.13-.24,.27-.35,.4-.11,.14-.23,.27-.33,.41,.42-.16,.86-.28,1.32-.36,.46-.08,.96-.13,1.48-.13Zm-5.83,8.26c0,.65,.08,1.23,.23,1.75,.16,.52,.4,.96,.72,1.33s.73,.66,1.22,.85c.49,.2,1.07,.3,1.75,.3,.58,0,1.11-.11,1.61-.32,.5-.22,.93-.51,1.29-.89s.64-.82,.85-1.33c.21-.51,.32-1.06,.32-1.67,0-.67-.1-1.27-.3-1.8-.2-.53-.48-.97-.84-1.33-.36-.36-.79-.64-1.3-.83-.51-.19-1.08-.29-1.7-.29-.56,0-1.08,.1-1.55,.3-.47,.2-.87,.48-1.22,.85-.34,.37-.61,.82-.8,1.33-.19,.52-.29,1.1-.29,1.75Z"/></g></svg>