<svg id="Layer_1" xmlns="http://www.w3.org/2000/svg" viewBox="188.5 0 345.53 296.73">
  <defs>
    <style>
      .cls-1 {
        fill: #fff;
      }

      .cls-2 {
        fill: #55bc79;
      }

      .cls-3 {
        fill: none;
        stroke: #616161;
        ;
        stroke-miterlimit: 10;
        stroke-width: 3px;
      }

      .cls-4 {
        fill: #0ba757;
      }

      .cls-5 {
        fill: #1db662;
      }

      .cls-6 {
        fill: #fff;
      }
    </style>
  </defs>
  <line class="cls-3" x1="191.55" y1="37.41" x2="304.74" y2="37.41" />
  <line class="cls-3" x1="419.32" y1="37.41" x2="532.52" y2="37.41" />
  <path class="cls-6" d="M388.18,35.5l.09,19.76c.01,4.38-3.53,7.94-7.9,7.94h-39.55c-4.36,0-7.9-3.54-7.9-7.9v-19.8h-3.95c-2.23,0-3.96-1.74-3.96-3.96,0-1.11,.37-2.1,1.24-2.96L357.88,.99c.86-.87,1.85-.99,2.72-.99s1.85,.25,2.6,.87l13.15,11.56V7.9c0-2.18,1.77-3.95,3.95-3.95h3.95c2.18,0,3.95,1.77,3.95,3.95v14.94l6.52,5.74c.99,.86,1.49,1.85,1.36,2.96,0,2.22-1.85,3.96-3.95,3.96h-3.95Zm-27.62,.05c4.36,0,7.9-3.54,7.9-7.9s-3.54-7.9-7.9-7.9-7.9,3.54-7.9,7.9,3.54,7.9,7.9,7.9Zm-11.85,15.8h23.7c1.09,0,1.97-.89,1.97-1.97,0-5.46-4.42-9.87-9.87-9.87h-7.9c-5.46,0-9.87,4.42-9.87,9.87,0,1.09,.89,1.97,1.97,1.97Z" />
  <g>
    <path class="cls-1" d="M206.82,80.4v2.77h-12.04v8.77h10.29v2.77h-10.29v10.78h-3.41v-25.08h15.45Z" />
    <path class="cls-1" d="M209.64,105.47v-17.73h1.78c.34,0,.57,.06,.7,.19,.13,.13,.22,.35,.26,.67l.21,2.77c.61-1.24,1.36-2.2,2.25-2.9,.89-.69,1.94-1.04,3.14-1.04,.49,0,.93,.06,1.33,.17,.4,.11,.76,.27,1.1,.46l-.4,2.33c-.08,.29-.26,.44-.54,.44-.16,0-.41-.06-.75-.17-.34-.11-.81-.17-1.42-.17-1.09,0-1.99,.31-2.72,.94-.73,.63-1.34,1.55-1.83,2.75v11.29h-3.11Z" />
    <path class="cls-1" d="M230.92,87.47c1.29,0,2.46,.22,3.51,.65,1.04,.43,1.93,1.04,2.66,1.84,.73,.79,1.29,1.75,1.68,2.88s.59,2.38,.59,3.77-.2,2.66-.59,3.78c-.39,1.12-.95,2.08-1.68,2.87-.73,.79-1.62,1.4-2.66,1.83-1.04,.43-2.21,.64-3.51,.64s-2.46-.21-3.51-.64c-1.04-.43-1.93-1.04-2.67-1.83-.74-.79-1.3-1.75-1.7-2.87-.4-1.12-.6-2.38-.6-3.78s.2-2.65,.6-3.77c.4-1.13,.96-2.09,1.7-2.88,.73-.79,1.62-1.41,2.67-1.84,1.04-.43,2.21-.65,3.51-.65Zm0,15.82c1.75,0,3.06-.59,3.92-1.76s1.29-2.81,1.29-4.91-.43-3.76-1.29-4.94c-.86-1.18-2.17-1.77-3.92-1.77-.89,0-1.66,.15-2.31,.46-.65,.3-1.2,.74-1.64,1.31-.44,.57-.76,1.27-.98,2.11s-.32,1.78-.32,2.83,.11,1.99,.32,2.82c.22,.83,.54,1.53,.98,2.09s.98,1,1.64,1.3c.65,.3,1.42,.46,2.31,.46Z" />
    <path class="cls-1" d="M243.2,105.47v-17.73h1.85c.44,0,.72,.22,.84,.65l.23,1.82c.65-.81,1.39-1.46,2.2-1.98,.81-.51,1.75-.77,2.83-.77,1.2,0,2.17,.33,2.91,1,.74,.66,1.27,1.56,1.6,2.69,.24-.64,.57-1.2,.97-1.66,.4-.47,.85-.85,1.36-1.15s1.04-.53,1.6-.67c.57-.14,1.14-.21,1.72-.21,.93,0,1.76,.15,2.49,.45,.73,.3,1.35,.73,1.85,1.3,.51,.57,.9,1.27,1.16,2.11,.27,.83,.4,1.79,.4,2.86v11.29h-3.12v-11.29c0-1.39-.3-2.44-.91-3.16-.61-.72-1.49-1.08-2.64-1.08-.51,0-1,.09-1.46,.27-.46,.18-.87,.45-1.22,.8-.35,.35-.63,.79-.83,1.32-.2,.53-.31,1.15-.31,1.85v11.29h-3.12v-11.29c0-1.42-.29-2.48-.86-3.19-.57-.7-1.41-1.05-2.5-1.05-.77,0-1.48,.21-2.14,.62-.66,.41-1.26,.98-1.81,1.69v13.21h-3.11Z" />
    <path class="cls-2" d="M295.37,98.88c.14,0,.28,.03,.42,.08,.14,.05,.27,.14,.4,.27l2.34,2.47c-1.03,1.34-2.31,2.35-3.86,3.04s-3.37,1.02-5.49,1.02c-1.94,0-3.67-.33-5.21-.99-1.53-.66-2.83-1.57-3.9-2.73-1.07-1.16-1.89-2.54-2.46-4.13-.57-1.59-.86-3.32-.86-5.19s.33-3.65,.98-5.24c.65-1.59,1.57-2.97,2.74-4.12,1.17-1.15,2.58-2.05,4.21-2.69,1.63-.64,3.44-.96,5.41-.96,.96,0,1.86,.08,2.7,.25,.85,.17,1.64,.4,2.37,.7s1.41,.65,2.03,1.07c.62,.41,1.17,.87,1.65,1.37l-1.99,2.68c-.13,.16-.28,.31-.46,.45-.18,.13-.42,.2-.74,.2-.21,0-.41-.05-.59-.14-.19-.09-.39-.21-.6-.34s-.44-.28-.69-.44c-.25-.16-.55-.3-.89-.44-.34-.13-.75-.25-1.21-.34-.46-.09-1-.14-1.62-.14-1.07,0-2.05,.19-2.94,.57-.89,.38-1.65,.92-2.28,1.63-.64,.71-1.13,1.56-1.49,2.56s-.53,2.13-.53,3.38,.18,2.47,.53,3.48,.84,1.87,1.45,2.56c.61,.69,1.33,1.22,2.14,1.58,.82,.36,1.69,.54,2.62,.54,.54,0,1.03-.03,1.47-.08,.44-.05,.85-.14,1.23-.27,.38-.13,.74-.29,1.08-.5s.69-.46,1.04-.76c.14-.12,.29-.21,.46-.29,.16-.08,.33-.11,.51-.11Z" />
    <path class="cls-2" d="M323.49,105.47h-5.95v-10.78h-10.36v10.78h-5.95v-25.5h5.95v10.66h10.36v-10.66h5.95v25.5Z" />
    <path class="cls-2" d="M344.11,79.98v4.55h-10.47v5.95h8.02v4.38h-8.02v6.07h10.47v4.55h-16.42v-25.5h16.42Z" />
    <path class="cls-2" d="M351.23,80.01c.17,.02,.33,.07,.47,.13s.27,.15,.4,.27c.13,.12,.27,.27,.44,.47l12.11,15.31c-.05-.49-.08-.97-.11-1.43s-.04-.9-.04-1.3v-13.49h5.22v25.5h-3.08c-.46,0-.84-.07-1.16-.21s-.62-.4-.91-.77l-12.02-15.19c.04,.44,.06,.88,.09,1.3s.04,.83,.04,1.2v13.67h-5.22v-25.5h3.12c.26,0,.47,.01,.65,.04Z" />
    <path class="cls-2" d="M390.34,79.98v4.55h-10.46v5.95h8.02v4.38h-8.02v6.07h10.46v4.55h-16.42v-25.5h16.42Z" />
    <path class="cls-2" d="M406.41,95.78v9.69h-5.92v-9.69l-9.24-15.8h5.21c.51,0,.92,.12,1.22,.36s.55,.55,.74,.92l3.6,7.42c.29,.59,.56,1.14,.81,1.65s.46,1,.65,1.49c.17-.5,.38-1,.63-1.5s.51-1.04,.79-1.63l3.57-7.42c.07-.15,.17-.3,.29-.45,.12-.15,.26-.29,.42-.41,.16-.12,.34-.22,.54-.3,.2-.08,.43-.11,.67-.11h5.25l-9.24,15.8Z" />
    <path class="cls-2" d="M188.5,121.98h4.97c.51,0,.94,.12,1.29,.35s.57,.54,.67,.93l3.5,13.3c.12,.43,.23,.89,.35,1.38,.12,.49,.2,1,.26,1.54,.12-.55,.25-1.06,.39-1.55,.14-.48,.27-.94,.4-1.37l4.13-13.3c.11-.33,.33-.62,.67-.88,.34-.26,.76-.39,1.25-.39h1.75c.51,0,.94,.11,1.27,.34s.56,.54,.69,.94l4.1,13.3c.13,.41,.26,.84,.4,1.3s.26,.95,.37,1.48c.09-.51,.19-1,.29-1.47s.2-.9,.31-1.31l3.5-13.3c.09-.34,.31-.64,.67-.89,.35-.26,.77-.39,1.26-.39h4.66l-7.88,25.5h-5.35l-4.79-15.8c-.08-.24-.17-.51-.25-.8s-.17-.6-.25-.93c-.08,.33-.17,.64-.25,.93-.09,.29-.17,.56-.25,.8l-4.87,15.8h-5.35l-7.88-25.5Z" />
    <path class="cls-2" d="M249.19,147.47h-4.58c-.51,0-.94-.12-1.27-.36-.33-.24-.56-.54-.69-.92l-1.51-4.45h-9.69l-1.5,4.45c-.12,.33-.34,.62-.68,.88-.34,.26-.75,.39-1.24,.39h-4.62l9.87-25.5h6.06l9.87,25.5Zm-16.38-9.75h6.96l-2.35-6.98c-.15-.44-.33-.97-.53-1.57-.2-.6-.41-1.25-.6-1.95-.19,.71-.38,1.37-.58,1.98-.2,.61-.38,1.13-.56,1.58l-2.34,6.95Z" />
    <path class="cls-2" d="M265.46,127.16c-.18,.28-.36,.49-.55,.63s-.44,.21-.74,.21c-.27,0-.56-.08-.87-.25-.31-.17-.66-.36-1.05-.57-.39-.21-.84-.4-1.34-.57-.5-.17-1.07-.25-1.71-.25-1.11,0-1.93,.24-2.48,.71-.54,.47-.81,1.11-.81,1.92,0,.51,.16,.94,.49,1.28,.33,.34,.75,.63,1.29,.88,.53,.25,1.14,.47,1.82,.67,.68,.2,1.38,.43,2.09,.68,.71,.25,1.41,.55,2.09,.88s1.29,.77,1.82,1.29,.96,1.16,1.29,1.92c.33,.75,.49,1.66,.49,2.72,0,1.18-.2,2.28-.61,3.31-.41,1.03-1,1.92-1.78,2.69s-1.73,1.36-2.87,1.8c-1.14,.44-2.43,.66-3.88,.66-.79,0-1.6-.08-2.42-.24-.82-.16-1.62-.39-2.39-.69s-1.49-.65-2.17-1.06c-.68-.41-1.27-.86-1.77-1.37l1.75-2.77c.13-.21,.31-.38,.54-.51,.23-.13,.48-.19,.75-.19,.35,0,.7,.11,1.06,.33s.76,.47,1.21,.73c.45,.27,.97,.51,1.55,.73,.58,.22,1.27,.33,2.06,.33,1.07,0,1.91-.24,2.5-.71,.6-.47,.89-1.22,.89-2.25,0-.59-.16-1.08-.49-1.45-.33-.37-.76-.68-1.29-.93s-1.13-.46-1.81-.65c-.68-.19-1.37-.39-2.08-.62-.71-.23-1.41-.51-2.08-.84-.68-.33-1.28-.77-1.81-1.31-.53-.54-.96-1.22-1.29-2.03-.33-.81-.49-1.81-.49-3,0-.96,.19-1.89,.58-2.8,.38-.91,.95-1.72,1.7-2.43,.75-.71,1.66-1.28,2.75-1.71s2.33-.64,3.73-.64c.78,0,1.54,.06,2.28,.18,.74,.12,1.44,.3,2.11,.54,.67,.24,1.29,.52,1.86,.86,.58,.33,1.09,.71,1.55,1.13l-1.47,2.75Z" />
    <path class="cls-2" d="M292.48,147.47h-5.95v-10.78h-10.36v10.78h-5.95v-25.5h5.95v10.66h10.36v-10.66h5.95v25.5Z" />
    <path class="cls-2" d="M303.16,147.47h-5.95v-25.5h5.95v25.5Z" />
    <path class="cls-2" d="M311.64,122.01c.18,.02,.33,.07,.47,.13s.27,.15,.4,.27c.13,.12,.27,.27,.44,.47l12.11,15.31c-.05-.49-.08-.97-.1-1.43-.02-.46-.04-.9-.04-1.3v-13.49h5.21v25.5h-3.08c-.45,0-.84-.07-1.15-.21s-.62-.4-.91-.77l-12.02-15.19c.04,.44,.06,.88,.09,1.3s.04,.83,.04,1.2v13.67h-5.21v-25.5h3.11c.26,0,.47,.01,.65,.04Z" />
    <path class="cls-2" d="M346.35,143.2c.82,0,1.54-.07,2.17-.21,.63-.14,1.22-.33,1.78-.56v-3.87h-2.52c-.37,0-.67-.1-.88-.3-.21-.2-.32-.45-.32-.75v-3.25h9.07v10.76c-.65,.48-1.33,.89-2.04,1.23-.71,.34-1.46,.63-2.26,.85-.8,.22-1.65,.39-2.56,.49s-1.88,.16-2.91,.16c-1.87,0-3.59-.33-5.18-.99-1.59-.66-2.96-1.57-4.12-2.73-1.16-1.16-2.07-2.54-2.73-4.13-.66-1.59-.99-3.32-.99-5.19s.31-3.65,.95-5.24c.63-1.59,1.53-2.97,2.7-4.12,1.17-1.15,2.59-2.05,4.25-2.69s3.52-.96,5.57-.96c1.06,0,2.06,.09,2.99,.26,.93,.18,1.79,.41,2.58,.72s1.51,.67,2.16,1.08,1.24,.88,1.75,1.36l-1.71,2.61c-.16,.25-.36,.44-.59,.58s-.48,.21-.74,.21c-.35,0-.71-.12-1.08-.35-.47-.28-.91-.52-1.32-.73s-.84-.37-1.27-.5-.89-.22-1.37-.28c-.48-.06-1.01-.09-1.61-.09-1.11,0-2.11,.2-2.99,.59-.89,.39-1.64,.94-2.27,1.65-.62,.71-1.11,1.57-1.44,2.56s-.51,2.11-.51,3.33c0,1.35,.19,2.55,.56,3.6,.37,1.05,.89,1.94,1.55,2.66,.66,.72,1.44,1.27,2.34,1.65,.9,.38,1.89,.57,2.97,.57Z" />
    <path class="cls-2" d="M377.78,121.98v4.69h-7.17v20.81h-5.92v-20.81h-7.18v-4.69h20.27Z" />
    <path class="cls-2" d="M404.34,134.72c0,1.84-.32,3.56-.95,5.15-.64,1.59-1.53,2.97-2.69,4.14-1.16,1.17-2.55,2.09-4.17,2.76-1.63,.66-3.43,1-5.42,1s-3.79-.33-5.42-1c-1.63-.67-3.03-1.58-4.19-2.76-1.16-1.17-2.06-2.55-2.7-4.14-.64-1.59-.95-3.3-.95-5.15s.32-3.56,.95-5.15,1.53-2.96,2.7-4.13c1.16-1.17,2.56-2.08,4.19-2.75,1.63-.67,3.44-1,5.42-1s3.79,.34,5.42,1.01c1.63,.67,3.02,1.59,4.17,2.76,1.16,1.17,2.05,2.54,2.69,4.13,.64,1.59,.95,3.3,.95,5.13Zm-6.05,0c0-1.26-.16-2.39-.49-3.4-.33-1.01-.8-1.86-1.41-2.56-.61-.7-1.36-1.24-2.25-1.61-.89-.37-1.9-.56-3.03-.56s-2.16,.19-3.05,.56c-.89,.37-1.65,.91-2.26,1.61-.61,.7-1.08,1.55-1.41,2.56-.33,1.01-.49,2.14-.49,3.4s.16,2.41,.49,3.42c.33,1.01,.8,1.86,1.41,2.56s1.37,1.23,2.26,1.6c.89,.37,1.91,.55,3.05,.55s2.14-.18,3.03-.55c.89-.37,1.64-.9,2.25-1.6s1.08-1.55,1.41-2.56c.33-1.01,.49-2.15,.49-3.42Z" />
    <path class="cls-2" d="M410.94,122.01c.17,.02,.33,.07,.47,.13s.27,.15,.4,.27c.13,.12,.27,.27,.44,.47l12.11,15.31c-.05-.49-.08-.97-.11-1.43s-.04-.9-.04-1.3v-13.49h5.22v25.5h-3.08c-.46,0-.84-.07-1.16-.21s-.62-.4-.91-.77l-12.02-15.19c.04,.44,.06,.88,.09,1.3s.04,.83,.04,1.2v13.67h-5.22v-25.5h3.12c.26,0,.47,.01,.65,.04Z" />
  </g>
  <g>
    <path class="cls-4" d="M469.88,80.01c2.16,0,4.08,.31,5.76,.92,1.68,.61,3.1,1.44,4.26,2.48s2.04,2.25,2.64,3.61c.6,1.37,.9,2.82,.9,4.33,0,1.38-.14,2.6-.42,3.65-.28,1.05-.7,1.96-1.25,2.73-.55,.77-1.23,1.43-2.04,1.97-.81,.54-1.74,.99-2.77,1.35,4.84,1.68,7.26,4.97,7.26,9.87,0,2.32-.42,4.34-1.26,6.06-.84,1.72-1.97,3.15-3.38,4.29-1.41,1.14-3.05,2-4.91,2.56-1.86,.57-3.8,.85-5.82,.85s-3.93-.23-5.55-.67c-1.62-.45-3.06-1.15-4.32-2.1-1.26-.95-2.37-2.16-3.31-3.65-.95-1.48-1.78-3.24-2.48-5.28l4.14-1.68c.36-.16,.71-.27,1.06-.33s.7-.09,1.04-.09c.64,0,1.21,.12,1.72,.38,.51,.25,.9,.61,1.16,1.09,.9,1.66,1.86,2.87,2.87,3.62s2.19,1.12,3.55,1.12c1.04,0,1.95-.17,2.71-.52,.77-.35,1.41-.8,1.92-1.35,.51-.55,.9-1.17,1.16-1.88s.39-1.41,.39-2.13c0-.94-.07-1.78-.2-2.53-.13-.75-.5-1.4-1.09-1.94-.6-.54-1.51-.96-2.72-1.25-1.21-.29-2.89-.44-5.05-.44v-6.42c1.82,0,3.29-.14,4.41-.42,1.12-.28,1.98-.66,2.59-1.15s1.01-1.08,1.21-1.79c.2-.7,.3-1.47,.3-2.31,0-1.72-.42-3.04-1.25-3.98-.83-.93-2.1-1.4-3.79-1.4-.7,0-1.34,.1-1.92,.3-.58,.2-1.1,.47-1.56,.81-.46,.34-.85,.74-1.18,1.2-.33,.46-.6,.96-.79,1.5-.32,.9-.73,1.55-1.22,1.95-.49,.4-1.15,.6-1.99,.6-.2,0-.42,0-.65-.03-.23-.02-.46-.05-.71-.09l-4.92-.87c.32-2.18,.93-4.08,1.84-5.7,.91-1.62,2.04-2.97,3.39-4.05,1.35-1.08,2.89-1.88,4.63-2.42,1.74-.53,3.61-.79,5.61-.79Z" />
    <path class="cls-4" d="M487.57,119.49c0-.72,.13-1.39,.41-2.01,.27-.62,.64-1.16,1.11-1.62,.47-.46,1.02-.83,1.67-1.1,.64-.27,1.34-.4,2.1-.4s1.43,.13,2.07,.4c.64,.27,1.2,.64,1.68,1.1,.48,.46,.85,1,1.12,1.62,.27,.62,.41,1.29,.41,2.01s-.14,1.4-.41,2.02c-.27,.63-.65,1.18-1.12,1.64-.48,.46-1.04,.82-1.68,1.08-.64,.26-1.33,.39-2.07,.39s-1.46-.13-2.1-.39c-.64-.26-1.2-.62-1.67-1.08-.47-.46-.84-1.01-1.11-1.64-.27-.63-.41-1.31-.41-2.02Z" />
    <path class="cls-4" d="M517.33,124.68c-2.32,0-4.44-.31-6.36-.93-1.92-.62-3.57-1.49-4.93-2.62-1.37-1.13-2.43-2.49-3.18-4.09s-1.12-3.38-1.12-5.34c0-1.18,.13-2.3,.41-3.35,.27-1.05,.7-2.01,1.29-2.88,.59-.87,1.35-1.65,2.28-2.33,.93-.68,2.05-1.25,3.38-1.71-2-.9-3.49-2.15-4.46-3.75-.97-1.6-1.46-3.52-1.46-5.76,0-1.7,.35-3.27,1.05-4.73s1.68-2.7,2.94-3.77c1.26-1.06,2.75-1.89,4.48-2.5,1.73-.61,3.62-.92,5.69-.92s3.95,.31,5.68,.92c1.73,.61,3.22,1.44,4.49,2.5,1.26,1.06,2.24,2.31,2.94,3.77s1.05,3.03,1.05,4.73c0,2.24-.49,4.16-1.47,5.76-.98,1.6-2.46,2.85-4.44,3.75,1.3,.46,2.42,1.03,3.34,1.71,.93,.68,1.69,1.46,2.28,2.33,.59,.87,1.02,1.83,1.3,2.88,.28,1.05,.42,2.17,.42,3.35,0,1.96-.38,3.74-1.12,5.34s-1.81,2.97-3.18,4.09c-1.37,1.13-3.02,2.01-4.94,2.62-1.92,.62-4.04,.93-6.36,.93Zm0-7.02c1.04,0,1.94-.16,2.7-.48,.76-.32,1.38-.75,1.88-1.31,.49-.55,.85-1.2,1.08-1.95,.23-.75,.35-1.56,.35-2.42,0-.94-.1-1.8-.3-2.58s-.53-1.44-.99-2c-.46-.55-1.08-.98-1.85-1.29-.77-.31-1.72-.46-2.86-.46s-2.1,.16-2.87,.46c-.77,.31-1.39,.74-1.84,1.29-.46,.55-.79,1.22-.99,2-.2,.78-.3,1.64-.3,2.58,0,.86,.11,1.67,.34,2.42,.23,.75,.59,1.4,1.08,1.95,.49,.55,1.11,.99,1.86,1.31,.75,.32,1.66,.48,2.72,.48Zm0-19.56c1.04,0,1.89-.17,2.55-.51,.66-.34,1.18-.79,1.56-1.35,.38-.56,.64-1.2,.78-1.92,.14-.72,.21-1.46,.21-2.22,0-.68-.09-1.34-.27-1.98-.18-.64-.48-1.2-.89-1.69-.41-.49-.94-.89-1.59-1.19-.65-.3-1.44-.45-2.35-.45s-1.73,.15-2.37,.45c-.64,.3-1.17,.7-1.58,1.19-.41,.49-.71,1.06-.88,1.69-.18,.64-.27,1.3-.27,1.98,0,.76,.07,1.5,.21,2.22,.14,.72,.4,1.36,.78,1.92,.38,.56,.9,1.01,1.56,1.35,.66,.34,1.51,.51,2.55,.51Z" />
    <path class="cls-1" d="M495.67,174.38c1.4,0,2.64-.12,3.72-.36,1.08-.24,2.1-.56,3.06-.96v-6.63h-4.32c-.64,0-1.14-.17-1.5-.51-.36-.34-.54-.77-.54-1.29v-5.58h15.54v18.45c-1.12,.82-2.29,1.53-3.5,2.12-1.21,.59-2.5,1.08-3.87,1.46-1.37,.38-2.83,.66-4.38,.84s-3.21,.27-4.99,.27c-3.2,0-6.16-.56-8.88-1.69s-5.07-2.69-7.06-4.68c-1.99-1.99-3.55-4.35-4.68-7.08-1.13-2.73-1.7-5.69-1.7-8.9s.54-6.25,1.62-8.98,2.62-5.08,4.63-7.06,4.44-3.52,7.29-4.62c2.85-1.1,6.04-1.65,9.55-1.65,1.82,0,3.53,.15,5.13,.45,1.6,.3,3.08,.71,4.43,1.23,1.35,.52,2.58,1.14,3.71,1.86,1.12,.72,2.12,1.5,3,2.34l-2.94,4.47c-.28,.42-.62,.75-1,.99-.39,.24-.82,.36-1.28,.36-.6,0-1.22-.2-1.86-.6-.8-.48-1.56-.9-2.27-1.25-.71-.35-1.43-.63-2.17-.85-.74-.22-1.52-.38-2.34-.48-.82-.1-1.74-.15-2.76-.15-1.9,0-3.61,.33-5.13,1-1.52,.67-2.82,1.62-3.89,2.83-1.07,1.22-1.89,2.69-2.47,4.4s-.87,3.61-.87,5.71c0,2.32,.32,4.38,.96,6.18,.64,1.8,1.53,3.32,2.66,4.56,1.13,1.24,2.47,2.19,4.02,2.83s3.25,.98,5.08,.98Z" />
    <path class="cls-1" d="M487.46,224.59v14.61h-10.14v-43.71h15.42c3.08,0,5.73,.37,7.94,1.09,2.21,.73,4.03,1.74,5.46,3.02,1.43,1.28,2.48,2.79,3.17,4.53,.68,1.74,1.02,3.62,1.02,5.64,0,2.18-.35,4.18-1.05,6-.7,1.82-1.77,3.38-3.21,4.68-1.44,1.3-3.27,2.31-5.47,3.04-2.21,.73-4.83,1.1-7.85,1.1h-5.28Zm0-7.65h5.28c2.64,0,4.54-.63,5.7-1.89,1.16-1.26,1.74-3.02,1.74-5.28,0-1-.15-1.91-.45-2.73-.3-.82-.75-1.52-1.37-2.11-.61-.59-1.38-1.04-2.31-1.37-.93-.32-2.04-.48-3.32-.48h-5.28v13.86Z" />
    <path class="cls-1" d="M515.03,296.7h-7.86c-.88,0-1.6-.21-2.17-.62-.57-.41-.96-.93-1.19-1.58l-2.58-7.62h-16.62l-2.58,7.62c-.2,.56-.59,1.07-1.17,1.52-.58,.45-1.29,.67-2.13,.67h-7.92l16.92-43.71h10.38l16.92,43.71Zm-28.08-16.71h11.94l-4.02-11.97c-.26-.76-.57-1.66-.92-2.69-.35-1.03-.7-2.14-1.04-3.34-.32,1.22-.65,2.35-.99,3.39-.34,1.04-.66,1.94-.96,2.7l-4.02,11.91Z" />
  </g>
  <g>
    <path class="cls-1" d="M239.64,206.28c.7,0,1.33-.03,1.92-.1,.58-.07,1.13-.16,1.65-.3,.52-.13,1-.29,1.46-.48,.46-.19,.91-.4,1.37-.64v-5.69h-4c-.23,0-.41-.07-.55-.2-.14-.13-.21-.29-.21-.49v-1.98h7.92v9.9c-.65,.47-1.32,.88-2.02,1.22s-1.45,.64-2.25,.87c-.8,.23-1.65,.41-2.56,.52-.91,.11-1.9,.17-2.97,.17-1.87,0-3.59-.32-5.15-.96s-2.9-1.54-4.03-2.7c-1.13-1.16-2.01-2.55-2.64-4.17s-.94-3.4-.94-5.35,.31-3.76,.93-5.38,1.5-3.01,2.65-4.17c1.15-1.16,2.53-2.05,4.16-2.69,1.63-.64,3.45-.95,5.46-.95,1.02,0,1.97,.08,2.84,.23,.88,.15,1.69,.37,2.44,.65,.75,.28,1.44,.62,2.08,1.03,.64,.4,1.23,.85,1.78,1.36l-.99,1.58c-.2,.32-.47,.49-.79,.49-.19,0-.4-.07-.63-.2-.3-.17-.64-.37-1.01-.61-.37-.24-.83-.47-1.36-.69-.53-.22-1.16-.41-1.89-.57-.73-.16-1.59-.23-2.58-.23-1.45,0-2.77,.24-3.94,.71-1.18,.47-2.18,1.15-3.01,2.03-.83,.88-1.46,1.95-1.91,3.2-.44,1.25-.67,2.66-.67,4.22s.23,3.09,.69,4.37,1.11,2.36,1.95,3.25c.84,.89,1.84,1.57,2.99,2.03,1.15,.47,2.42,.7,3.82,.7Z" />
    <path class="cls-1" d="M254.06,208.82v-18.23h1.84c.35,0,.59,.07,.72,.2,.13,.13,.22,.36,.27,.68l.22,2.84c.62-1.27,1.4-2.27,2.31-2.98s2-1.07,3.23-1.07c.5,0,.96,.06,1.37,.17,.41,.11,.79,.27,1.13,.48l-.41,2.39c-.08,.3-.27,.45-.56,.45-.17,0-.43-.06-.77-.17-.35-.11-.83-.17-1.46-.17-1.12,0-2.05,.32-2.8,.97s-1.38,1.59-1.88,2.83v11.61h-3.2Z" />
    <path class="cls-1" d="M281.28,208.82h-1.42c-.31,0-.56-.05-.76-.14-.19-.1-.32-.3-.38-.61l-.36-1.69c-.48,.43-.95,.82-1.4,1.16-.46,.34-.94,.63-1.44,.86-.5,.23-1.04,.41-1.61,.53-.57,.12-1.2,.18-1.9,.18s-1.37-.1-1.99-.3c-.62-.2-1.16-.5-1.61-.89s-.82-.9-1.09-1.51c-.27-.61-.41-1.33-.41-2.16,0-.72,.2-1.42,.59-2.09,.4-.67,1.04-1.26,1.92-1.78,.88-.52,2.04-.94,3.46-1.27,1.43-.33,3.17-.5,5.24-.5v-1.43c0-1.42-.3-2.5-.91-3.23-.61-.73-1.5-1.1-2.69-1.1-.78,0-1.44,.1-1.97,.3-.53,.2-1,.42-1.39,.67-.39,.25-.73,.47-1.01,.67-.28,.2-.56,.3-.84,.3-.22,0-.4-.06-.57-.17-.16-.11-.29-.25-.39-.42l-.58-1.03c1.01-.97,2.09-1.7,3.26-2.18s2.45-.72,3.87-.72c1.02,0,1.93,.17,2.72,.5,.79,.34,1.46,.8,2,1.4s.95,1.33,1.22,2.18c.28,.85,.41,1.79,.41,2.81v11.66Zm-8.32-1.96c.56,0,1.08-.06,1.55-.17,.47-.11,.91-.28,1.32-.49,.41-.21,.81-.46,1.19-.76,.38-.3,.75-.64,1.11-1.03v-3.76c-1.48,0-2.73,.09-3.76,.28s-1.87,.43-2.52,.73c-.65,.3-1.12,.66-1.41,1.07s-.44,.87-.44,1.38,.08,.9,.23,1.25c.16,.35,.37,.64,.63,.86,.26,.22,.58,.39,.94,.49,.36,.1,.75,.15,1.17,.15Z" />
    <path class="cls-1" d="M298.97,208.82c-.46,0-.74-.22-.86-.67l-.29-2.21c-.78,.95-1.67,1.71-2.67,2.28-1,.57-2.15,.85-3.45,.85-1.04,0-1.99-.2-2.84-.6-.85-.4-1.58-.99-2.18-1.77-.6-.78-1.06-1.75-1.39-2.92-.32-1.16-.49-2.5-.49-4.01,0-1.34,.18-2.59,.54-3.75,.36-1.16,.88-2.16,1.56-3.01,.68-.85,1.5-1.52,2.48-2.01,.97-.49,2.08-.73,3.31-.73,1.12,0,2.07,.19,2.86,.57,.79,.38,1.5,.91,2.12,1.59v-10.12h3.2v26.51h-1.91Zm-6.21-2.34c1.04,0,1.96-.24,2.75-.72,.79-.48,1.51-1.16,2.17-2.03v-8.82c-.59-.79-1.23-1.35-1.94-1.67-.7-.32-1.48-.48-2.33-.48-1.7,0-3.01,.61-3.92,1.82-.91,1.21-1.37,2.94-1.37,5.18,0,1.19,.1,2.21,.31,3.05,.2,.85,.5,1.54,.9,2.09,.4,.55,.88,.94,1.46,1.2,.58,.25,1.24,.38,1.98,.38Z" />
    <path class="cls-1" d="M309.03,190.59v11.63c0,1.38,.32,2.45,.95,3.2,.64,.76,1.6,1.13,2.88,1.13,.94,0,1.82-.22,2.65-.67,.83-.44,1.59-1.06,2.29-1.85v-13.45h3.2v18.23h-1.91c-.46,0-.74-.22-.86-.67l-.25-1.96c-.79,.88-1.68,1.58-2.66,2.11-.98,.53-2.11,.8-3.38,.8-1,0-1.88-.17-2.64-.5-.76-.33-1.4-.79-1.92-1.4-.52-.6-.9-1.33-1.16-2.18-.26-.85-.39-1.79-.39-2.83v-11.63h3.2Z" />
    <path class="cls-1" d="M339.67,208.82h-1.42c-.31,0-.56-.05-.76-.14-.19-.1-.32-.3-.38-.61l-.36-1.69c-.48,.43-.95,.82-1.4,1.16-.46,.34-.94,.63-1.44,.86-.5,.23-1.04,.41-1.61,.53-.57,.12-1.2,.18-1.9,.18s-1.37-.1-1.99-.3c-.62-.2-1.16-.5-1.61-.89s-.82-.9-1.09-1.51c-.27-.61-.41-1.33-.41-2.16,0-.72,.2-1.42,.59-2.09,.4-.67,1.04-1.26,1.92-1.78,.88-.52,2.04-.94,3.46-1.27,1.43-.33,3.17-.5,5.24-.5v-1.43c0-1.42-.3-2.5-.91-3.23-.61-.73-1.5-1.1-2.69-1.1-.78,0-1.44,.1-1.97,.3-.53,.2-1,.42-1.39,.67-.39,.25-.73,.47-1.01,.67-.28,.2-.56,.3-.84,.3-.22,0-.4-.06-.57-.17-.16-.11-.29-.25-.39-.42l-.58-1.03c1.01-.97,2.09-1.7,3.26-2.18s2.45-.72,3.87-.72c1.02,0,1.93,.17,2.72,.5,.79,.34,1.46,.8,2,1.4s.95,1.33,1.22,2.18c.28,.85,.41,1.79,.41,2.81v11.66Zm-8.32-1.96c.56,0,1.08-.06,1.55-.17,.47-.11,.91-.28,1.32-.49,.41-.21,.81-.46,1.19-.76,.38-.3,.75-.64,1.11-1.03v-3.76c-1.48,0-2.73,.09-3.76,.28s-1.87,.43-2.52,.73c-.65,.3-1.12,.66-1.41,1.07s-.44,.87-.44,1.38,.08,.9,.23,1.25c.16,.35,.37,.64,.63,.86,.26,.22,.58,.39,.94,.49,.36,.1,.75,.15,1.17,.15Z" />
    <path class="cls-1" d="M350.05,209.11c-1.44,0-2.55-.4-3.32-1.21-.77-.8-1.16-1.96-1.16-3.47v-11.16h-2.2c-.19,0-.35-.06-.49-.17-.13-.11-.2-.29-.2-.53v-1.28l2.99-.38,.74-5.63c.02-.18,.1-.33,.23-.44,.13-.11,.3-.17,.5-.17h1.62v6.28h5.22v2.32h-5.22v10.94c0,.77,.19,1.34,.56,1.71,.37,.37,.85,.56,1.44,.56,.34,0,.63-.04,.87-.14,.25-.09,.46-.19,.64-.3,.18-.11,.33-.21,.46-.3,.13-.09,.24-.14,.33-.14,.17,0,.32,.1,.45,.31l.94,1.53c-.55,.52-1.22,.92-2,1.22s-1.58,.44-2.41,.44Z" />
    <path class="cls-1" d="M365.17,190.3c1.09,0,2.1,.18,3.02,.55,.92,.37,1.72,.89,2.39,1.58,.67,.69,1.2,1.54,1.58,2.56,.38,1.01,.57,2.17,.57,3.46,0,.5-.05,.84-.16,1.01-.11,.17-.31,.25-.61,.25h-12.13c.02,1.15,.18,2.15,.47,3.01s.68,1.56,1.19,2.13c.5,.57,1.1,1,1.8,1.28,.7,.28,1.48,.42,2.34,.42,.8,0,1.5-.09,2.08-.28s1.08-.39,1.5-.6c.42-.22,.77-.42,1.05-.6s.53-.28,.73-.28c.26,0,.47,.1,.61,.31l.9,1.17c-.4,.48-.87,.9-1.42,1.25-.55,.35-1.14,.65-1.77,.87-.63,.23-1.28,.4-1.95,.51-.67,.11-1.34,.17-2,.17-1.26,0-2.42-.21-3.48-.64-1.06-.43-1.98-1.05-2.75-1.87-.77-.82-1.38-1.84-1.81-3.05-.43-1.21-.65-2.6-.65-4.18,0-1.27,.2-2.46,.58-3.56s.95-2.06,1.68-2.87c.73-.81,1.63-1.45,2.68-1.91,1.06-.46,2.24-.69,3.56-.69Zm.07,2.36c-1.55,0-2.77,.45-3.65,1.34-.89,.89-1.44,2.13-1.66,3.72h9.92c0-.74-.1-1.42-.31-2.04s-.5-1.15-.9-1.6c-.4-.45-.88-.8-1.45-1.04-.57-.25-1.22-.37-1.95-.37Z" />
    <path class="cls-1" d="M389.65,208.82c-.46,0-.74-.22-.86-.67l-.29-2.21c-.78,.95-1.67,1.71-2.67,2.28-1,.57-2.15,.85-3.45,.85-1.04,0-1.99-.2-2.84-.6-.85-.4-1.58-.99-2.18-1.77-.6-.78-1.06-1.75-1.39-2.92-.32-1.16-.49-2.5-.49-4.01,0-1.34,.18-2.59,.54-3.75,.36-1.16,.88-2.16,1.56-3.01,.68-.85,1.5-1.52,2.48-2.01,.97-.49,2.08-.73,3.31-.73,1.12,0,2.07,.19,2.86,.57,.79,.38,1.5,.91,2.12,1.59v-10.12h3.2v26.51h-1.91Zm-6.21-2.34c1.04,0,1.96-.24,2.75-.72s1.51-1.16,2.17-2.03v-8.82c-.59-.79-1.23-1.35-1.93-1.67-.7-.32-1.48-.48-2.33-.48-1.7,0-3.01,.61-3.92,1.82s-1.37,2.94-1.37,5.18c0,1.19,.1,2.21,.31,3.05,.2,.85,.5,1.54,.9,2.09,.4,.55,.88,.94,1.46,1.2,.58,.25,1.24,.38,1.98,.38Z" />
    <path class="cls-5" d="M257.88,245.24c.14,0,.29,.03,.43,.08,.14,.05,.28,.15,.41,.28l2.41,2.54c-1.06,1.38-2.38,2.42-3.97,3.12-1.59,.7-3.47,1.05-5.64,1.05-1.99,0-3.78-.34-5.35-1.02-1.58-.68-2.92-1.61-4.01-2.81-1.1-1.19-1.94-2.61-2.53-4.25-.59-1.64-.88-3.42-.88-5.34s.34-3.75,1.01-5.39c.67-1.64,1.61-3.05,2.82-4.24s2.65-2.11,4.33-2.77c1.68-.66,3.53-.99,5.56-.99,.98,0,1.91,.09,2.78,.26s1.68,.41,2.44,.72c.76,.31,1.45,.67,2.09,1.1,.64,.43,1.2,.9,1.69,1.41l-2.05,2.75c-.13,.17-.29,.32-.47,.46-.18,.14-.43,.21-.76,.21-.22,0-.42-.05-.61-.14-.19-.1-.4-.21-.61-.35-.22-.14-.45-.29-.71-.45-.26-.16-.56-.31-.92-.45-.35-.14-.77-.25-1.24-.35-.47-.1-1.03-.14-1.67-.14-1.1,0-2.11,.2-3.02,.58-.91,.39-1.7,.95-2.35,1.67-.65,.73-1.16,1.6-1.53,2.64-.37,1.03-.55,2.19-.55,3.47s.18,2.54,.55,3.58,.86,1.92,1.49,2.64,1.36,1.26,2.21,1.63c.84,.37,1.74,.56,2.7,.56,.55,0,1.06-.03,1.51-.08,.46-.05,.88-.15,1.27-.28,.39-.13,.76-.3,1.12-.51,.35-.21,.71-.47,1.07-.78,.14-.12,.3-.22,.47-.3s.34-.12,.52-.12Z" />
    <path class="cls-5" d="M286.8,252.02h-6.12v-11.09h-10.66v11.09h-6.12v-26.23h6.12v10.96h10.66v-10.96h6.12v26.23Z" />
    <path class="cls-5" d="M308.01,225.8v4.68h-10.76v6.12h8.24v4.5h-8.24v6.25h10.76v4.68h-16.88v-26.23h16.88Z" />
    <path class="cls-5" d="M315.33,225.83c.18,.02,.34,.07,.49,.13,.14,.07,.28,.16,.41,.28,.13,.12,.28,.28,.45,.49l12.46,15.75c-.05-.5-.08-.99-.11-1.47-.02-.47-.04-.92-.04-1.34v-13.88h5.36v26.23h-3.17c-.47,0-.86-.07-1.19-.22-.32-.14-.64-.41-.94-.79l-12.37-15.62c.04,.46,.07,.9,.09,1.34s.04,.85,.04,1.23v14.06h-5.36v-26.23h3.2c.26,0,.49,.01,.67,.04Z" />
    <path class="cls-5" d="M355.56,225.8v4.68h-10.76v6.12h8.24v4.5h-8.24v6.25h10.76v4.68h-16.88v-26.23h16.88Z" />
    <path class="cls-5" d="M372.08,242.05v9.97h-6.08v-9.97l-9.5-16.25h5.36c.53,0,.95,.12,1.26,.37,.31,.25,.56,.56,.76,.94l3.71,7.63c.3,.61,.58,1.18,.83,1.69s.47,1.03,.67,1.53c.18-.52,.4-1.03,.65-1.55,.25-.52,.52-1.07,.81-1.67l3.67-7.63c.07-.16,.17-.31,.3-.47s.27-.3,.43-.42c.16-.13,.35-.23,.56-.31s.44-.12,.69-.12h5.4l-9.5,16.25Z" />
    <path class="cls-5" d="M215.59,295.22h-6.12v-11.09h-10.66v11.09h-6.12v-26.23h6.12v10.96h10.66v-10.96h6.12v26.23Z" />
    <path class="cls-5" d="M226.57,295.22h-6.12v-26.23h6.12v26.23Z" />
    <path class="cls-5" d="M243.78,290.83c.84,0,1.58-.07,2.23-.22,.65-.14,1.26-.33,1.84-.58v-3.98h-2.59c-.38,0-.68-.1-.9-.31s-.32-.46-.32-.77v-3.35h9.32v11.07c-.67,.49-1.37,.92-2.1,1.27-.73,.35-1.5,.65-2.32,.87-.82,.23-1.7,.4-2.63,.5-.93,.11-1.93,.16-3,.16-1.92,0-3.7-.34-5.33-1.02-1.63-.68-3.04-1.61-4.24-2.81-1.19-1.19-2.13-2.61-2.81-4.25-.68-1.64-1.02-3.42-1.02-5.34s.32-3.75,.97-5.39c.65-1.64,1.57-3.05,2.78-4.24,1.21-1.19,2.66-2.11,4.37-2.77,1.71-.66,3.62-.99,5.73-.99,1.09,0,2.12,.09,3.08,.27,.96,.18,1.85,.43,2.66,.74,.81,.31,1.55,.68,2.22,1.12,.67,.43,1.27,.9,1.8,1.4l-1.76,2.68c-.17,.25-.37,.45-.6,.59s-.49,.22-.77,.22c-.36,0-.73-.12-1.12-.36-.48-.29-.93-.54-1.36-.75-.43-.21-.86-.38-1.31-.51-.44-.13-.91-.23-1.4-.29-.49-.06-1.04-.09-1.66-.09-1.14,0-2.17,.2-3.08,.6s-1.69,.97-2.33,1.7c-.64,.73-1.14,1.61-1.48,2.64-.35,1.03-.52,2.17-.52,3.43,0,1.39,.19,2.63,.58,3.71,.38,1.08,.91,1.99,1.59,2.74,.68,.74,1.48,1.31,2.41,1.7,.93,.39,1.95,.58,3.05,.58Z" />
    <path class="cls-5" d="M279.96,295.22h-6.12v-11.09h-10.66v11.09h-6.12v-26.23h6.12v10.96h10.66v-10.96h6.12v26.23Z" />
    <path class="cls-5" d="M298.9,274.32c-.18,.29-.37,.5-.57,.65-.2,.14-.45,.22-.77,.22-.28,0-.57-.09-.89-.26-.32-.17-.68-.37-1.08-.58-.4-.22-.86-.41-1.38-.58-.52-.17-1.1-.26-1.76-.26-1.14,0-1.99,.24-2.55,.73-.56,.49-.84,1.14-.84,1.97,0,.53,.17,.97,.5,1.31,.34,.35,.78,.65,1.32,.9,.55,.25,1.17,.48,1.87,.69s1.42,.44,2.15,.7,1.45,.56,2.15,.91c.7,.35,1.33,.79,1.87,1.33s.99,1.2,1.32,1.97c.34,.77,.5,1.71,.5,2.8,0,1.21-.21,2.35-.63,3.4-.42,1.06-1.03,1.98-1.83,2.76-.8,.79-1.78,1.4-2.95,1.85-1.17,.45-2.5,.67-3.99,.67-.82,0-1.65-.08-2.49-.25-.85-.17-1.66-.41-2.46-.71-.79-.31-1.54-.67-2.23-1.09s-1.3-.89-1.82-1.4l1.8-2.84c.13-.22,.32-.39,.56-.52,.24-.13,.5-.2,.77-.2,.36,0,.72,.11,1.09,.34,.37,.23,.78,.48,1.24,.76s.99,.53,1.59,.76c.6,.23,1.31,.34,2.12,.34,1.1,0,1.96-.24,2.57-.73,.61-.49,.92-1.26,.92-2.31,0-.61-.17-1.11-.5-1.49-.34-.38-.78-.7-1.32-.95-.55-.25-1.17-.47-1.86-.67-.7-.19-1.41-.4-2.14-.64s-1.45-.52-2.14-.86c-.7-.34-1.32-.79-1.86-1.35s-.99-1.25-1.32-2.09c-.34-.83-.5-1.86-.5-3.09,0-.98,.2-1.94,.59-2.88,.4-.94,.98-1.77,1.75-2.5,.77-.73,1.71-1.32,2.83-1.76,1.12-.44,2.39-.66,3.83-.66,.8,0,1.59,.06,2.35,.19s1.49,.31,2.17,.56c.68,.25,1.32,.54,1.92,.88,.59,.34,1.12,.73,1.59,1.16l-1.51,2.83Z" />
    <path class="cls-5" d="M321.42,288.43c.14,0,.29,.03,.43,.08s.28,.15,.41,.28l2.41,2.54c-1.06,1.38-2.38,2.42-3.97,3.12-1.59,.7-3.47,1.05-5.64,1.05-1.99,0-3.78-.34-5.35-1.02-1.58-.68-2.92-1.61-4.01-2.81-1.1-1.19-1.94-2.61-2.53-4.25s-.88-3.42-.88-5.34,.34-3.75,1.01-5.39c.67-1.64,1.61-3.05,2.82-4.24,1.21-1.19,2.65-2.11,4.33-2.77,1.68-.66,3.53-.99,5.56-.99,.98,0,1.91,.09,2.78,.26s1.68,.41,2.44,.72c.76,.31,1.45,.67,2.09,1.1s1.2,.9,1.69,1.41l-2.05,2.75c-.13,.17-.29,.32-.47,.46-.18,.14-.43,.21-.76,.21-.22,0-.42-.05-.61-.14-.19-.1-.4-.21-.61-.35-.22-.14-.45-.29-.71-.45-.26-.16-.56-.31-.92-.45s-.77-.25-1.24-.35c-.47-.1-1.03-.14-1.67-.14-1.1,0-2.11,.2-3.02,.58-.91,.39-1.7,.95-2.35,1.67-.65,.73-1.16,1.61-1.53,2.64s-.55,2.19-.55,3.47,.18,2.54,.55,3.58,.86,1.92,1.49,2.64c.63,.71,1.36,1.26,2.21,1.63,.84,.37,1.74,.56,2.7,.56,.55,0,1.06-.03,1.51-.08s.88-.15,1.27-.28c.39-.13,.76-.3,1.12-.51,.35-.21,.71-.47,1.07-.78,.14-.12,.3-.22,.47-.3s.34-.12,.52-.12Z" />
    <path class="cls-5" d="M350.34,295.22h-6.12v-11.09h-10.66v11.09h-6.12v-26.23h6.12v10.96h10.66v-10.96h6.12v26.23Z" />
    <path class="cls-5" d="M380.54,282.1c0,1.9-.33,3.66-.98,5.29-.65,1.63-1.58,3.05-2.76,4.26-1.19,1.21-2.62,2.15-4.29,2.83-1.67,.68-3.53,1.03-5.57,1.03s-3.9-.34-5.58-1.03c-1.68-.68-3.12-1.63-4.31-2.83s-2.12-2.62-2.77-4.26c-.65-1.63-.98-3.4-.98-5.29s.33-3.66,.98-5.29c.65-1.63,1.58-3.05,2.77-4.25,1.19-1.2,2.63-2.14,4.31-2.83,1.68-.68,3.54-1.03,5.58-1.03s3.9,.35,5.57,1.04c1.67,.69,3.11,1.63,4.29,2.83,1.19,1.2,2.11,2.62,2.76,4.25,.65,1.63,.98,3.39,.98,5.27Zm-6.23,0c0-1.3-.17-2.46-.5-3.5s-.82-1.92-1.45-2.64c-.63-.72-1.4-1.27-2.31-1.66s-1.95-.58-3.11-.58-2.22,.19-3.14,.58-1.69,.94-2.32,1.66c-.63,.72-1.11,1.6-1.45,2.64-.34,1.04-.5,2.21-.5,3.5s.17,2.48,.5,3.52c.33,1.04,.82,1.92,1.45,2.64s1.4,1.27,2.32,1.65,1.96,.57,3.14,.57,2.2-.19,3.11-.57,1.68-.93,2.31-1.65,1.11-1.6,1.45-2.64,.5-2.21,.5-3.52Z" />
    <path class="cls-5" d="M409.34,282.1c0,1.9-.33,3.66-.98,5.29-.65,1.63-1.58,3.05-2.76,4.26-1.19,1.21-2.62,2.15-4.29,2.83-1.67,.68-3.53,1.03-5.57,1.03s-3.9-.34-5.58-1.03c-1.68-.68-3.12-1.63-4.31-2.83s-2.12-2.62-2.77-4.26c-.65-1.63-.98-3.4-.98-5.29s.33-3.66,.98-5.29c.65-1.63,1.58-3.05,2.77-4.25,1.19-1.2,2.63-2.14,4.31-2.83,1.68-.68,3.54-1.03,5.58-1.03s3.9,.35,5.57,1.04c1.67,.69,3.11,1.63,4.29,2.83,1.19,1.2,2.11,2.62,2.76,4.25,.65,1.63,.98,3.39,.98,5.27Zm-6.23,0c0-1.3-.17-2.46-.5-3.5s-.82-1.92-1.45-2.64c-.63-.72-1.4-1.27-2.31-1.66s-1.95-.58-3.11-.58-2.22,.19-3.14,.58-1.69,.94-2.32,1.66c-.63,.72-1.11,1.6-1.45,2.64-.34,1.04-.5,2.21-.5,3.5s.17,2.48,.5,3.52c.33,1.04,.82,1.92,1.45,2.64s1.4,1.27,2.32,1.65,1.96,.57,3.14,.57,2.2-.19,3.11-.57,1.68-.93,2.31-1.65,1.11-1.6,1.45-2.64,.5-2.21,.5-3.52Z" />
    <path class="cls-5" d="M418.34,290.36h9.72v4.86h-15.8v-26.23h6.08v21.37Z" />
  </g>
</svg>