<svg cache-id="bc92489c04ef4dd38b9c9f61f1387bbb" id="eiUKYryXsAq1" xmlns="http://www.w3.org/2000/svg" xmlns:xlink="http://www.w3.org/1999/xlink" viewBox="0 0 305 260.58" shape-rendering="geometricPrecision" text-rendering="geometricPrecision">
  <style>
    #eiUKYryXsAq6 {
      animation: eiUKYryXsAq6_c_o 2000ms linear infinite normal forwards
    }

    @keyframes eiUKYryXsAq6_c_o {
      0% {
        opacity: 0
      }

      50% {
        opacity: 1
      }

      100% {
        opacity: 0
      }
    }

    #eiUKYryXsAq16 {
      animation: eiUKYryXsAq16_c_o 2000ms linear infinite normal forwards
    }

    @keyframes eiUKYryXsAq16_c_o {
      0% {
        opacity: 0;
        animation-timing-function: step-end
      }

      50% {
        opacity: 1
      }

      100% {
        opacity: 1
      }
    }

    #eiUKYryXsAq17 {
      animation: eiUKYryXsAq17_c_o 2000ms linear infinite normal forwards
    }

    @keyframes eiUKYryXsAq17_c_o {
      0% {
        opacity: 0;
        animation-timing-function: step-end
      }

      75% {
        opacity: 1
      }

      100% {
        opacity: 1
      }
    }

    #eiUKYryXsAq18 {
      animation: eiUKYryXsAq18_c_o 2000ms linear infinite normal forwards
    }

    @keyframes eiUKYryXsAq18_c_o {
      0% {
        opacity: 0;
        animation-timing-function: step-end
      }

      25% {
        opacity: 1
      }

      100% {
        opacity: 1
      }
    }

    #eiUKYryXsAq36 {
      animation: eiUKYryXsAq36_c_o 2000ms linear infinite normal forwards
    }

    @keyframes eiUKYryXsAq36_c_o {
      0% {
        opacity: 0;
        animation-timing-function: step-end
      }

      50% {
        opacity: 1
      }

      100% {
        opacity: 1
      }
    }

    #eiUKYryXsAq37 {
      animation: eiUKYryXsAq37_c_o 2000ms linear infinite normal forwards
    }

    @keyframes eiUKYryXsAq37_c_o {
      0% {
        opacity: 0;
        animation-timing-function: step-end
      }

      75% {
        opacity: 1
      }

      100% {
        opacity: 1
      }
    }

    #eiUKYryXsAq38 {
      animation: eiUKYryXsAq38_c_o 2000ms linear infinite normal forwards
    }

    @keyframes eiUKYryXsAq38_c_o {
      0% {
        opacity: 0;
        animation-timing-function: step-end
      }

      25% {
        opacity: 1
      }

      100% {
        opacity: 1
      }
    }
  </style>
  <g>
    <g>
      <g>
        <polygon points="119,225.27 50.52,260.58 50.52,0.19 119,35.49 119,225.27" fill="#004f26" />
        <path id="eiUKYryXsAq6" d="M68,55.25c0,2.68-1.84,4.3-4.14,3.61s-4.29-3.53-4.29-6.3s1.95-4.36,4.3-3.56c2.491355,1.083466,4.110218,3.533319,4.13,6.25Z" opacity="0" fill="#e0197d" />
        <g>
          <polygon points="119,118.05 50.52,113.46 50.52,96.53 119,105.71 119,118.05" fill="#16381f" />
          <path d="M92.61,114.11l-3.32-.26-1.69-2.35v-6.67l6.63.79v6.46Z" fill="#414042" />
          <path d="M109.14,115.38l-2.81-.21-1.44-2.17v-6.13l5.63.67v6Z" fill="#414042" />
          <path d="M101.21,114.77l-3-.23-1.56-2.25v-6.39l6.09.72v6.2Z" fill="#414042" />
          <path d="M73,112.59l-4-.31-2-2.59v-7.3l7.93.94v7.06Z" fill="#414042" />
          <path d="M83.23,113.38l-3.61-.28-1.86-2.46v-7l7.24.86v6.74Z" fill="#414042" />
          <polygon points="119,129.43 50.52,129.08 50.52,127.78 119,128.48 119,129.43" fill="#265e31" />
        </g>
        <g>
          <polygon id="eiUKYryXsAq16" points="119,205.34 50.52,233.24 50.52,216.31 119,193.01 119,205.34" opacity="0" fill="#26b462" />
          <polygon id="eiUKYryXsAq17" points="119,184.47 50.52,204.59 50.52,187.67 119,172.13 119,184.47" opacity="0" fill="#26b462" />
          <polygon id="eiUKYryXsAq18" points="119,225.27 50.52,260.58 50.52,243.65 119,212.93 119,225.27" opacity="0" fill="#26b462" />
          <polygon points="119,41.19 50.52,8 50.52,0.19 119,35.49 119,41.19" fill="#71cb90" />
        </g>
        <g>
          <polygon points="114.53,76.92 76.82,66.23 76.82,51.07 114.53,64.29 114.53,76.92" fill="#16381f" />
          <polygon points="110.52,70.82 82.34,62.11 82.34,58.69 110.52,67.84 110.52,70.82" fill="#414042" />
          <polygon points="110.52,68.84 82.34,59.83 82.34,58.69 110.52,67.84 110.52,68.84" fill="#565656" />
        </g>
        <g>
          <polygon points="119,140.82 50.52,144.71 50.52,127.78 119,128.48 119,140.82" fill="#16381f" />
          <path d="M92.61,140.15l-3.32.15-1.69-2.14v-6.67h6.63v6.46Z" fill="#414042" />
          <path d="M109.14,139.38l-2.81.13-1.44-2v-6.11h5.63v6Z" fill="#414042" />
          <path d="M101.21,139.75l-3,.14-1.56-2.06v-6.38h6.09v6.2Z" fill="#414042" />
          <path d="M73,141.06l-4,.18-2-2.34v-7.3h7.93v7.05Z" fill="#414042" />
          <path d="M83.23,140.58l-3.61.17-1.86-2.24v-7h7.24v6.74Z" fill="#414042" />
          <polygon points="119,106.66 50.52,97.83 50.52,96.53 119,105.71 119,106.66" fill="#265e31" />
        </g>
      </g>
      <polygon points="119,129.43 50.52,129.08 50.52,127.78 119,128.48 119,129.43" fill="#265e31" />
    </g>
    <g>
      <polygon points="0.03,230.34 50.66,260.53 50.66,0.15 0.03,30.34 0.03,230.34" fill="#014721" />
      <g>
        <polygon id="eiUKYryXsAq36" points="0,209.19 50.87,233.03 50.87,216.1 0,196.19 0,209.19" opacity="0" fill="#26b462" />
        <polygon id="eiUKYryXsAq37" points="0,187.19 50.87,204.39 50.87,187.47 0,174.19 0,187.19" opacity="0" fill="#26b462" />
        <polygon id="eiUKYryXsAq38" points="0,230.19 50.87,260.36 50.87,243.44 0,217.19 0,230.19" opacity="0" fill="#26b462" />
        <polygon points="0,36.19 50.69,7.81 50.69,0 0,30.18 0,36.19" fill="#71cb90" />
      </g>
    </g>
  </g>
  <g>
    <polygon points="235.05,204.12 224,204.97 224,178.26 235.05,177.84 235.05,204.12" fill="#26b462" />
    <polygon points="236.85,203.96 225,204.81 225,178.1 236.85,177.67 236.85,203.96" fill="#606060" />
    <g>
      <polygon points="281.68,220.38 212.8,230.09 194.98,207.55 259.49,201.33 281.68,220.38" fill="#26b462" />
      <polygon points="282.32,219.49 213.43,228.92 195.66,207 260.14,200.96 282.32,219.49" fill="#444" />
    </g>
    <g>
      <path d="M300.24,174.79L147.63,185.21c-.732684.004936-1.43396-.297159-1.933692-.832993s-.752256-1.256445-.696308-1.987007v-110c-.05579-.731474.196468-1.453007.695864-1.990381s1.20054-.841743,1.934136-.839619L300.24,80c1,.07,1.76,1.21,1.76,2.57v89.68c0,1.33-.79,2.47-1.76,2.54Z" fill="#212121" stroke="#004f26" stroke-width="4" stroke-miterlimit="10" />
      <g>
        <path d="M178.63,110l102.17,1.92c.85,0,1.53,1,1.53,2.1v23.38c0,1.15-.68,2.09-1.53,2.11l-102.17,2c-.576198-.043361-1.111308-.314739-1.486734-.753988s-.560163-1.010091-.513266-1.586012v-26.81c-.052528-.579206.129642-1.155256.505648-1.598943s.914375-.717872,1.494352-.761057Z" fill="#231f20" stroke="#414042" stroke-width="2" stroke-miterlimit="10" />
        <path d="M185.39,123.55v.57l-1.92.57v-1.15c.007535-.146525-.042736-.290155-.14-.4-.081439-.105183-.206975-.166751-.34-.166751s-.258561.061568-.34.166751c-.092912.116235-.142417.261214-.14.41v1.72c-.002417.148786.047088.293765.14.41.0828.102651.208127.161628.34.16.669364-.000082,1.300944.310169,1.71.84.461768.563324.709687,1.271667.7,2v1.71c.007975.728053-.239746,1.435827-.7,2-.406942.534954-1.037901.852278-1.71.86-.667989.004003-1.299891-.30271-1.71-.83-.472448-.557889-.724925-1.269093-.71-2v-.57l1.94-.59v1.15c-.007015.149475.043028.296032.14.41.080784.105186.207459.164798.34.16.133228-.002262.258254-.064775.34-.17.092972-.112317.142638-.25422.14-.4v-1.72c.002417-.148786-.047088-.293765-.14-.41-.0828-.102651-.208127-.161628-.34-.16-.669364.000082-1.300944-.310169-1.71-.84-.472448-.557889-.724925-1.269093-.71-2v-1.73c-.014925-.730907.237552-1.442111.71-2c.406942-.529742,1.036997-.840239,1.705-.840239s1.298058.310497,1.705.840239c.468844.559325.717713,1.27038.7,2Z" fill="#f1f2f2" />
        <path d="M189.21,130.39v-1.13l1.89.55v.57c.014237.727364-.230294,1.436147-.69,2-.401056.52527-1.024126.833464-1.685.833464s-1.283944-.308194-1.685-.833464c-.459706-.563853-.704237-1.272636-.69-2v-6.86c-.015113-.727501.229519-1.436578.69-2c.402836-.525366,1.027972-.832386,1.69-.83.658804.009119,1.277422.318428,1.68.84.459706.563853.704237,1.272636.69,2v.57l-1.89.56v-1.14c.002638-.14578-.047028-.287683-.14-.4-.07763-.104841-.199568-.167658-.33-.17-.133959-.000799-.260263.062354-.34.17-.094595.111393-.144483.25393-.14.4v6.84c-.002417.148786.047088.293765.14.41.080784.105186.207459.164798.34.16.130432-.002342.25237-.065159.33-.17.092972-.112317.142638-.25422.14-.4Z" fill="#f1f2f2" />
        <path d="M196.73,123.58v9.59h-1.86v-9.62c.002638-.14578-.047028-.287683-.14-.4-.079636-.101151-.201262-.160192-.33-.160192s-.250364.059041-.33.160192c-.092972.112317-.142638.25422-.14.4v9.62h-1.88v-15.85h1.88v3.46c.153426-.040172.311402-.060339.47-.06.654696.003144,1.269703.314352,1.66.84.461648.562176.703308,1.272939.68,2Z" fill="#f1f2f2" />
        <path d="M197.67,120.76h.92l.14.43c.357205-.277286.797834-.425337,1.25-.42.645516.008532,1.25086.314895,1.64.83.458057.563591.696115,1.274212.67,2v.56l-1.84.55v-1.12c.001447-.143942-.044205-.284411-.13-.4-.073314-.107546-.190481-.177114-.32-.19-.129052-.001579-.251314.0577-.33.16-.090177.11328-.13635.255349-.13.4v9.56h-1.86v-12.36Z" fill="#f1f2f2" />
        <path d="M203.2,123.59c-.019015-.724744.21824-1.432966.67-2c.379795-.513054.98168-.813996,1.62-.81.638376.00386,1.236555.312238,1.61.83.458057.563591.696115,1.274212.67,2v4.45h-2.77v2.24c-.005736.141512.040504.280232.13.39.074469.101999.193719.161624.32.16.128044-.002764.248528-.061181.33-.16.085795-.115589.131447-.256058.13-.4v-1.11l1.81.54v.56c.028929.72452-.20553,1.435001-.66,2-.376568.515503-.976606.820265-1.615.820265s-1.238432-.304762-1.615-.820265c-.458057-.563591-.696115-1.274212-.67-2v-6.71Zm2.75,0c.001447-.143942-.044205-.284411-.13-.4-.078686-.1023-.200948-.161579-.33-.16-.126281-.001624-.245531.058001-.32.16-.090177.11328-.13635.255349-.13.4v2.23h.96v-2.22Z" fill="#f1f2f2" />
        <path d="M208.67,119.71v-2.22h1.8v2.21Zm1.8,1.12v12.17h-1.8v-12.18Z" fill="#f1f2f2" />
        <path d="M213.16,120.91c.146467-.040893.297936-.061089.45-.06.622439.014064,1.202826.317196,1.57.82.450887.5664.681749,1.276743.65,2v6.61c.031749.723257-.199113,1.4336-.65,2-.367174.502804-.947561.805936-1.57.82-.438439.006276-.865686-.138494-1.21-.41l-.14.42h-.89v-15.59h1.79v3.38Zm.89,2.71c.005087-.142903-.037091-.283496-.12-.4-.081403-.093433-.196412-.150938-.32-.16-.125185.002964-.242518.061631-.32.16-.084384.112513-.13.249359-.13.39v6.64c0,.140641.045616.277487.13.39.078536.095766.196153.150898.32.15.125903,0,.244458-.059278.32-.16.082858-.112736.12515-.250184.12-.39Z" fill="#f1f2f2" />
        <path d="M219.37,126.37v-2.2c.726325-.726084,1.903675-.726084,2.63,0c.344046.349968.81424.547083,1.305.547083s.960954-.197115,1.305-.547083v2.18c-.344046.349968-.81424.547083-1.305.547083s-.960954-.197115-1.305-.547083c-.731835-.72059-1.909209-.711637-2.63.02Z" fill="#424142" />
        <path d="M230.21,116.62L226.86,134h-1.86l3.37-17.38Z" fill="#424142" />
        <path d="M230.64,121h.85l.13.41c.321685-.270289.729877-.415818,1.15-.41.59932.010846,1.157116.308337,1.5.8.422959.541096.642399,1.213576.62,1.9v.54l-1.69.53v-1.07c.002899-.139511-.039175-.276251-.12-.39-.075418-.0942-.189331-.14932-.31-.15-.118221-.0008-.229707.054943-.3.15-.082124.109296-.12446.243361-.12.38v9.17h-1.7v-11.86Z" fill="#424142" />
        <path d="M235.73,123.67c-.019433-.684385.195814-1.354829.61-1.9.333494-.502761.896686-.805013,1.5-.805013s1.166506.302252,1.5.805013c.414186.545171.629433,1.215615.61,1.9v4.26h-2.51v2.15c-.002974.133352.039326.263777.12.37.065638.101585.179072.162083.3.16.119613-.003127.230767-.062409.3-.16.082124-.109296.12446-.243361.12-.38v-1.07l1.67.52v.54c.017142.680984-.197986,1.347527-.61,1.89-.336533.488534-.886935.786049-1.48.8-.592381.001115-1.148242-.286142-1.49-.77-.414186-.545171-.629433-1.215615-.61-1.9v-6.44Zm2.52,0c.00446-.136639-.037876-.270704-.12-.38-.071991-.092598-.182709-.146762-.3-.146762s-.228009.054164-.3.146762c-.082124.109296-.12446.243361-.12.38v2.14h.84v-2.14Z" fill="#424142" />
        <path d="M244.89,123.69v.52l-1.65.53v-1.06c.00446-.136639-.037876-.270704-.12-.38-.067133-.093481-.174914-.14923-.29-.15-.11592-.002721-.225235.053821-.29.15-.082124.109296-.12446.243361-.12.38v1.59c-.00446.136639.037876.270704.12.38.064765.096179.17408.152721.29.15.584875.005848,1.13.297079,1.46.78.409167.53575.621077,1.196204.6,1.87v1.55c.017734.676398-.193712,1.338928-.6,1.88-.329365.485767-.8781.776685-1.465.776685s-1.135635-.290918-1.465-.776685c-.409855-.539772-.624863-1.20242-.61-1.88v-.53l1.66-.54v1.06c-.00446.136639.037876.270704.12.38.070293.095057.181779.1508.3.15.117382-.001326.226282-.061409.29-.16.080674-.106223.122974-.236648.12-.37v-1.6c.004621-.133589-.037854-.264552-.12-.37-.063718-.098591-.172618-.158674-.29-.16-.587845.004942-1.139346-.28394-1.47-.77-.416405-.540172-.632049-1.208316-.61-1.89v-1.59c-.017142-.680984.197986-1.347527.61-1.89.329365-.485767.8781-.776685,1.465-.776685s1.135635.290918,1.465.776685c.426179.565302.638709,1.263108.6,1.97Z" fill="#424142" />
        <path d="M245.71,130v-9h1.64v9c-.00446.136639.037876.270704.12.38.065086.096321.17375.154041.29.154041s.224914-.05772.29-.154041c.079358-.106399.118342-.237528.11-.37v-9h1.63v11.58h-.79l-.12-.4c-.306798.262187-.69644.407418-1.1.41-.5802.005856-1.124699-.279537-1.45-.76-.409167-.53575-.621077-1.196204-.6-1.87Z" fill="#424142" />
        <path d="M250.61,121.07h.81l.12.4c1.162684.421161,2.454794.280875,3.5-.38.566563.014673,1.091392.301281,1.41.77.392761.535476.596752,1.186136.58,1.85v8.87h-1.59v-8.88c.004621-.133589-.037854-.264552-.12-.37-.061547-.094586-.167159-.151163-.28-.15-.115086.00077-.222867.056519-.29.15-.075104.108486-.113639.238104-.11.37v8.89h-1.61v-8.89c.001645-.131627-.036713-.26065-.11-.37-.06784-.092231-.175506-.146693-.29-.146693s-.22216.054462-.29.146693c-.073287.10935-.111645.238373-.11.37v8.93h-1.62v-11.56Z" fill="#424142" />
        <path d="M257.83,123.72c-.021408-.664508.183048-1.316653.58-1.85.30809-.473756.834876-.759561,1.4-.759561s1.09191.285805,1.4.759561c.389091.529199.589761,1.173453.57,1.83v4.15h-2.36v2.15c-.001645.131627.036713.26065.11.37.063451.092114.168148.147127.28.147127s.216549-.055013.28-.147127c.082146-.105448.124621-.236411.12-.37v-1l1.57.51v.52c.017426.659315-.182905,1.305998-.57,1.84-.311903.470998-.835201.758812-1.4.77-.561384.004331-1.08738-.273696-1.4-.74-.396952-.533347-.601408-1.185492-.58-1.85v-6.25Zm2.38,0c.002974-.133352-.039326-.263777-.12-.37-.061547-.094586-.167159-.151163-.28-.15-.111955.002329-.216036.058087-.28.15-.075104.108486-.113639.238104-.11.37v2.08h.79v-2.08Z" fill="#424142" />
        <path d="M266.85,117l-3,16.51h-1.65L265.22,117Z" fill="#424142" />
        <path d="M268.4,118.3v-1.24h1.54v1.23c.235586.140268.439814.327478.6.55.379359.529755.575932,1.168617.56,1.82v1l-1.54.5v-1.53c.003639-.131896-.034896-.261514-.11-.37-.059602-.091632-.160711-.147804-.27-.15-.111955.002329-.216036.058087-.28.15-.074991.10477-.113625.231208-.11.36v3.08c-.003625.128792.035009.25523.11.36.063964.091913.168045.147671.28.15.549077.011169,1.057565.291586,1.36.75.379359.529755.575932,1.168617.56,1.82v3.07c.013754.647985-.182715,1.282999-.56,1.81-.157273.2215-.358022.408639-.59.55v1.23h-1.55v-1.23c-.226949-.14383-.426688-.326642-.59-.54-.38905-.525413-.589839-1.166528-.57-1.82v-1l1.55-.52v1.54c-.003625.128792.035009.25523.11.36.059602.091632.160711.147804.27.15.111955-.002329.216036-.058087.28-.15.073702-.105403.112202-.231404.11-.36v-3.08c.001645-.131627-.036713-.26065-.11-.37-.068022-.085797-.17055-.137061-.28-.14-.550008-.00768-1.06002-.288937-1.36-.75-.387651-.526123-.588285-1.166743-.57-1.82v-3.09c-.018285-.653257.182349-1.293877.57-1.82.16351-.202251.363669-.371878.59-.5Z" fill="#424142" />
        <polygon points="274.63,117.23 279.95,117.29 279.95,133.47 274.63,133.53 274.63,117.23" fill="#f1f2f2">
                     <animate
        attributeName="fill"
        values="#e6f6eb;transparent"
        begin="0s"
        dur="2s"
        calcMode="discrete"
        repeatCount="indefinite"/>
        </polygon>
      </g>
    </g>
  </g>
</svg>