<?xml version="1.0" encoding="UTF-8"?>
<svg id="a"
    xmlns="http://www.w3.org/2000/svg" viewBox="0 0 16.41 233.02">
    <defs>
        <style>.b{fill:#f1f2f1;}</style>
    </defs>
    <path class="b" d="M6.33,36.62l-.47,4.39H0L5.27,0h5.86l5.27,41.02h-5.86l-.47-4.39h-3.75Zm3.13-5.86l-1.26-11.72-1.26,11.72h2.52Z"/>
    <path class="b" d="M.88,89.02V48h7.32c2.03,0,3.76,.71,5.19,2.14,1.43,1.43,2.14,3.15,2.14,5.19v8.79c0,1.66-.48,3.12-1.44,4.39,.96,1.27,1.44,2.73,1.44,4.39v8.79c0,2.03-.71,3.76-2.14,5.19s-3.15,2.14-5.19,2.14H.88ZM6.74,53.86v11.72h1.46c.41,0,.76-.14,1.04-.42s.42-.63,.42-1.04v-8.79c0-.41-.14-.76-.42-1.04-.28-.28-.63-.42-1.04-.42h-1.46Zm0,17.58v11.72h1.46c.41,0,.76-.14,1.04-.42s.42-.63,.42-1.04v-8.79c0-.41-.14-.76-.42-1.04-.28-.28-.63-.42-1.04-.42h-1.46Z"/>
    <path class="b" d="M.88,103.32c0-2.03,.71-3.76,2.14-5.19s3.15-2.14,5.19-2.14,3.76,.71,5.19,2.14c1.43,1.43,2.14,3.15,2.14,5.19v26.37c0,2.03-.71,3.76-2.14,5.19s-3.15,2.14-5.19,2.14-3.76-.71-5.19-2.14c-1.43-1.43-2.14-3.15-2.14-5.19v-26.37Zm8.79,0c0-.41-.14-.76-.42-1.04-.28-.28-.63-.42-1.04-.42s-.76,.14-1.04,.42-.42,.63-.42,1.04v26.37c0,.41,.14,.76,.42,1.04,.28,.28,.63,.42,1.04,.42s.76-.14,1.04-.42,.42-.63,.42-1.04v-26.37Z"/>
    <path class="b" d="M.88,177.69v-33.69H6.74v33.69c0,.41,.14,.76,.42,1.04,.28,.28,.63,.42,1.04,.42s.76-.14,1.04-.42,.42-.63,.42-1.04v-33.69h5.86v33.69c0,2.03-.71,3.76-2.14,5.19s-3.15,2.14-5.19,2.14-3.76-.71-5.19-2.14c-1.43-1.43-2.14-3.15-2.14-5.19Z"/>
    <path class="b" d="M11.13,197.86v35.16H5.27v-35.16H.88v-5.86H15.53v5.86h-4.39Z"/>
</svg>