<?xml version="1.0" encoding="UTF-8"?>
<svg xmlns="http://www.w3.org/2000/svg" xmlns:xlink="http://www.w3.org/1999/xlink" width="314.15pt" height="178.04pt" viewBox="0 0 314.15 178.04" version="1.1">
<defs>
<clipPath id="clip1">
  <path d="M 291 170 L 294 170 L 294 178.039063 L 291 178.039063 Z M 291 170 "/>
</clipPath>
<clipPath id="clip2">
  <path d="M 312 170 L 314.148438 170 L 314.148438 178.039063 L 312 178.039063 Z M 312 170 "/>
</clipPath>
</defs>
<g id="surface1">
<path style=" stroke:none;fill-rule:nonzero;fill:rgb(12.199402%,19.999695%,43.899536%);fill-opacity:1;" d="M 8.492188 56.972656 L 5.308594 73.957031 L 27.328125 56.695313 Z M 8.492188 56.972656 "/>
<path style=" stroke:none;fill-rule:nonzero;fill:rgb(12.199402%,19.999695%,43.899536%);fill-opacity:1;" d="M 47.066406 85.632813 L 43.171875 108.636719 L 7.429688 108.636719 C 7.429688 108.636719 41.757813 87.402344 47.066406 85.632813 "/>
<path style=" stroke:none;fill-rule:nonzero;fill:rgb(67.498779%,12.199402%,13.699341%);fill-opacity:1;" d="M 3.183594 88.464844 L 5.308594 73.957031 C 5.308594 73.957031 30.628906 53.960938 34.613281 50.535156 C 38.917969 46.835938 55.910156 35.738281 59.804688 35.738281 C 63.695313 35.738281 64.382813 38.570313 64.382813 38.570313 L 64.382813 49.1875 C 64.382813 49.1875 71.480469 49.1875 94.484375 31.492188 C 117.484375 13.800781 134.824219 -0.00390625 134.824219 -0.00390625 L 130.578125 23.914063 C 130.578125 23.914063 104.746094 44.941406 92.007813 52.726563 C 79.265625 60.511719 68.050781 66.84375 61.71875 67.527344 C 61.71875 67.527344 61.71875 71.046875 61.71875 73.347656 C 61.71875 75.644531 68.003906 76.503906 92.941406 61.800781 C 106.742188 53.660156 127.746094 39.277344 127.746094 39.277344 L 124.207031 60.511719 C 124.207031 60.511719 84.800781 85.703125 69.265625 90.941406 C 57.925781 94.765625 53.433594 90.941406 55.910156 82.804688 C 58.390625 74.664063 55.515625 74.199219 51.96875 75.421875 C 38.433594 80.09375 0 107.574219 0 107.574219 L 1.769531 94.835938 C 1.769531 94.835938 29.394531 75.617188 37.511719 70.0625 C 48.710938 62.402344 58.453125 59.578125 58.453125 59.578125 L 58.453125 53.433594 C 58.453125 53.433594 56.074219 50.242188 49.382813 54.101563 C 44.308594 57.03125 3.183594 88.464844 3.183594 88.464844 "/>
<path style=" stroke:none;fill-rule:nonzero;fill:rgb(12.199402%,19.999695%,43.899536%);fill-opacity:1;" d="M 81.519531 134.949219 L 79.929688 134.949219 C 79.980469 133.863281 79.988281 130.019531 78.222656 130.019531 C 77.136719 130.019531 75.503906 130.019531 69.332031 130.019531 L 67.625 141.578125 C 67.507813 142.546875 67.089844 142.660156 67.226563 143.929688 C 67.433594 145.863281 69.359375 146.46875 72.324219 146.648438 L 72.488281 148.160156 L 52.734375 148.160156 L 52.570313 146.648438 C 54.75 146.226563 59.042969 146.589844 59.042969 142.300781 L 62.980469 115.171875 C 63.042969 114.6875 63.273438 112.695313 63.175781 111.789063 C 62.96875 109.855469 62.34375 109.734375 58.847656 109.25 L 58.683594 107.742188 L 89.023438 107.742188 L 88.054688 117.292969 L 85.820313 116.992188 C 85.378906 112.882813 85.503906 110.292969 74.570313 110.292969 C 72.402344 110.292969 71.867188 112.09375 71.574219 114.027344 L 69.625 127.5 C 80.449219 127.5 80.027344 126.578125 81.929688 121.503906 L 83.511719 121.503906 L 81.519531 134.949219 "/>
<path style=" stroke:none;fill-rule:nonzero;fill:rgb(12.199402%,19.999695%,43.899536%);fill-opacity:1;" d="M 103.375 125.410156 C 107.800781 125.226563 116.210938 125.558594 116.210938 115.59375 C 116.210938 108.8125 111.128906 109.675781 107.234375 109.675781 C 105.121094 109.675781 105.460938 110.609375 105.3125 111.816406 Z M 101.222656 141.792969 C 101.113281 142.335938 101.085938 143.121094 101.144531 143.664063 C 101.316406 145.296875 103.246094 145.515625 104.804688 145.515625 C 113.996094 145.515625 115.015625 137.238281 115.015625 134.566406 C 115.015625 127.277344 108.308594 126.878906 103.3125 127.738281 Z M 91.960938 107.742188 L 107.085938 107.742188 C 110.367188 107.742188 123.578125 106.03125 124.476563 114.429688 C 125.257813 121.738281 118.792969 124.640625 115.226563 125.605469 C 115.226563 125.605469 124.261719 127.136719 124.261719 134.964844 C 124.261719 144.503906 113.394531 148.039063 105.234375 148.160156 L 85.808594 148.160156 L 85.960938 146.160156 C 87.875 145.855469 91.351563 146.464844 91.898438 142.722656 C 91.898438 142.722656 96.511719 112.332031 96.472656 111.96875 C 96.214844 109.554688 94.46875 109.371094 92.121094 109.25 L 91.960938 107.742188 "/>
<path style=" stroke:none;fill-rule:nonzero;fill:rgb(12.199402%,19.999695%,43.899536%);fill-opacity:1;" d="M 135.367188 151.109375 C 135.214844 152.257813 135.265625 152.738281 135.296875 153.042969 C 135.355469 153.585938 135.492188 154.855469 139.105469 154.855469 C 145.777344 154.855469 151.734375 151.996094 154.765625 144.445313 L 156.859375 144.746094 L 152.574219 158.375 L 119.425781 158.375 L 119.574219 156.101563 C 121.925781 155.738281 126.019531 155.195313 126.539063 151.75 L 133.890625 111.125 C 133.8125 109.183594 132.265625 108.929688 129.488281 109.222656 L 129.488281 107.078125 L 148.816406 107.078125 L 148.816406 108.589844 C 145.722656 108.769531 142.546875 109.3125 142.042969 112.9375 L 135.367188 151.109375 "/>
<path style=" stroke:none;fill-rule:nonzero;fill:rgb(12.199402%,19.999695%,43.899536%);fill-opacity:1;" d="M 162.523438 132.191406 L 159.769531 114.585938 L 150.183594 132.191406 Z M 178.449219 147.175781 L 161.144531 147.175781 L 160.984375 145.664063 C 163.460938 145.421875 165.335938 145.242188 165.015625 142.28125 C 164.886719 141.074219 164.96875 141.074219 163.441406 134.609375 L 149.164063 134.609375 L 145.433594 140.769531 C 145.164063 141.375 144.78125 142.460938 144.894531 143.550781 C 145.121094 145.664063 146.148438 145.664063 147.207031 145.664063 L 147.367188 147.175781 L 136.058594 147.175781 L 136.058594 145.664063 C 137.570313 145.242188 140.019531 144.941406 141.699219 141.433594 L 161.117188 107.265625 L 165.621094 107.265625 L 173.703125 140.46875 C 174.945313 145.300781 174.804688 145.300781 178.289063 145.664063 L 178.449219 147.175781 "/>
<path style=" stroke:none;fill-rule:nonzero;fill:rgb(12.199402%,19.999695%,43.899536%);fill-opacity:1;" d="M 238.585938 123.878906 C 243.015625 123.695313 251.425781 124.027344 251.425781 114.0625 C 251.425781 107.28125 246.339844 108.144531 242.445313 108.144531 C 240.335938 108.144531 240.671875 109.078125 240.523438 110.285156 Z M 236.433594 140.261719 C 236.324219 140.804688 236.296875 141.589844 236.355469 142.132813 C 236.527344 143.765625 238.460938 143.984375 240.015625 143.984375 C 249.207031 143.984375 250.226563 135.707031 250.226563 133.035156 C 250.226563 125.746094 243.519531 125.347656 238.523438 126.207031 Z M 227.253906 105.855469 L 248.738281 105.855469 C 252.019531 105.855469 259.476563 104.5 260.375 112.898438 C 261.15625 120.207031 254.003906 123.109375 250.4375 124.074219 C 250.4375 124.074219 259.914063 124.535156 259.914063 133.878906 C 259.914063 143.417969 248.605469 146.507813 240.445313 146.628906 L 221.019531 146.628906 L 221.175781 144.628906 C 223.085938 144.324219 226.5625 144.933594 227.109375 141.191406 C 227.109375 141.191406 231.722656 110.800781 231.683594 110.4375 C 231.425781 108.023438 229.601563 107.839844 227.253906 107.71875 L 227.253906 105.855469 "/>
<path style=" stroke:none;fill-rule:nonzero;fill:rgb(12.199402%,19.999695%,43.899536%);fill-opacity:1;" d="M 280.28125 114.582031 L 265.941406 139.238281 C 265.675781 139.84375 265.289063 140.929688 265.40625 142.019531 C 265.632813 144.132813 266.660156 144.132813 267.71875 144.132813 L 267.878906 145.644531 L 255.628906 145.644531 L 255.628906 144.132813 C 257.140625 143.710938 260.53125 143.410156 262.214844 139.902344 L 281.628906 105.734375 L 286.136719 105.734375 L 294.675781 139.410156 C 295.308594 143.0625 298.445313 144.132813 299.507813 144.132813 L 299.671875 145.644531 L 282.269531 145.644531 L 282.269531 144.132813 C 284.746094 143.890625 285.847656 143.710938 285.527344 140.75 C 285.398438 139.542969 280.28125 114.582031 280.28125 114.582031 "/>
<path style=" stroke:none;fill-rule:nonzero;fill:rgb(12.199402%,19.999695%,43.899536%);fill-opacity:1;" d="M 175.234375 127.445313 C 175.234375 125.585938 176.742188 124.074219 178.605469 124.074219 C 180.464844 124.074219 181.972656 125.585938 181.972656 127.445313 C 181.972656 129.304688 180.464844 130.8125 178.605469 130.8125 C 176.742188 130.8125 175.234375 129.304688 175.234375 127.445313 "/>
<path style=" stroke:none;fill-rule:nonzero;fill:rgb(12.199402%,19.999695%,43.899536%);fill-opacity:1;" d="M 212.601563 146.871094 L 192.980469 146.871094 L 192.980469 145.355469 C 195.371094 144.988281 197.316406 144.871094 198.203125 143.984375 C 198.203125 143.984375 203.589844 110.449219 203.589844 109.660156 C 203.589844 107.714844 202.335938 108.289063 198.773438 107.742188 L 198.773438 106.226563 L 218.265625 106.226563 L 218.265625 107.742188 C 216.152344 108.046875 213.394531 106.226563 212.445313 112.117188 C 212.445313 112.117188 208.363281 138.902344 207.851563 142.222656 C 207.535156 144.261719 209.765625 144.625 212.601563 144.746094 L 212.601563 146.871094 "/>
<path style=" stroke:none;fill-rule:nonzero;fill:rgb(12.199402%,19.999695%,43.899536%);fill-opacity:1;" d="M 203.257813 140.460938 C 209.410156 140.460938 215.460938 134.09375 216.273438 126.527344 C 217.085938 118.957031 215.304688 113.5625 208.40625 112.820313 C 201.511719 112.082031 195.957031 117.617188 195.144531 125.183594 C 194.328125 132.75 196.320313 140.460938 203.257813 140.460938 Z M 207.820313 110.882813 C 211.324219 110.882813 214.472656 111.246094 217.253906 112.589844 C 220.03125 113.933594 222.488281 116.152344 223.625 118.628906 C 224.757813 121.105469 224.566406 123.816406 224.054688 126.757813 C 223.3125 131.003906 221.238281 134.558594 217.839844 137.417969 C 213.730469 140.871094 208.589844 142.601563 202.410156 142.601563 C 196.347656 142.601563 191.953125 141.023438 189.230469 137.867188 C 186.511719 134.707031 185.511719 131.046875 186.234375 126.886719 C 186.984375 122.597656 189.3125 118.859375 193.21875 115.667969 C 197.121094 112.476563 201.988281 110.882813 207.820313 110.882813 "/>

</g>
</svg>
