<svg xmlns="http://www.w3.org/2000/svg" viewBox="0 0 199.22 80">
  <defs>
    <style>
    .a {
        fill: #f1f2f2;
      }
      .b {
        fill: #231f20;
      }

      .c {
        fill: #414042;
      }
    </style>
  </defs>
  <text />
   <rect class="a" x="0.31" width="198.91" height="80.29" rx="5" />
  <path class="b" d="M15.81,26.22A9.16,9.16,0,0,1,17.64,26,9.13,9.13,0,0,1,26.8,35.2v22a8.79,8.79,0,0,1-2.68,6.48,8.82,8.82,0,0,1-6.48,2.67,9,9,0,0,1-4.94-1.39l-.55,1.39H8.49V15.05h7.32Zm3.66,9a1.73,1.73,0,0,0-.53-1.3,1.83,1.83,0,0,0-3.13,1.3v22a1.84,1.84,0,0,0,3.13,1.3,1.76,1.76,0,0,0,.53-1.3Z" />
  <path class="b" d="M31.21,35.2A9.12,9.12,0,0,1,40.36,26a9.12,9.12,0,0,1,9.16,9.16V49.84h-11v7.33A1.81,1.81,0,0,0,40.36,59a1.83,1.83,0,0,0,1.84-1.83V53.51l7.32,1.83v1.83a9.12,9.12,0,0,1-9.16,9.15,9.12,9.12,0,0,1-9.15-9.15Zm11,0a1.84,1.84,0,0,0-1.84-1.84,1.83,1.83,0,0,0-1.83,1.84v7.32H42.2Z" />
  <path class="b" d="M72.24,35.2V66.32H64.92V35.2a1.83,1.83,0,0,0-1.83-1.84,1.83,1.83,0,0,0-1.83,1.84V66.32H53.93V26h3.66l.55,1.39a9.06,9.06,0,0,1,5-1.39,9.12,9.12,0,0,1,9.15,9.16Z" />
  <path class="c" d="M76.65,44.35V37a9.17,9.17,0,0,1,11,0,9.17,9.17,0,0,0,11,0v7.32a9.17,9.17,0,0,1-11,0A9.17,9.17,0,0,0,76.65,44.35Z" />
  <path class="c" d="M123.18,11.39,108.9,70h-7.69l14.28-58.6Z" />
  <path class="c" d="M131.26,15.79v-4.4h7.32v4.4a9,9,0,0,1,2.82,1.94,8.82,8.82,0,0,1,2.67,6.48v3.66l-7.32,1.83V24.21a1.84,1.84,0,0,0-3.13-1.3,1.74,1.74,0,0,0-.53,1.3v11A1.81,1.81,0,0,0,134.92,37a9.12,9.12,0,0,1,9.15,9.15v11a8.82,8.82,0,0,1-2.67,6.48,9,9,0,0,1-2.82,1.94V70h-7.32v-4.4a9.23,9.23,0,0,1-5.5-8.42V53.51l7.33-1.83v5.49A1.81,1.81,0,0,0,134.92,59a1.81,1.81,0,0,0,1.83-1.83v-11a1.81,1.81,0,0,0-1.83-1.83,9.13,9.13,0,0,1-9.16-9.15v-11a9.23,9.23,0,0,1,5.5-8.42Z" />
  <rect class="c" x="164.31" y="11.39" width="25.95" height="58.78" >
  <animate
    attributeName="fill"
    values="#414042;transparent"
    begin="0s"
    dur="2s"
    calcMode="discrete"
    repeatCount="indefinite"/>
  </rect>
  <text />
</svg>