<?xml version="1.0" encoding="UTF-8"?>
<svg id="Layer_1" data-name="Layer 1" xmlns="http://www.w3.org/2000/svg" xmlns:xlink="http://www.w3.org/1999/xlink" viewBox="0 0 236.12 243.91">
  <defs>
    <style>
      .cls-1 {
        fill: #2d8744;
      }

      .cls-2 {
        fill: #fff;
      }

      .cls-3 {
        fill: #231f20;
        stroke: #414042;
        stroke-width: 3px;
      }

      .cls-3, .cls-4 {
        stroke-miterlimit: 10;
      }

      .cls-5 {
        filter: url(#drop-shadow-1);
      }

      .cls-6 {
        fill: #026534;
      }

      .cls-4 {
        fill: none;
        stroke: #16381f;
        stroke-width: 5px;
      }

      .cls-7 {
        fill: #16381f;
      }

      .cls-8 {
        filter: url(#outer-glow-2);
      }

      .cls-9 {
        fill: #1eaa4a;
      }

      .cls-10 {
        fill: #414042;
      }
    </style>
    <filter id="drop-shadow-1" filterUnits="userSpaceOnUse">
      <feOffset dx="7" dy="7"/>
      <feGaussianBlur result="blur" stdDeviation="5"/>
      <feFlood flood-color="#000" flood-opacity="1"/>
      <feComposite in2="blur" operator="in"/>
      <feComposite in="SourceGraphic"/>
    </filter>
    <filter id="outer-glow-2" filterUnits="userSpaceOnUse">
      <feOffset dx="0" dy="0"/>
      <feGaussianBlur result="blur-2" stdDeviation="5"/>
      <feFlood flood-color="#231f20" flood-opacity=".7"/>
      <feComposite in2="blur-2" operator="in"/>
      <feComposite in="SourceGraphic"/>
    </filter>
  </defs>
  <g id="keyboard" class="cls-5">
    <path id="keyboard-shading" class="cls-9" d="M236.12,162.87L95.72,243.17c-1.76,1.01-3.94,.99-5.64-.06L3.64,190.05c-4.57-2.81-2.17-9.9,3.49-10.42l228.86-20.96,.12,4.2Z"/>
    <path id="keyboard-top" class="cls-6" d="M234.16,160.36L95.5,238.32c-2.19,1.23-5.54,1.24-7.48,.02L3.42,185.22c-1.86-1.17-1.63-3.09,.51-4.3L139.41,104.54c2.15-1.21,5.46-1.28,7.39-.14l87.7,51.58c2.01,1.18,1.86,3.15-.34,4.38Z"/>
    <g id="buttons">
      <g>
        <path class="cls-7" d="M48.76,182.95l-6.24,3.52c-.43,.24-1.09,.25-1.46,.01l-5.45-3.4c-.38-.23-.33-.62,.1-.86l6.23-3.51c.43-.24,1.08-.25,1.46-.02l5.47,3.39c.38,.23,.33,.62-.1,.86Z"/>
        <path class="cls-7" d="M58.9,177.23l-6.24,3.52c-.43,.24-1.09,.25-1.46,.01l-5.47-3.39c-.38-.23-.33-.62,.1-.86l6.23-3.51c.43-.24,1.09-.25,1.46-.02l5.48,3.39c.38,.23,.34,.62-.09,.86Z"/>
        <path class="cls-7" d="M69.13,171.47l-6.24,3.52c-.43,.24-1.09,.25-1.47,.02l-5.48-3.38c-.38-.23-.34-.62,.09-.86l6.23-3.51c.43-.24,1.09-.25,1.46-.02l5.49,3.38c.38,.23,.34,.62-.09,.86Z"/>
        <path class="cls-7" d="M79.27,165.75l-6.25,3.52c-.43,.24-1.09,.25-1.47,.02l-5.5-3.38c-.38-.23-.34-.62,.09-.86l6.23-3.51c.43-.24,1.09-.25,1.47-.02l5.51,3.37c.38,.23,.34,.62-.09,.86Z"/>
        <path class="cls-7" d="M89.04,160.25l-6.25,3.52c-.43,.24-1.09,.25-1.47,.02l-5.51-3.37c-.38-.23-.34-.62,.09-.86l6.24-3.51c.43-.24,1.09-.25,1.47-.02l5.52,3.37c.38,.23,.34,.62-.09,.86Z"/>
        <path class="cls-7" d="M98.82,154.74l-6.25,3.52c-.43,.24-1.09,.25-1.47,.02l-5.52-3.36c-.38-.23-.34-.62,.09-.86l6.24-3.52c.43-.24,1.09-.25,1.47-.02l5.53,3.36c.38,.23,.34,.62-.09,.86Z"/>
        <path class="cls-7" d="M109.06,148.97l-6.25,3.52c-.43,.24-1.09,.25-1.47,.02l-5.54-3.36c-.38-.23-.34-.62,.09-.86l6.24-3.52c.43-.24,1.09-.25,1.47-.02l5.55,3.35c.38,.23,.34,.62-.09,.86Z"/>
        <path class="cls-7" d="M119.22,143.25l-6.25,3.52c-.43,.24-1.09,.25-1.48,.02l-5.55-3.35c-.38-.23-.34-.61,.09-.86l6.24-3.52c.43-.24,1.09-.25,1.47-.02l5.56,3.34c.38,.23,.35,.62-.09,.86Z"/>
        <path class="cls-7" d="M129.29,137.57l-6.25,3.52c-.43,.24-1.09,.25-1.48,.02l-5.57-3.34c-.38-.23-.35-.61,.09-.86l6.24-3.52c.43-.24,1.09-.25,1.48-.02l5.58,3.34c.39,.23,.35,.62-.08,.86Z"/>
        <path class="cls-7" d="M139.54,131.8l-6.26,3.52c-.43,.24-1.09,.25-1.48,.02l-5.58-3.34c-.38-.23-.35-.61,.08-.86l6.24-3.52c.43-.24,1.09-.25,1.48-.02l5.59,3.33c.39,.23,.35,.61-.08,.86Z"/>
        <path class="cls-7" d="M149.71,126.07l-6.26,3.53c-.43,.24-1.1,.25-1.48,.02l-5.59-3.33c-.39-.23-.35-.61,.08-.86l6.25-3.52c.43-.24,1.09-.25,1.48-.03l5.61,3.32c.39,.23,.35,.61-.08,.86Z"/>
        <path class="cls-7" d="M60.62,189.77l-6.26,3.52c-.43,.24-1.09,.25-1.47,.01l-5.49-3.42c-.38-.24-.34-.62,.1-.87l6.25-3.52c.43-.24,1.09-.25,1.47-.01l5.5,3.41c.38,.24,.34,.62-.09,.87Z"/>
        <path class="cls-7" d="M70.79,184.04l-6.26,3.53c-.43,.24-1.09,.25-1.47,.01l-5.5-3.41c-.38-.24-.34-.62,.09-.87l6.25-3.52c.43-.24,1.09-.25,1.47-.02l5.51,3.4c.38,.24,.34,.62-.09,.87Z"/>
        <path class="cls-7" d="M81.05,178.26l-6.26,3.53c-.43,.24-1.09,.25-1.47,.01l-5.51-3.4c-.38-.23-.34-.62,.09-.86l6.25-3.52c.43-.24,1.09-.25,1.47-.02l5.52,3.4c.38,.23,.34,.62-.09,.87Z"/>
        <path class="cls-7" d="M91.22,172.53l-6.26,3.53c-.43,.24-1.09,.25-1.47,.02l-5.53-3.4c-.38-.23-.34-.62,.09-.86l6.25-3.52c.43-.24,1.09-.25,1.47-.02l5.54,3.39c.38,.23,.34,.62-.09,.87Z"/>
        <path class="cls-7" d="M101.02,167.01l-6.27,3.53c-.43,.24-1.09,.25-1.48,.02l-5.54-3.39c-.38-.23-.34-.62,.09-.86l6.25-3.52c.43-.24,1.09-.25,1.47-.02l5.55,3.38c.38,.23,.34,.62-.09,.86Z"/>
        <path class="cls-7" d="M110.82,161.49l-6.27,3.53c-.43,.24-1.09,.25-1.48,.02l-5.55-3.38c-.38-.23-.34-.62,.09-.86l6.26-3.52c.43-.24,1.09-.25,1.48-.02l5.57,3.38c.38,.23,.35,.62-.09,.86Z"/>
        <path class="cls-7" d="M121.09,155.71l-6.27,3.53c-.43,.24-1.1,.25-1.48,.02l-5.57-3.38c-.38-.23-.34-.62,.09-.86l6.26-3.53c.43-.24,1.09-.25,1.48-.02l5.58,3.37c.39,.23,.35,.62-.09,.86Z"/>
        <path class="cls-7" d="M131.28,149.97l-6.27,3.53c-.43,.24-1.1,.25-1.48,.02l-5.58-3.37c-.38-.23-.35-.62,.09-.86l6.26-3.53c.43-.24,1.1-.25,1.48-.02l5.59,3.36c.39,.23,.35,.62-.08,.86Z"/>
        <path class="cls-7" d="M141.39,144.28l-6.27,3.53c-.43,.24-1.1,.25-1.48,.02l-5.6-3.36c-.39-.23-.35-.62,.08-.86l6.26-3.53c.43-.24,1.1-.25,1.48-.02l5.61,3.36c.39,.23,.35,.62-.08,.86Z"/>
        <path class="cls-7" d="M151.66,138.49l-6.27,3.53c-.43,.24-1.1,.25-1.49,.02l-5.61-3.35c-.39-.23-.35-.62,.08-.86l6.26-3.53c.43-.24,1.1-.25,1.48-.02l5.62,3.35c.39,.23,.35,.62-.08,.86Z"/>
        <path class="cls-7" d="M161.86,132.75l-6.28,3.53c-.43,.24-1.1,.25-1.49,.02l-5.63-3.35c-.39-.23-.35-.62,.08-.86l6.26-3.53c.43-.24,1.1-.25,1.49-.02l5.64,3.34c.39,.23,.35,.62-.08,.86Z"/>
        <path class="cls-7" d="M72.08,196.89l-6.28,3.53c-.43,.24-1.09,.25-1.47,.01l-5.52-3.44c-.38-.24-.34-.63,.09-.87l6.27-3.53c.43-.24,1.09-.25,1.47-.01l5.53,3.43c.38,.24,.34,.63-.09,.87Z"/>
        <path class="cls-7" d="M82.28,191.14l-6.28,3.53c-.43,.24-1.09,.25-1.48,.01l-5.53-3.43c-.38-.24-.34-.63,.09-.87l6.27-3.53c.43-.24,1.09-.25,1.47-.01l5.54,3.42c.38,.24,.34,.63-.09,.87Z"/>
        <path class="cls-7" d="M92.57,185.35l-6.28,3.54c-.43,.24-1.1,.25-1.48,.01l-5.54-3.42c-.38-.24-.34-.62,.09-.87l6.27-3.53c.43-.24,1.09-.25,1.48-.01l5.55,3.42c.38,.24,.34,.63-.09,.87Z"/>
        <path class="cls-7" d="M102.78,179.6l-6.28,3.54c-.43,.24-1.1,.25-1.48,.01l-5.56-3.41c-.38-.24-.34-.62,.09-.87l6.27-3.53c.43-.24,1.1-.25,1.48-.02l5.57,3.41c.38,.24,.35,.62-.09,.87Z"/>
        <path class="cls-7" d="M112.6,174.07l-6.28,3.54c-.43,.24-1.1,.25-1.48,.02l-5.57-3.41c-.38-.23-.34-.62,.09-.87l6.27-3.53c.43-.24,1.1-.25,1.48-.02l5.58,3.4c.39,.24,.35,.62-.09,.87Z"/>
        <path class="cls-7" d="M122.43,168.54l-6.29,3.54c-.43,.24-1.1,.25-1.48,.02l-5.59-3.4c-.39-.23-.35-.62,.09-.87l6.27-3.53c.43-.24,1.1-.25,1.48-.02l5.6,3.4c.39,.23,.35,.62-.09,.87Z"/>
        <path class="cls-7" d="M132.73,162.74l-6.29,3.54c-.43,.24-1.1,.25-1.49,.02l-5.6-3.39c-.39-.23-.35-.62,.09-.87l6.28-3.53c.43-.24,1.1-.25,1.48-.02l5.61,3.39c.39,.23,.35,.62-.08,.87Z"/>
        <path class="cls-7" d="M142.95,156.99l-6.29,3.54c-.43,.24-1.1,.25-1.49,.02l-5.61-3.39c-.39-.23-.35-.62,.08-.86l6.28-3.54c.43-.24,1.1-.25,1.49-.02l5.62,3.38c.39,.23,.35,.62-.08,.87Z"/>
        <path class="cls-7" d="M153.08,151.28l-6.29,3.54c-.43,.24-1.1,.25-1.49,.02l-5.63-3.38c-.39-.23-.35-.62,.08-.86l6.28-3.54c.43-.24,1.1-.25,1.49-.02l5.64,3.37c.39,.23,.35,.62-.08,.87Z"/>
        <path class="cls-7" d="M163.39,145.48l-6.29,3.54c-.43,.24-1.1,.25-1.49,.02l-5.64-3.37c-.39-.23-.35-.62,.08-.86l6.28-3.54c.43-.24,1.1-.25,1.49-.02l5.65,3.37c.39,.23,.36,.62-.08,.86Z"/>
        <path class="cls-7" d="M173.62,139.72l-6.29,3.54c-.43,.24-1.1,.25-1.49,.02l-5.66-3.37c-.39-.23-.35-.62,.08-.86l6.28-3.54c.43-.24,1.1-.25,1.49-.02l5.67,3.36c.39,.23,.36,.62-.08,.86Z"/>
        <path class="cls-7" d="M83.55,204.08l-6.29,3.54c-.43,.24-1.1,.25-1.48,.01l-5.55-3.45c-.38-.24-.34-.63,.09-.87l6.28-3.54c.43-.24,1.1-.25,1.48-.01l5.56,3.45c.38,.24,.34,.63-.09,.87Z"/>
        <path class="cls-7" d="M93.78,198.32l-6.3,3.54c-.43,.24-1.1,.25-1.48,.01l-5.56-3.45c-.38-.24-.34-.63,.09-.87l6.29-3.54c.43-.24,1.1-.25,1.48-.01l5.57,3.44c.39,.24,.34,.63-.09,.87Z"/>
        <path class="cls-7" d="M104.09,192.51l-6.3,3.54c-.43,.24-1.1,.25-1.48,.01l-5.57-3.44c-.38-.24-.34-.63,.09-.87l6.29-3.54c.43-.24,1.1-.25,1.48-.01l5.59,3.43c.39,.24,.35,.63-.09,.87Z"/>
        <path class="cls-7" d="M114.33,186.75l-6.3,3.55c-.43,.24-1.1,.25-1.49,.01l-5.59-3.43c-.39-.24-.35-.63,.09-.87l6.29-3.54c.43-.24,1.1-.25,1.49-.01l5.6,3.43c.39,.24,.35,.63-.09,.87Z"/>
        <path class="cls-7" d="M127.19,179.51l-9.11,5.13c-.51,.29-1.3,.3-1.76,.02l-5.35-3.27c-.46-.28-.41-.74,.1-1.03l9.09-5.12c.51-.29,1.3-.3,1.76-.02l5.36,3.26c.46,.28,.41,.74-.1,1.03Z"/>
        <path class="cls-7" d="M134.04,175.65l-6.3,3.55c-.44,.24-1.1,.25-1.49,.02l-5.62-3.42c-.39-.24-.35-.63,.09-.87l6.29-3.54c.43-.24,1.1-.25,1.49-.02l5.63,3.41c.39,.24,.35,.63-.08,.87Z"/>
        <path class="cls-7" d="M144.25,169.91l-9.95,5.6c-.53,.3-1.35,.31-1.83,.02l-5.3-3.22c-.48-.29-.43-.77,.1-1.07l9.93-5.59c.53-.3,1.35-.31,1.83-.02l5.32,3.21c.48,.29,.43,.77-.1,1.07Z"/>
        <path class="cls-7" d="M154.62,164.07l-6.31,3.55c-.44,.25-1.1,.25-1.49,.02l-5.64-3.41c-.39-.23-.35-.62,.08-.87l6.3-3.54c.43-.24,1.1-.25,1.49-.02l5.66,3.4c.39,.24,.36,.62-.08,.87Z"/>
        <path class="cls-7" d="M164.78,158.35l-6.31,3.55c-.44,.25-1.11,.25-1.5,.02l-5.66-3.4c-.39-.23-.35-.62,.08-.87l6.3-3.55c.43-.24,1.1-.25,1.49-.02l5.67,3.39c.39,.23,.36,.62-.08,.87Z"/>
        <path class="cls-7" d="M175.12,152.53l-6.31,3.55c-.44,.25-1.11,.25-1.5,.02l-5.67-3.39c-.39-.23-.36-.62,.08-.87l6.3-3.55c.43-.24,1.11-.25,1.5-.02l5.68,3.39c.39,.23,.36,.62-.08,.87Z"/>
        <path class="cls-7" d="M185.38,146.76l-6.31,3.55c-.44,.25-1.11,.25-1.5,.02l-5.69-3.38c-.39-.23-.36-.62,.08-.87l6.3-3.55c.44-.24,1.11-.25,1.5-.02l5.7,3.38c.39,.23,.36,.62-.08,.87Z"/>
        <path class="cls-7" d="M37.36,175.42l-6.82,3.84c-.27,.15-.67,.15-.9,0l-1.75-1.09c-.23-.14-.2-.38,.06-.53l6.81-3.84c.27-.15,.67-.15,.9,0l1.75,1.09c.23,.14,.21,.38-.06,.53Z"/>
        <path class="cls-7" d="M47.47,169.72l-6.82,3.84c-.27,.15-.67,.15-.9,0l-1.75-1.09c-.23-.14-.21-.38,.06-.53l6.81-3.84c.27-.15,.67-.15,.9-.01l1.76,1.09c.23,.14,.21,.38-.06,.53Z"/>
        <path class="cls-7" d="M57.67,163.97l-6.82,3.84c-.27,.15-.67,.15-.9,.01l-1.76-1.09c-.23-.14-.21-.38,.06-.53l6.82-3.84c.27-.15,.67-.15,.9-.01l1.76,1.08c.23,.14,.21,.38-.06,.53Z"/>
        <path class="cls-7" d="M67.78,158.27l-6.82,3.84c-.27,.15-.67,.15-.9,.01l-1.76-1.08c-.23-.14-.21-.38,.06-.53l6.82-3.84c.27-.15,.67-.15,.9-.01l1.77,1.08c.23,.14,.21,.38-.06,.53Z"/>
        <path class="cls-7" d="M77.52,152.78l-6.82,3.85c-.27,.15-.67,.15-.9,.01l-1.77-1.08c-.23-.14-.21-.38,.06-.53l6.82-3.84c.27-.15,.67-.16,.9-.01l1.77,1.08c.23,.14,.21,.38-.06,.53Z"/>
        <path class="cls-7" d="M87.27,147.29l-6.83,3.85c-.27,.15-.67,.16-.91,.01l-1.77-1.08c-.23-.14-.21-.38,.06-.53l6.82-3.84c.27-.15,.67-.16,.91-.01l1.78,1.08c.23,.14,.21,.38-.06,.53Z"/>
        <path class="cls-7" d="M97.48,141.54l-6.83,3.85c-.27,.15-.67,.16-.91,.01l-1.78-1.08c-.23-.14-.21-.38,.06-.53l6.82-3.85c.27-.15,.67-.16,.91-.01l1.78,1.08c.24,.14,.21,.38-.05,.53Z"/>
        <path class="cls-7" d="M107.61,135.83l-6.83,3.85c-.27,.15-.67,.16-.91,.01l-1.78-1.07c-.24-.14-.21-.38,.05-.53l6.83-3.85c.27-.15,.67-.16,.91-.01l1.78,1.07c.24,.14,.21,.38-.05,.53Z"/>
        <path class="cls-7" d="M117.65,130.16l-6.83,3.85c-.27,.15-.67,.16-.91,.01l-1.79-1.07c-.24-.14-.21-.38,.05-.53l6.83-3.85c.27-.15,.67-.16,.91-.01l1.79,1.07c.24,.14,.21,.38-.05,.53Z"/>
        <path class="cls-7" d="M127.87,124.41l-6.83,3.85c-.27,.15-.67,.16-.91,.01l-1.79-1.07c-.24-.14-.21-.38,.05-.53l6.83-3.85c.27-.15,.67-.16,.91-.02l1.79,1.07c.24,.14,.21,.38-.05,.53Z"/>
        <path class="cls-7" d="M138.01,118.69l-6.84,3.85c-.27,.15-.67,.16-.91,.02l-1.79-1.07c-.24-.14-.21-.38,.05-.53l6.83-3.85c.27-.15,.67-.16,.91-.02l1.8,1.07c.24,.14,.22,.38-.05,.53Z"/>
        <path class="cls-1" d="M176.1,185.93l-31.46,17.69c-2.52,1.42-6.38,1.44-8.63,.06l-14.23-8.73c-2.23-1.37-2.01-3.62,.49-5.03l31.28-17.6c2.51-1.41,6.36-1.45,8.62-.1l14.37,8.66c2.27,1.37,2.07,3.63-.45,5.04Z"/>
      </g>
    </g>
  </g>
  <g id="screen" class="cls-8">
    <g id="monitor">
      <path id="rim" class="cls-4" d="M138.38,105.81L7.12,180.4c-2.22,1.26-4.03,.23-4.05-2.31l-.57-93.58c-.02-2.51,1.76-5.57,3.97-6.83L136.98,3.05c2.23-1.27,4.06-.27,4.09,2.24l1.3,93.61c.04,2.54-1.75,5.63-3.99,6.9Z"/>
    </g>
    <g id="logo">
      <path class="cls-3" d="M131.8,79.82L15.36,146.1c-1.33,.76-2.42,.14-2.43-1.38l-.26-38.52c-.01-1.52,1.06-3.36,2.39-4.12L131.21,35.78c1.34-.77,2.45-.16,2.47,1.36l.52,38.53c.02,1.52-1.05,3.38-2.4,4.15Z"/>
      <polygon id="blink" class="cls-2" points="122.61 75.3 112.54 81.03 112.23 55.23 122.28 49.5 122.61 75.3"/>
      <g>
        <path class="cls-2" d="M30.03,112.48v.81l-2.82,2.42v-1.61c-.01-.23-.08-.38-.22-.46-.14-.08-.31-.06-.5,.05s-.37,.29-.5,.52c-.14,.23-.2,.46-.2,.69l.02,2.42c0,.23,.07,.38,.21,.46,.14,.08,.31,.06,.5-.05,.98-.56,1.82-.64,2.51-.25,.69,.39,1.05,1.15,1.05,2.27l.02,2.42c0,1.12-.33,2.27-1.01,3.45-.68,1.18-1.52,2.05-2.5,2.61s-1.82,.64-2.51,.25c-.69-.39-1.05-1.15-1.05-2.27v-.81l2.82-2.42v1.61c.01,.23,.08,.38,.22,.46,.14,.08,.31,.06,.5-.05s.37-.29,.5-.52c.14-.23,.2-.46,.2-.69l-.02-2.42c0-.23-.07-.38-.21-.46-.14-.08-.31-.06-.5,.05-.98,.56-1.82,.64-2.51,.25-.69-.39-1.05-1.15-1.05-2.27l-.02-2.42c0-1.12,.33-2.26,1.01-3.44,.68-1.18,1.51-2.04,2.49-2.6s1.82-.64,2.51-.25c.69,.39,1.05,1.15,1.05,2.26Z"/>
        <path class="cls-2" d="M35.77,118.93v-1.61l2.83-.81v.81c.02,1.12-.32,2.27-1,3.45-.68,1.18-1.52,2.05-2.5,2.61s-1.82,.64-2.52,.25c-.7-.39-1.05-1.15-1.06-2.27l-.07-9.68c0-1.12,.33-2.26,1.01-3.44,.68-1.18,1.51-2.04,2.5-2.6s1.82-.64,2.51-.25c.7,.39,1.05,1.15,1.06,2.26v.81l-2.82,2.42v-1.61c-.01-.23-.08-.38-.22-.46-.14-.08-.31-.06-.5,.05s-.37,.29-.5,.52c-.14,.23-.2,.46-.2,.69l.08,9.68c0,.23,.07,.38,.21,.46,.14,.08,.31,.06,.5-.05s.37-.29,.5-.52c.14-.23,.2-.46,.2-.69Z"/>
        <path class="cls-2" d="M47.02,102.79l.12,13.71-2.84,1.62-.12-13.71c0-.23-.07-.38-.21-.46-.14-.08-.31-.06-.5,.05s-.37,.29-.5,.52c-.14,.23-.2,.46-.2,.69l.11,13.71-2.83,1.61-.18-22.57,2.83-1.61,.04,4.91c.23-.18,.46-.34,.71-.48,.98-.56,1.82-.64,2.52-.25,.7,.39,1.05,1.15,1.06,2.26Z"/>
        <path class="cls-2" d="M48.4,97.95l1.42-.81,.22,.49c.56-.73,1.2-1.3,1.91-1.7,.98-.56,1.82-.65,2.52-.25,.7,.39,1.05,1.15,1.06,2.26v.81l-2.82,2.42v-1.61c-.02-.23-.09-.38-.22-.46-.14-.08-.31-.06-.51,.05s-.37,.29-.5,.52c-.14,.23-.2,.46-.2,.69l.12,13.71-2.84,1.62-.15-17.74Z"/>
        <path class="cls-2" d="M56.94,97.13c-.01-1.12,.33-2.26,1.01-3.44,.68-1.18,1.52-2.05,2.5-2.61s1.82-.65,2.52-.25c.7,.39,1.05,1.14,1.06,2.26l.06,6.45-4.26,2.43,.03,3.23c0,.23,.07,.38,.21,.46,.14,.08,.31,.06,.51-.05s.37-.29,.5-.52c.14-.23,.2-.46,.2-.69l-.02-1.61,2.85-.81v.81c.02,1.12-.32,2.27-1,3.45-.68,1.18-1.52,2.05-2.5,2.61s-1.83,.64-2.52,.25c-.7-.39-1.05-1.15-1.06-2.27l-.09-9.68Zm4.25-2.43c0-.23-.07-.38-.21-.45-.14-.08-.31-.06-.51,.05s-.37,.29-.5,.52c-.14,.23-.2,.46-.2,.69l.03,3.22,1.42-.81-.03-3.22Z"/>
        <path class="cls-2" d="M65.4,86.64l-.03-3.22,2.84-1.62,.03,3.22-2.84,1.62Zm2.85,0l.17,17.74-2.84,1.62-.17-17.74,2.84-1.62Z"/>
        <path class="cls-2" d="M72.5,84.29c.23-.18,.46-.34,.71-.49,.98-.56,1.83-.65,2.52-.26,.7,.39,1.05,1.14,1.07,2.26l.1,9.68c.01,1.12-.32,2.27-1.01,3.45-.68,1.18-1.52,2.05-2.5,2.61-.71,.4-1.35,.56-1.92,.48l-.21,.73-1.42,.81-.22-22.57,2.84-1.62,.05,4.91Zm1.46,3.14c0-.23-.07-.38-.21-.45s-.31-.06-.51,.05-.37,.29-.5,.52-.2,.46-.2,.69l.1,9.68c0,.23,.07,.38,.21,.46s.31,.06,.51-.05,.37-.29,.5-.52,.2-.46,.2-.69l-.1-9.68Z"/>
        <path class="cls-10" d="M78.26,89.03l-.03-3.22c1.41-1.88,2.83-2.69,4.26-2.43s2.85-.54,4.26-2.43l.03,3.22c-1.41,1.89-2.83,2.69-4.26,2.43s-2.85,.54-4.26,2.43Z"/>
        <path class="cls-10" d="M95.86,64.41l-5.26,28.96-2.99,1.7,5.26-28.96,2.98-1.7Z"/>
        <path class="cls-10" d="M98.73,64.72l-.02-1.93,2.84-1.62,.02,1.93c.4-.03,.77,.04,1.1,.23,.7,.39,1.06,1.14,1.07,2.26l.02,1.61-2.83,2.43-.03-2.42c0-.23-.07-.38-.21-.45s-.31-.06-.51,.05-.37,.29-.5,.52-.2,.46-.2,.69l.06,4.83c0,.23,.07,.38,.21,.45s.31,.06,.51-.05c.99-.56,1.83-.65,2.53-.26s1.06,1.14,1.07,2.26l.06,4.84c.01,1.12-.32,2.27-1.01,3.45-.33,.57-.69,1.06-1.09,1.48l.02,1.94-2.85,1.62-.02-1.94c-.4,.03-.77-.04-1.11-.23-.7-.39-1.06-1.15-1.07-2.27l-.02-1.61,2.84-2.43,.03,2.42c0,.23,.07,.38,.21,.46s.31,.06,.51-.05,.37-.29,.5-.52,.2-.46,.2-.69l-.06-4.84c0-.23-.07-.38-.21-.45s-.31-.06-.51,.05c-.99,.56-1.83,.65-2.53,.26s-1.06-1.14-1.07-2.26l-.05-4.83c-.01-1.12,.32-2.26,1.01-3.44,.33-.56,.69-1.06,1.08-1.48Z"/>
      </g>
    </g>
  </g>
</svg>