<svg xmlns="http://www.w3.org/2000/svg" viewBox="-0.03 96.87 199.27 58.15">
  <defs>
    <style>
      .a {
        fill: #f1f2f2;
      }
    </style>
  </defs>
  <text/>
  <path class="a" d="M20.75,107.28v4.15l-8.3,2.07v-6.22a2,2,0,0,0-.6-1.48,2.11,2.11,0,0,0-2.95,0,2,2,0,0,0-.6,1.48v12.45a2,2,0,0,0,2.08,2.07,10,10,0,0,1,7.34,3,10,10,0,0,1,3,7.35v12.45a10,10,0,0,1-3,7.35,10,10,0,0,1-7.34,3A10,10,0,0,1,3,152a10,10,0,0,1-3-7.35v-4.15l8.3-2.07v6.22a2,2,0,0,0,.6,1.48,2.11,2.11,0,0,0,2.95,0,2,2,0,0,0,.6-1.48V132.18a2,2,0,0,0-2.07-2.07,10,10,0,0,1-7.35-3,10,10,0,0,1-3-7.35V107.28a10,10,0,0,1,3-7.35,10,10,0,0,1,7.35-3,10,10,0,0,1,7.34,3A10,10,0,0,1,20.75,107.28Z"/>
  <path class="a" d="M45.65,107.28v4.15l-8.3,2.07v-6.22a2,2,0,0,0-.6-1.48,2,2,0,0,0-1.47-.6,2,2,0,0,0-2.08,2.08v37.35a2,2,0,0,0,2.08,2.08,2,2,0,0,0,1.47-.6,2,2,0,0,0,.6-1.48v-6.22l8.3,2.07v4.15A10.35,10.35,0,0,1,35.28,155,10.35,10.35,0,0,1,24.9,144.63V107.28A10.35,10.35,0,0,1,35.28,96.9a10.35,10.35,0,0,1,10.37,10.38Z"/>
  <path class="a" d="M58.11,130.11V155H49.8V96.9h8.31v24.9h4.15V96.9h8.3V155h-8.3v-24.9Z"/>
  <path class="a" d="M83,130.11V155h-8.3V96.9H85.08a10.35,10.35,0,0,1,10.38,10.38v12.45a10.11,10.11,0,0,1-2,6.23,10.06,10.06,0,0,1,2,6.22V155h-8.3V132.18a2,2,0,0,0-.6-1.47,2,2,0,0,0-1.48-.6Zm0-24.91v16.6h2.07a2,2,0,0,0,1.48-.6,2,2,0,0,0,.6-1.47V107.28a2,2,0,0,0-2.08-2.08Z"/>
  <path class="a" d="M107.91,146.71h8.3V155H99.61V96.9h16.6v8.3h-8.3v16.6h6.23v8.31h-6.23Z"/>
  <path class="a" d="M128.66,96.9V155h-8.3V96.9Z"/>
  <path class="a" d="M132.81,155V96.9h10.38a10.35,10.35,0,0,1,10.37,10.38v12.45a10.05,10.05,0,0,1-2,6.23,10,10,0,0,1,2,6.22v12.45A10.35,10.35,0,0,1,143.19,155Zm8.3-49.81v16.6h2.08a2,2,0,0,0,2.07-2.07V107.28a2,2,0,0,0-.6-1.48,2,2,0,0,0-1.47-.6Zm0,24.91v16.6h2.08a2,2,0,0,0,1.47-.6,2,2,0,0,0,.6-1.48V132.18a2,2,0,0,0-2.07-2.07Z"/>
  <path class="a" d="M166,146.71h8.3V155H157.71V96.9h16.61v8.3H166v16.6h6.22v8.31H166Z"/>
  <path class="a" d="M186.77,130.11V155h-8.3V96.9h10.37a10.35,10.35,0,0,1,10.38,10.38v12.45a10.11,10.11,0,0,1-2,6.23,10.06,10.06,0,0,1,2,6.22V155h-8.3V132.18a2,2,0,0,0-.6-1.47,2,2,0,0,0-1.48-.6Zm0-24.91v16.6h2.07a2,2,0,0,0,1.48-.6,2,2,0,0,0,.6-1.47V107.28a2,2,0,0,0-2.08-2.08Z"/>
  <text/>
</svg>