<svg xmlns="http://www.w3.org/2000/svg" viewBox="0 0 199.22 155.01">
  <defs>
    <style>
      .a {
        fill: #f1f2f2;
      }

      .b {
        fill: #231f20;
      }

      .c {
        fill: #414042;
      }
    </style>
  </defs>
  <text />
  <rect class="a" x="0.31" width="198.91" height="80.29" rx="5" />
  <path class="a" d="M20.75,107.28v4.15l-8.3,2.07v-6.22a2,2,0,0,0-.6-1.48,2.11,2.11,0,0,0-2.95,0,2,2,0,0,0-.6,1.48v12.45a2,2,0,0,0,2.08,2.07,10,10,0,0,1,7.34,3,10,10,0,0,1,3,7.35v12.45a10,10,0,0,1-3,7.35,10,10,0,0,1-7.34,3A10,10,0,0,1,3,152a10,10,0,0,1-3-7.35v-4.15l8.3-2.07v6.22a2,2,0,0,0,.6,1.48,2.11,2.11,0,0,0,2.95,0,2,2,0,0,0,.6-1.48V132.18a2,2,0,0,0-2.07-2.07,10,10,0,0,1-7.35-3,10,10,0,0,1-3-7.35V107.28a10,10,0,0,1,3-7.35,10,10,0,0,1,7.35-3,10,10,0,0,1,7.34,3A10,10,0,0,1,20.75,107.28Z" />
  <path class="a" d="M45.65,107.28v4.15l-8.3,2.07v-6.22a2,2,0,0,0-.6-1.48,2,2,0,0,0-1.47-.6,2,2,0,0,0-2.08,2.08v37.35a2,2,0,0,0,2.08,2.08,2,2,0,0,0,1.47-.6,2,2,0,0,0,.6-1.48v-6.22l8.3,2.07v4.15A10.35,10.35,0,0,1,35.28,155,10.35,10.35,0,0,1,24.9,144.63V107.28A10.35,10.35,0,0,1,35.28,96.9a10.35,10.35,0,0,1,10.37,10.38Z" />
  <path class="a" d="M58.11,130.11V155H49.8V96.9h8.31v24.9h4.15V96.9h8.3V155h-8.3v-24.9Z" />
  <path class="a" d="M83,130.11V155h-8.3V96.9H85.08a10.35,10.35,0,0,1,10.38,10.38v12.45a10.11,10.11,0,0,1-2,6.23,10.06,10.06,0,0,1,2,6.22V155h-8.3V132.18a2,2,0,0,0-.6-1.47,2,2,0,0,0-1.48-.6Zm0-24.91v16.6h2.07a2,2,0,0,0,1.48-.6,2,2,0,0,0,.6-1.47V107.28a2,2,0,0,0-2.08-2.08Z" />
  <path class="a" d="M107.91,146.71h8.3V155H99.61V96.9h16.6v8.3h-8.3v16.6h6.23v8.31h-6.23Z" />
  <path class="a" d="M128.66,96.9V155h-8.3V96.9Z" />
  <path class="a" d="M132.81,155V96.9h10.38a10.35,10.35,0,0,1,10.37,10.38v12.45a10.05,10.05,0,0,1-2,6.23,10,10,0,0,1,2,6.22v12.45A10.35,10.35,0,0,1,143.19,155Zm8.3-49.81v16.6h2.08a2,2,0,0,0,2.07-2.07V107.28a2,2,0,0,0-.6-1.48,2,2,0,0,0-1.47-.6Zm0,24.91v16.6h2.08a2,2,0,0,0,1.47-.6,2,2,0,0,0,.6-1.48V132.18a2,2,0,0,0-2.07-2.07Z" />
  <path class="a" d="M166,146.71h8.3V155H157.71V96.9h16.61v8.3H166v16.6h6.22v8.31H166Z" />
  <path class="a" d="M186.77,130.11V155h-8.3V96.9h10.37a10.35,10.35,0,0,1,10.38,10.38v12.45a10.11,10.11,0,0,1-2,6.23,10.06,10.06,0,0,1,2,6.22V155h-8.3V132.18a2,2,0,0,0-.6-1.47,2,2,0,0,0-1.48-.6Zm0-24.91v16.6h2.07a2,2,0,0,0,1.48-.6,2,2,0,0,0,.6-1.47V107.28a2,2,0,0,0-2.08-2.08Z" />
  <path class="b" d="M15.81,26.22A9.16,9.16,0,0,1,17.64,26,9.13,9.13,0,0,1,26.8,35.2v22a8.79,8.79,0,0,1-2.68,6.48,8.82,8.82,0,0,1-6.48,2.67,9,9,0,0,1-4.94-1.39l-.55,1.39H8.49V15.05h7.32Zm3.66,9a1.73,1.73,0,0,0-.53-1.3,1.83,1.83,0,0,0-3.13,1.3v22a1.84,1.84,0,0,0,3.13,1.3,1.76,1.76,0,0,0,.53-1.3Z" />
  <path class="b" d="M31.21,35.2A9.12,9.12,0,0,1,40.36,26a9.12,9.12,0,0,1,9.16,9.16V49.84h-11v7.33A1.81,1.81,0,0,0,40.36,59a1.83,1.83,0,0,0,1.84-1.83V53.51l7.32,1.83v1.83a9.12,9.12,0,0,1-9.16,9.15,9.12,9.12,0,0,1-9.15-9.15Zm11,0a1.84,1.84,0,0,0-1.84-1.84,1.83,1.83,0,0,0-1.83,1.84v7.32H42.2Z" />
  <path class="b" d="M72.24,35.2V66.32H64.92V35.2a1.83,1.83,0,0,0-1.83-1.84,1.83,1.83,0,0,0-1.83,1.84V66.32H53.93V26h3.66l.55,1.39a9.06,9.06,0,0,1,5-1.39,9.12,9.12,0,0,1,9.15,9.16Z" />
  <path class="c" d="M76.65,44.35V37a9.17,9.17,0,0,1,11,0,9.17,9.17,0,0,0,11,0v7.32a9.17,9.17,0,0,1-11,0A9.17,9.17,0,0,0,76.65,44.35Z" />
  <path class="c" d="M123.18,11.39,108.9,70h-7.69l14.28-58.6Z" />
  <path class="c" d="M131.26,15.79v-4.4h7.32v4.4a9,9,0,0,1,2.82,1.94,8.82,8.82,0,0,1,2.67,6.48v3.66l-7.32,1.83V24.21a1.84,1.84,0,0,0-3.13-1.3,1.74,1.74,0,0,0-.53,1.3v11A1.81,1.81,0,0,0,134.92,37a9.12,9.12,0,0,1,9.15,9.15v11a8.82,8.82,0,0,1-2.67,6.48,9,9,0,0,1-2.82,1.94V70h-7.32v-4.4a9.23,9.23,0,0,1-5.5-8.42V53.51l7.33-1.83v5.49A1.81,1.81,0,0,0,134.92,59a1.81,1.81,0,0,0,1.83-1.83v-11a1.81,1.81,0,0,0-1.83-1.83,9.13,9.13,0,0,1-9.16-9.15v-11a9.23,9.23,0,0,1,5.5-8.42Z" />
  <rect class="c" x="164.31" y="11.39" width="25.95" height="58.78" >
  <animate
    attributeName="fill"
    values="#414042;transparent"
    begin="0s"
    dur="2s"
    calcMode="discrete"
    repeatCount="indefinite"/>
  </rect>
  <text />
</svg>