<?xml version="1.0" encoding="UTF-8"?>
<svg id="logo" xmlns="http://www.w3.org/2000/svg" xmlns:xlink="http://www.w3.org/1999/xlink" viewBox="0 0 273 139">
  <defs>
    <style>
      .cls-1 {
        fill: #e6f6eb;
      }

      #text {filter: url(#filter);}

      .cls-2 {
        fill: #000;
        filter: url(#drop-shadow-1);
        stroke: #414042;
        stroke-miterlimit: 10;
        stroke-width: 5px;
      }

      .cls-3 {
        fill: #12a758;
      }

      .cls-4 {
          fill:#424242;
      }
    </style>


    <filter id="drop-shadow-1" filterUnits="userSpaceOnUse">
      <feOffset dx="7" dy="7" />
      <feGaussianBlur result="blur" stdDeviation="5" />
      <feFlood flood-color="#000" flood-opacity="1" />
      <feComposite in2="blur" operator="in" />
      <feComposite in="SourceGraphic" />
    </filter>

    <filter id="filter">
		    <feFlood flood-color="black" result="black" />
			<feOffset in="SourceGraphic" dx="-3" dy="0" result="off2a"/>
			<feOffset in="SourceGraphic" dx="-2" dy="0" result="off2b"/>

 			<feMerge x="0" width="100%" y="60px" height="65px" result="merge2">
				<feMergeNode in = "black" />
				<feMergeNode in = "comp2" />
				<feMergeNode in = "off2b" />

				<animate attributeName="y" 
		    		id = "y"
		    		dur ="5s"
		    		values = '103px; 104px; 69px; 53px; 42px; 104px; 78px; 89px; 96px; 100px; 67px; 50px; 96px; 66px; 88px; 42px; 13px; 100px; 100px; 104px;' 

		    		keyTimes = '0; 0.055; 0.100; 0.125; 0.159; 0.182; 0.202; 0.236; 0.268; 0.326; 0.357; 0.400; 0.408; 0.461; 0.493; 0.513; 0.548; 0.577; 0.613; 1'

 		    		repeatCount = "indefinite" />
 
				<animate attributeName="height" 
		    		id = "h"
		    		dur = "5s"
					
					values = '0px; 0px; 0px; 16px; 16px; 12px; 12px; 0px; 0px; 5px; 10px; 22px; 33px; 11px; 0px; 0px; 10px'

		    		keyTimes = '0; 0.055; 0.100; 0.125; 0.159; 0.182; 0.202; 0.236; 0.268; 0.326; 0.357; 0.400; 0.408; 0.461; 0.493; 0.513;  1'
		    		 
		    		repeatCount = "indefinite" />
		    </feMerge>
			
		 	<feMerge>
 				<feMergeNode in="SourceGraphic" />	
 			<feMergeNode in="merge2" />

		    </feMerge>
	    </filter>




  </defs>
  
  <rect id="container" class="cls-2" x="10.54" y="10.68" width="250" height="80" rx="5" ry="5" />
  <g id="text">
    <path class="cls-1" d="M46.27,45v1.46l-5.86,1.46v-2.93c0-.41-.14-.76-.42-1.04-.28-.28-.63-.42-1.04-.42s-.76,.14-1.04,.42-.42,.63-.42,1.04v4.39c0,.41,.14,.76,.42,1.04,.28,.28,.63,.42,1.04,.42,2.03,0,3.76,.71,5.19,2.14,1.43,1.43,2.14,3.15,2.14,5.19v4.39c0,2.03-.71,3.76-2.14,5.19s-3.15,2.14-5.19,2.14-3.76-.71-5.19-2.14c-1.43-1.43-2.14-3.15-2.14-5.19v-1.46l5.86-1.46v2.93c0,.41,.14,.76,.42,1.04,.28,.28,.63,.42,1.04,.42s.76-.14,1.04-.42,.42-.63,.42-1.04v-4.39c0-.41-.14-.76-.42-1.04-.28-.28-.63-.42-1.04-.42-2.03,0-3.76-.71-5.19-2.14-1.43-1.43-2.14-3.15-2.14-5.19v-4.39c0-2.03,.71-3.76,2.14-5.19s3.15-2.14,5.19-2.14,3.76,.71,5.19,2.14c1.43,1.43,2.14,3.15,2.14,5.19Z" />
    <path class="cls-1" d="M57.99,62.58v-2.93l5.86,1.46v1.46c0,2.03-.71,3.76-2.14,5.19s-3.15,2.14-5.19,2.14-3.76-.71-5.19-2.14c-1.43-1.43-2.14-3.15-2.14-5.19v-17.58c0-2.03,.71-3.76,2.14-5.19s3.15-2.14,5.19-2.14,3.76,.71,5.19,2.14c1.43,1.43,2.14,3.15,2.14,5.19v1.46l-5.86,1.46v-2.93c0-.41-.14-.76-.42-1.04-.28-.28-.63-.42-1.04-.42s-.76,.14-1.04,.42-.42,.63-.42,1.04v17.58c0,.41,.14,.76,.42,1.04,.28,.28,.63,.42,1.04,.42s.76-.14,1.04-.42,.42-.63,.42-1.04Z" />
    <path class="cls-1" d="M81.43,45v24.9h-5.86v-24.9c0-.41-.14-.76-.42-1.04-.28-.28-.63-.42-1.04-.42s-.76,.14-1.04,.42-.42,.63-.42,1.04v24.9h-5.86V28.88h5.86v8.94c.47-.1,.96-.15,1.46-.15,2.03,0,3.76,.71,5.19,2.14,1.43,1.43,2.14,3.15,2.14,5.19Z" />
    <path class="cls-1" d="M84.36,37.67h2.93l.44,1.11c1.17-.74,2.49-1.11,3.96-1.11,2.03,0,3.76,.71,5.19,2.14,1.43,1.43,2.14,3.15,2.14,5.19v1.46l-5.86,1.46v-2.93c0-.41-.14-.76-.42-1.04-.28-.28-.63-.42-1.04-.42s-.76,.14-1.04,.42-.42,.63-.42,1.04v24.9h-5.86V37.67Z" />
    <path class="cls-1" d="M101.93,45c0-2.03,.71-3.76,2.14-5.19s3.15-2.14,5.19-2.14,3.76,.71,5.19,2.14c1.43,1.43,2.14,3.15,2.14,5.19v11.72h-8.79v5.86c0,.41,.14,.76,.42,1.04,.28,.28,.63,.42,1.04,.42s.76-.14,1.04-.42,.42-.63,.42-1.04v-2.93l5.86,1.46v1.46c0,2.03-.71,3.76-2.14,5.19s-3.15,2.14-5.19,2.14-3.76-.71-5.19-2.14c-1.43-1.43-2.14-3.15-2.14-5.19v-17.58Zm8.79,0c0-.41-.14-.76-.42-1.04-.28-.28-.63-.42-1.04-.42s-.76,.14-1.04,.42-.42,.63-.42,1.04v5.86h2.93v-5.86Z" />
    <path class="cls-1" d="M119.51,34.74v-5.86h5.86v5.86h-5.86Zm5.86,2.93v32.23h-5.86V37.67h5.86Z" />
    <path class="cls-1" d="M134.16,37.82c.47-.1,.96-.15,1.46-.15,2.03,0,3.76,.71,5.19,2.14,1.43,1.43,2.14,3.15,2.14,5.19v17.58c0,2.03-.71,3.76-2.14,5.19-1.43,1.43-3.15,2.14-5.19,2.14-1.46,0-2.78-.37-3.96-1.11l-.44,1.11h-2.93V28.88h5.86v8.94Zm2.93,7.18c0-.41-.14-.76-.42-1.04-.28-.28-.63-.42-1.04-.42s-.76,.14-1.04,.42c-.28,.28-.42,.63-.42,1.04v17.58c0,.41,.14,.76,.42,1.04,.28,.28,.63,.42,1.04,.42s.76-.14,1.04-.42c.28-.28,.42-.63,.42-1.04v-17.58Z" />
    <g id="path">
        <path class="cls-4" d="M145.88,52.32v-5.86c2.93-1.95,5.86-1.95,8.79,0,2.93,1.95,5.86,1.95,8.79,0v5.86c-2.93,1.95-5.86,1.95-8.79,0-2.93-1.95-5.86-1.95-8.79,0Z" />
        <path class="cls-4" d="M182.5,25.95l-11.43,46.88h-6.15l11.43-46.88h6.15Z" />
        <path class="cls-4" d="M188.36,29.47v-3.52h5.86v3.52c.82,.35,1.57,.87,2.26,1.55,1.43,1.43,2.14,3.15,2.14,5.19v2.93l-5.86,1.46v-4.39c0-.41-.14-.76-.42-1.04-.28-.28-.63-.42-1.04-.42s-.76,.14-1.04,.42c-.28,.28-.42,.63-.42,1.04v8.79c0,.41,.14,.76,.42,1.04,.28,.28,.63,.42,1.04,.42,2.03,0,3.76,.71,5.19,2.14,1.43,1.43,2.14,3.15,2.14,5.19v8.79c0,2.03-.71,3.76-2.14,5.19-.68,.68-1.44,1.2-2.26,1.55v3.52h-5.86v-3.52c-.82-.35-1.57-.87-2.26-1.55-1.43-1.43-2.14-3.15-2.14-5.19v-2.93l5.86-1.46v4.39c0,.41,.14,.76,.42,1.04,.28,.28,.63,.42,1.04,.42s.76-.14,1.04-.42c.28-.28,.42-.63,.42-1.04v-8.79c0-.41-.14-.76-.42-1.04-.28-.28-.63-.42-1.04-.42-2.03,0-3.76-.71-5.19-2.14-1.43-1.43-2.14-3.15-2.14-5.19v-8.79c0-2.03,.71-3.76,2.14-5.19,.68-.68,1.44-1.2,2.26-1.55Z" />
    </g>
  </g>
  <g id="subtext">
    <path class="cls-3" d="M14.62,138.27v-35.55h6.35c1.76,0,3.26,.62,4.49,1.85,1.24,1.24,1.85,2.73,1.85,4.49v7.62c0,1.44-.42,2.71-1.24,3.81,.83,1.1,1.24,2.37,1.24,3.81v7.62c0,1.76-.62,3.26-1.85,4.49s-2.73,1.85-4.49,1.85h-6.35Zm5.08-30.47v10.16h1.27c.36,0,.66-.12,.9-.37s.37-.55,.37-.9v-7.62c0-.36-.12-.66-.37-.9-.25-.25-.55-.37-.9-.37h-1.27Zm0,15.23v10.16h1.27c.36,0,.66-.12,.9-.37s.37-.55,.37-.9v-7.62c0-.36-.12-.66-.37-.9-.25-.25-.55-.37-.9-.37h-1.27Z" />
    <path class="cls-3" d="M34.93,133.2h5.08v5.08h-10.16v-35.55h10.16v5.08h-5.08v10.16h3.81v5.08h-3.81v10.16Z" />
    <path class="cls-3" d="M47.62,123.04v15.23h-5.08v-35.55h5.08l2.54,15.23v-15.23h5.08v35.55h-5.08l-2.54-15.23Z" />
    <path class="cls-3" d="M65.4,131.93v-29.2h5.08v29.2c0,1.76-.62,3.26-1.85,4.49s-2.73,1.85-4.49,1.85-3.26-.62-4.49-1.85c-1.24-1.24-1.85-2.73-1.85-4.49v-2.54l5.08-1.27v3.81c0,.36,.12,.66,.37,.9,.25,.25,.55,.37,.9,.37s.66-.12,.9-.37,.37-.55,.37-.9Z" />
    <path class="cls-3" d="M77.74,134.47l-.41,3.81h-5.08l4.57-35.55h5.08l4.57,35.55h-5.08l-.41-3.81h-3.25Zm2.72-5.08l-1.09-10.16-1.09,10.16h2.18Z" />
    <path class="cls-3" d="M95.23,134.47l-1.9-11.43v15.23h-5.08v-35.55h5.08l2.54,15.23,2.54-15.23h5.08v35.55h-5.08v-15.23l-1.9,11.43h-1.27Z" />
    <path class="cls-3" d="M111.1,102.73v35.55h-5.08v-35.55h5.08Z" />
    <path class="cls-3" d="M118.72,123.04v15.23h-5.08v-35.55h5.08l2.54,15.23v-15.23h5.08v35.55h-5.08l-2.54-15.23Z" />
    <path class="cls-3" d="M149.19,109.07v2.54l-5.08,1.27v-3.81c0-.36-.12-.66-.37-.9-.25-.25-.55-.37-.9-.37s-.66,.12-.9,.37c-.25,.25-.37,.55-.37,.9v7.62c0,.36,.12,.66,.37,.9,.24,.25,.54,.37,.9,.37,1.76,0,3.26,.62,4.49,1.85,1.24,1.24,1.85,2.73,1.85,4.49v7.62c0,1.76-.62,3.26-1.85,4.49-1.23,1.24-2.73,1.85-4.49,1.85s-3.26-.62-4.49-1.85c-1.24-1.24-1.85-2.73-1.85-4.49v-2.54l5.08-1.27v3.81c0,.36,.12,.66,.37,.9,.24,.25,.54,.37,.9,.37s.66-.12,.9-.37c.24-.25,.37-.55,.37-.9v-7.62c0-.36-.12-.66-.37-.9-.25-.25-.55-.37-.9-.37-1.76,0-3.26-.62-4.49-1.85-1.24-1.24-1.85-2.73-1.85-4.49v-7.62c0-1.76,.62-3.26,1.85-4.49,1.24-1.24,2.73-1.85,4.49-1.85s3.26,.62,4.49,1.85c1.24,1.24,1.85,2.73,1.85,4.49Z" />
    <path class="cls-3" d="M164.42,109.07v2.54l-5.08,1.27v-3.81c0-.36-.12-.66-.37-.9-.25-.25-.55-.37-.9-.37s-.66,.12-.9,.37c-.25,.25-.37,.55-.37,.9v22.85c0,.36,.12,.66,.37,.9,.25,.25,.55,.37,.9,.37s.66-.12,.9-.37c.25-.25,.37-.55,.37-.9v-3.81l5.08,1.27v2.54c0,1.76-.62,3.26-1.85,4.49-1.24,1.24-2.73,1.85-4.49,1.85s-3.26-.62-4.49-1.85c-1.24-1.24-1.85-2.73-1.85-4.49v-22.85c0-1.76,.62-3.26,1.85-4.49,1.24-1.24,2.73-1.85,4.49-1.85s3.26,.62,4.49,1.85c1.24,1.24,1.85,2.73,1.85,4.49Z" />
    <path class="cls-3" d="M172.04,123.04v15.23h-5.08v-35.55h5.08v15.23h2.54v-15.23h5.08v35.55h-5.08v-15.23h-2.54Z" />
    <path class="cls-3" d="M187.27,123.04v15.23h-5.08v-35.55h6.35c1.76,0,3.26,.62,4.49,1.85,1.24,1.24,1.85,2.73,1.85,4.49v7.62c0,1.44-.42,2.71-1.24,3.81,.83,1.1,1.24,2.37,1.24,3.81v13.96h-5.08v-13.96c0-.36-.12-.66-.37-.9-.25-.25-.55-.37-.9-.37h-1.27Zm0-15.23v10.16h1.27c.36,0,.66-.12,.9-.37,.25-.25,.37-.55,.37-.9v-7.62c0-.36-.12-.66-.37-.9-.25-.25-.55-.37-.9-.37h-1.27Z" />
    <path class="cls-3" d="M202.51,133.2h5.08v5.08h-10.16v-35.55h10.16v5.08h-5.08v10.16h3.81v5.08h-3.81v10.16Z" />
    <path class="cls-3" d="M215.2,102.73v35.55h-5.08v-35.55h5.08Z" />
    <path class="cls-3" d="M217.74,138.27v-35.55h6.35c1.76,0,3.26,.62,4.49,1.85,1.24,1.24,1.85,2.73,1.85,4.49v7.62c0,1.44-.42,2.71-1.24,3.81,.83,1.1,1.24,2.37,1.24,3.81v7.62c0,1.76-.62,3.26-1.85,4.49-1.24,1.24-2.73,1.85-4.49,1.85h-6.35Zm5.08-30.47v10.16h1.27c.36,0,.66-.12,.9-.37,.25-.25,.37-.55,.37-.9v-7.62c0-.36-.12-.66-.37-.9-.25-.25-.55-.37-.9-.37h-1.27Zm0,15.23v10.16h1.27c.36,0,.66-.12,.9-.37,.25-.25,.37-.55,.37-.9v-7.62c0-.36-.12-.66-.37-.9-.25-.25-.55-.37-.9-.37h-1.27Z" />
    <path class="cls-3" d="M238.05,133.2h5.08v5.08h-10.16v-35.55h10.16v5.08h-5.08v10.16h3.81v5.08h-3.81v10.16Z" />
    <path class="cls-3" d="M250.75,123.04v15.23h-5.08v-35.55h6.35c1.76,0,3.26,.62,4.49,1.85,1.24,1.24,1.85,2.73,1.85,4.49v7.62c0,1.44-.42,2.71-1.24,3.81,.83,1.1,1.24,2.37,1.24,3.81v13.96h-5.08v-13.96c0-.36-.12-.66-.37-.9-.25-.25-.55-.37-.9-.37h-1.27Zm0-15.23v10.16h1.27c.36,0,.66-.12,.9-.37,.25-.25,.37-.55,.37-.9v-7.62c0-.36-.12-.66-.37-.9-.25-.25-.55-.37-.9-.37h-1.27Z" />
  </g>
  <rect id="blink" x="216.23" y="26.24" width="20.69" height="46.88">
<animate
    attributeName="fill"
    values="#e6f6eb;transparent"
    begin="0s"
    dur="2s"
    calcMode="discrete"
    repeatCount="indefinite"/>
    </rect>
</svg>